# MagicaVoxel @ Ephtracy

# group
g Flat_building_Red

# material
mtllib Flat_building_Red.mtl
usemtl palette

# normals
vn -1 0 0
vn 1 0 0
vn 0 0 1
vn 0 0 -1
vn 0 -1 0
vn 0 1 0

# texcoords
vt 0.306641 0.5
vt 0.939453 0.5
vt 0.943359 0.5
vt 0.970703 0.5
vt 0.974609 0.5
vt 0.978516 0.5
vt 0.982422 0.5

# verts
v 1 0 15
v 1 0 3
v 1 0 -20
v 1 7 15
v 1 7 3
v 1 8 14
v 1 8 4
v 1 9 14
v 1 9 4
v 1 10 15
v 1 10 3
v 1 32 3
v 1 32 -20
v 4 17 4
v 4 17 3
v 4 18 4
v 4 18 3
v 4 21 4
v 4 21 3
v 4 22 4
v 4 22 3
v 4 24 4
v 4 24 3
v 4 25 4
v 4 25 3
v 4 28 4
v 4 28 3
v 4 29 4
v 4 29 3
v 5 17 5
v 5 17 4
v 5 18 5
v 5 18 4
v 5 24 5
v 5 24 4
v 5 25 5
v 5 25 4
v 8 8 3
v 8 8 -1
v 8 14 3
v 8 14 2
v 8 14 -1
v 8 18 3
v 8 18 2
v 8 21 3
v 8 21 2
v 8 25 3
v 8 25 2
v 8 28 3
v 8 28 2
v 10 8 15
v 10 8 14
v 10 8 11
v 10 8 10
v 10 9 15
v 10 9 14
v 10 9 11
v 10 10 14
v 10 10 10
v 11 10 4
v 11 10 3
v 11 11 4
v 11 11 3
v 11 14 4
v 11 14 3
v 11 15 4
v 11 15 3
v 11 17 4
v 11 17 3
v 11 18 4
v 11 18 3
v 11 21 4
v 11 21 3
v 11 22 4
v 11 22 3
v 11 24 4
v 11 24 3
v 11 25 4
v 11 25 3
v 11 28 4
v 11 28 3
v 11 29 4
v 11 29 3
v 12 10 5
v 12 10 4
v 12 11 5
v 12 11 4
v 12 17 5
v 12 17 4
v 12 18 5
v 12 18 4
v 12 24 5
v 12 24 4
v 12 25 5
v 12 25 4
v 15 11 3
v 15 11 2
v 15 14 3
v 15 14 2
v 15 18 3
v 15 18 2
v 15 21 3
v 15 21 2
v 15 25 3
v 15 25 2
v 15 28 3
v 15 28 2
v 17 31 2
v 17 31 -19
v 17 32 2
v 17 32 -19
v 2 8 15
v 2 8 14
v 2 8 4
v 2 8 3
v 2 9 15
v 2 9 14
v 2 9 4
v 2 10 14
v 2 10 3
v 2 31 2
v 2 31 -19
v 2 32 2
v 2 32 -19
v 4 8 3
v 4 8 -1
v 4 14 3
v 4 14 2
v 4 14 -1
v 4 18 3
v 4 18 2
v 4 21 3
v 4 21 2
v 4 25 3
v 4 25 2
v 4 28 3
v 4 28 2
v 7 17 5
v 7 17 4
v 7 18 5
v 7 18 4
v 7 24 5
v 7 24 4
v 7 25 5
v 7 25 4
v 8 17 4
v 8 17 3
v 8 18 4
v 8 18 3
v 8 21 4
v 8 21 3
v 8 22 4
v 8 22 3
v 8 24 4
v 8 24 3
v 8 25 4
v 8 25 3
v 8 28 4
v 8 28 3
v 8 29 4
v 8 29 3
v 11 2 15
v 11 2 14
v 11 3 14
v 11 3 13
v 11 4 13
v 11 4 12
v 11 5 12
v 11 5 11
v 11 6 11
v 11 6 10
v 11 7 15
v 11 7 10
v 11 7 6
v 11 8 14
v 11 8 11
v 11 8 10
v 11 8 6
v 11 9 14
v 11 9 11
v 11 10 15
v 11 10 10
v 11 11 3
v 11 11 2
v 11 14 3
v 11 14 2
v 11 18 3
v 11 18 2
v 11 21 3
v 11 21 2
v 11 25 3
v 11 25 2
v 11 28 3
v 11 28 2
v 12 6 10
v 12 6 6
v 12 7 10
v 12 7 6
v 14 10 5
v 14 10 4
v 14 11 5
v 14 11 4
v 14 17 5
v 14 17 4
v 14 18 5
v 14 18 4
v 14 24 5
v 14 24 4
v 14 25 5
v 14 25 4
v 15 10 4
v 15 10 3
v 15 11 4
v 15 11 3
v 15 14 4
v 15 14 3
v 15 15 4
v 15 15 3
v 15 17 4
v 15 17 3
v 15 18 4
v 15 18 3
v 15 21 4
v 15 21 3
v 15 22 4
v 15 22 3
v 15 24 4
v 15 24 3
v 15 25 4
v 15 25 3
v 15 28 4
v 15 28 3
v 15 29 4
v 15 29 3
v 18 0 15
v 18 0 3
v 18 0 1
v 18 0 -2
v 18 0 -20
v 18 2 15
v 18 2 14
v 18 2 -0
v 18 2 -2
v 18 3 14
v 18 3 13
v 18 3 7
v 18 3 5
v 18 3 3
v 18 3 2
v 18 3 1
v 18 3 -0
v 18 4 13
v 18 4 12
v 18 4 7
v 18 4 5
v 18 4 3
v 18 4 2
v 18 4 1
v 18 5 12
v 18 5 11
v 18 5 2
v 18 5 1
v 18 5 -0
v 18 6 11
v 18 6 6
v 18 6 3
v 18 6 2
v 18 6 1
v 18 6 -0
v 18 8 6
v 18 8 3
v 18 8 2
v 18 32 3
v 18 32 -20
v 1 0 15
v 1 7 15
v 1 10 15
v 2 8 15
v 2 9 15
v 10 8 15
v 10 9 15
v 11 2 15
v 11 7 15
v 11 10 15
v 18 0 15
v 18 2 15
v 11 2 14
v 11 3 14
v 18 2 14
v 18 3 14
v 11 3 13
v 11 4 13
v 18 3 13
v 18 4 13
v 11 4 12
v 11 5 12
v 18 4 12
v 18 5 12
v 10 8 11
v 10 9 11
v 11 5 11
v 11 6 11
v 11 8 11
v 11 9 11
v 18 5 11
v 18 6 11
v 11 6 10
v 11 7 10
v 12 6 10
v 12 7 10
v 11 7 6
v 11 8 6
v 12 6 6
v 12 7 6
v 18 6 6
v 18 8 6
v 5 17 5
v 5 18 5
v 5 24 5
v 5 25 5
v 7 17 5
v 7 18 5
v 7 24 5
v 7 25 5
v 12 10 5
v 12 11 5
v 12 17 5
v 12 18 5
v 12 24 5
v 12 25 5
v 14 10 5
v 14 11 5
v 14 17 5
v 14 18 5
v 14 24 5
v 14 25 5
v 1 8 4
v 1 9 4
v 2 8 4
v 2 9 4
v 4 17 4
v 4 18 4
v 4 21 4
v 4 22 4
v 4 24 4
v 4 25 4
v 4 28 4
v 4 29 4
v 5 17 4
v 5 18 4
v 5 24 4
v 5 25 4
v 7 17 4
v 7 18 4
v 7 24 4
v 7 25 4
v 8 17 4
v 8 18 4
v 8 21 4
v 8 22 4
v 8 24 4
v 8 25 4
v 8 28 4
v 8 29 4
v 11 10 4
v 11 11 4
v 11 14 4
v 11 15 4
v 11 17 4
v 11 18 4
v 11 21 4
v 11 22 4
v 11 24 4
v 11 25 4
v 11 28 4
v 11 29 4
v 12 10 4
v 12 11 4
v 12 17 4
v 12 18 4
v 12 24 4
v 12 25 4
v 14 10 4
v 14 11 4
v 14 17 4
v 14 18 4
v 14 24 4
v 14 25 4
v 15 10 4
v 15 11 4
v 15 14 4
v 15 15 4
v 15 17 4
v 15 18 4
v 15 21 4
v 15 22 4
v 15 24 4
v 15 25 4
v 15 28 4
v 15 29 4
v 1 10 3
v 1 32 3
v 2 8 3
v 2 10 3
v 4 8 3
v 4 14 3
v 4 17 3
v 4 18 3
v 4 21 3
v 4 22 3
v 4 24 3
v 4 25 3
v 4 28 3
v 4 29 3
v 8 8 3
v 8 14 3
v 8 17 3
v 8 18 3
v 8 21 3
v 8 22 3
v 8 24 3
v 8 25 3
v 8 28 3
v 8 29 3
v 11 10 3
v 11 11 3
v 11 14 3
v 11 15 3
v 11 17 3
v 11 18 3
v 11 21 3
v 11 22 3
v 11 24 3
v 11 25 3
v 11 28 3
v 11 29 3
v 15 10 3
v 15 11 3
v 15 14 3
v 15 15 3
v 15 17 3
v 15 18 3
v 15 21 3
v 15 22 3
v 15 24 3
v 15 25 3
v 15 28 3
v 15 29 3
v 18 8 3
v 18 32 3
v 4 18 2
v 4 21 2
v 4 25 2
v 4 28 2
v 8 18 2
v 8 21 2
v 8 25 2
v 8 28 2
v 11 11 2
v 11 14 2
v 11 18 2
v 11 21 2
v 11 25 2
v 11 28 2
v 15 11 2
v 15 14 2
v 15 18 2
v 15 21 2
v 15 25 2
v 15 28 2
v 4 8 -1
v 4 14 -1
v 8 8 -1
v 8 14 -1
v 2 31 -19
v 2 32 -19
v 17 31 -19
v 17 32 -19
v 1 8 14
v 1 9 14
v 2 8 14
v 2 9 14
v 2 10 14
v 10 8 14
v 10 9 14
v 10 10 14
v 11 8 14
v 11 9 14
v 10 8 10
v 10 10 10
v 11 8 10
v 11 10 10
v 2 31 2
v 2 32 2
v 17 31 2
v 17 32 2
v 1 0 -20
v 1 32 -20
v 16 0 -20
v 16 1 -20
v 17 0 -20
v 17 1 -20
v 18 0 -20
v 18 32 -20
v 1 0 15
v 18 0 15
v 1 0 3
v 2 0 3
v 15 0 3
v 16 0 3
v 17 0 3
v 18 0 3
v 17 0 1
v 18 0 1
v 17 0 -2
v 18 0 -2
v 2 0 -19
v 15 0 -19
v 1 0 -20
v 16 0 -20
v 17 0 -20
v 18 0 -20
v 2 9 15
v 10 9 15
v 1 9 14
v 2 9 14
v 10 9 14
v 11 9 14
v 10 9 11
v 11 9 11
v 1 9 4
v 2 9 4
v 12 10 5
v 14 10 5
v 11 10 4
v 12 10 4
v 14 10 4
v 15 10 4
v 11 10 3
v 15 10 3
v 11 14 4
v 15 14 4
v 4 14 3
v 8 14 3
v 11 14 3
v 15 14 3
v 4 14 2
v 8 14 2
v 11 14 2
v 15 14 2
v 4 14 -1
v 8 14 -1
v 5 17 5
v 7 17 5
v 12 17 5
v 14 17 5
v 4 17 4
v 5 17 4
v 7 17 4
v 8 17 4
v 11 17 4
v 12 17 4
v 14 17 4
v 15 17 4
v 4 17 3
v 8 17 3
v 11 17 3
v 15 17 3
v 4 21 4
v 8 21 4
v 11 21 4
v 15 21 4
v 4 21 3
v 8 21 3
v 11 21 3
v 15 21 3
v 4 21 2
v 8 21 2
v 11 21 2
v 15 21 2
v 5 24 5
v 7 24 5
v 12 24 5
v 14 24 5
v 4 24 4
v 5 24 4
v 7 24 4
v 8 24 4
v 11 24 4
v 12 24 4
v 14 24 4
v 15 24 4
v 4 24 3
v 8 24 3
v 11 24 3
v 15 24 3
v 4 28 4
v 8 28 4
v 11 28 4
v 15 28 4
v 4 28 3
v 8 28 3
v 11 28 3
v 15 28 3
v 4 28 2
v 8 28 2
v 11 28 2
v 15 28 2
v 11 2 15
v 18 2 15
v 11 2 14
v 18 2 14
v 11 3 14
v 18 3 14
v 11 3 13
v 18 3 13
v 11 4 13
v 18 4 13
v 11 4 12
v 18 4 12
v 11 5 12
v 18 5 12
v 11 5 11
v 18 5 11
v 11 6 11
v 18 6 11
v 11 6 10
v 12 6 10
v 12 6 6
v 18 6 6
v 11 7 10
v 12 7 10
v 11 7 6
v 12 7 6
v 2 8 15
v 10 8 15
v 1 8 14
v 2 8 14
v 10 8 14
v 11 8 14
v 10 8 11
v 11 8 11
v 10 8 10
v 11 8 10
v 10 8 6
v 11 8 6
v 18 8 6
v 1 8 4
v 2 8 4
v 2 8 3
v 4 8 3
v 8 8 3
v 18 8 3
v 4 8 -1
v 8 8 -1
v 1 10 15
v 11 10 15
v 2 10 14
v 10 10 14
v 10 10 10
v 11 10 10
v 1 10 3
v 2 10 3
v 12 11 5
v 14 11 5
v 11 11 4
v 12 11 4
v 14 11 4
v 15 11 4
v 11 11 3
v 15 11 3
v 11 11 2
v 15 11 2
v 11 15 4
v 15 15 4
v 11 15 3
v 15 15 3
v 5 18 5
v 7 18 5
v 12 18 5
v 14 18 5
v 4 18 4
v 5 18 4
v 7 18 4
v 8 18 4
v 11 18 4
v 12 18 4
v 14 18 4
v 15 18 4
v 4 18 3
v 8 18 3
v 11 18 3
v 15 18 3
v 4 18 2
v 8 18 2
v 11 18 2
v 15 18 2
v 4 22 4
v 8 22 4
v 11 22 4
v 15 22 4
v 4 22 3
v 8 22 3
v 11 22 3
v 15 22 3
v 5 25 5
v 7 25 5
v 12 25 5
v 14 25 5
v 4 25 4
v 5 25 4
v 7 25 4
v 8 25 4
v 11 25 4
v 12 25 4
v 14 25 4
v 15 25 4
v 4 25 3
v 8 25 3
v 11 25 3
v 15 25 3
v 4 25 2
v 8 25 2
v 11 25 2
v 15 25 2
v 4 29 4
v 8 29 4
v 11 29 4
v 15 29 4
v 4 29 3
v 8 29 3
v 11 29 3
v 15 29 3
v 2 31 2
v 17 31 2
v 2 31 -19
v 17 31 -19
v 1 32 3
v 18 32 3
v 2 32 2
v 17 32 2
v 2 32 -19
v 17 32 -19
v 1 32 -20
v 18 32 -20

# faces
f 4/2/1 2/2/1 1/2/1
f 5/6/1 3/6/1 2/6/1
f 5/2/1 2/2/1 4/2/1
f 6/4/1 5/4/1 4/4/1
f 7/4/1 5/4/1 6/4/1
f 8/4/1 6/4/1 4/4/1
f 9/4/1 5/4/1 7/4/1
f 10/4/1 8/4/1 4/4/1
f 10/4/1 9/4/1 8/4/1
f 11/6/1 3/6/1 5/6/1
f 11/4/1 9/4/1 10/4/1
f 11/4/1 5/4/1 9/4/1
f 12/6/1 3/6/1 11/6/1
f 13/6/1 3/6/1 12/6/1
f 16/4/1 15/4/1 14/4/1
f 17/4/1 15/4/1 16/4/1
f 20/5/1 19/5/1 18/5/1
f 21/5/1 19/5/1 20/5/1
f 24/4/1 23/4/1 22/4/1
f 25/4/1 23/4/1 24/4/1
f 28/5/1 27/5/1 26/5/1
f 29/5/1 27/5/1 28/5/1
f 32/4/1 31/4/1 30/4/1
f 33/4/1 31/4/1 32/4/1
f 36/4/1 35/4/1 34/4/1
f 37/4/1 35/4/1 36/4/1
f 40/6/1 39/6/1 38/6/1
f 41/6/1 39/6/1 40/6/1
f 42/6/1 39/6/1 41/6/1
f 45/6/1 44/6/1 43/6/1
f 46/6/1 44/6/1 45/6/1
f 49/6/1 48/6/1 47/6/1
f 50/6/1 48/6/1 49/6/1
f 55/4/1 52/4/1 51/4/1
f 56/4/1 52/4/1 55/4/1
f 57/4/1 54/4/1 53/4/1
f 58/4/1 57/4/1 56/4/1
f 59/4/1 54/4/1 57/4/1
f 59/4/1 57/4/1 58/4/1
f 62/4/1 61/4/1 60/4/1
f 63/4/1 61/4/1 62/4/1
f 66/5/1 65/5/1 64/5/1
f 67/5/1 65/5/1 66/5/1
f 70/4/1 69/4/1 68/4/1
f 71/4/1 69/4/1 70/4/1
f 74/5/1 73/5/1 72/5/1
f 75/5/1 73/5/1 74/5/1
f 78/4/1 77/4/1 76/4/1
f 79/4/1 77/4/1 78/4/1
f 82/5/1 81/5/1 80/5/1
f 83/5/1 81/5/1 82/5/1
f 86/4/1 85/4/1 84/4/1
f 87/4/1 85/4/1 86/4/1
f 90/4/1 89/4/1 88/4/1
f 91/4/1 89/4/1 90/4/1
f 94/4/1 93/4/1 92/4/1
f 95/4/1 93/4/1 94/4/1
f 98/6/1 97/6/1 96/6/1
f 99/6/1 97/6/1 98/6/1
f 102/6/1 101/6/1 100/6/1
f 103/6/1 101/6/1 102/6/1
f 106/6/1 105/6/1 104/6/1
f 107/6/1 105/6/1 106/6/1
f 110/6/1 109/6/1 108/6/1
f 111/6/1 109/6/1 110/6/1
f 112/4/2 113/4/2 116/4/2
f 116/4/2 113/4/2 117/4/2
f 114/4/2 115/4/2 118/4/2
f 117/4/2 118/4/2 119/4/2
f 118/4/2 115/4/2 120/4/2
f 119/4/2 118/4/2 120/4/2
f 121/6/2 122/6/2 123/6/2
f 123/6/2 122/6/2 124/6/2
f 125/6/2 126/6/2 127/6/2
f 127/6/2 126/6/2 128/6/2
f 128/6/2 126/6/2 129/6/2
f 130/6/2 131/6/2 132/6/2
f 132/6/2 131/6/2 133/6/2
f 134/6/2 135/6/2 136/6/2
f 136/6/2 135/6/2 137/6/2
f 138/4/2 139/4/2 140/4/2
f 140/4/2 139/4/2 141/4/2
f 142/4/2 143/4/2 144/4/2
f 144/4/2 143/4/2 145/4/2
f 146/4/2 147/4/2 148/4/2
f 148/4/2 147/4/2 149/4/2
f 150/5/2 151/5/2 152/5/2
f 152/5/2 151/5/2 153/5/2
f 154/4/2 155/4/2 156/4/2
f 156/4/2 155/4/2 157/4/2
f 158/5/2 159/5/2 160/5/2
f 160/5/2 159/5/2 161/5/2
f 162/2/2 163/2/2 164/2/2
f 164/2/2 165/2/2 166/2/2
f 166/2/2 167/2/2 168/2/2
f 168/2/2 169/2/2 170/2/2
f 162/2/2 164/2/2 172/2/2
f 170/2/2 171/2/2 172/2/2
f 168/2/2 170/2/2 172/2/2
f 166/2/2 168/2/2 172/2/2
f 164/2/2 166/2/2 172/2/2
f 172/2/2 171/2/2 173/2/2
f 172/4/2 173/4/2 175/4/2
f 173/4/2 174/4/2 175/4/2
f 175/4/2 174/4/2 176/4/2
f 176/4/2 174/4/2 177/4/2
f 177/4/2 174/4/2 178/4/2
f 172/4/2 175/4/2 179/4/2
f 176/4/2 177/4/2 180/4/2
f 172/4/2 179/4/2 181/4/2
f 179/4/2 180/4/2 181/4/2
f 180/4/2 177/4/2 182/4/2
f 181/4/2 180/4/2 182/4/2
f 183/6/2 184/6/2 185/6/2
f 185/6/2 184/6/2 186/6/2
f 187/6/2 188/6/2 189/6/2
f 189/6/2 188/6/2 190/6/2
f 191/6/2 192/6/2 193/6/2
f 193/6/2 192/6/2 194/6/2
f 195/2/2 196/2/2 197/2/2
f 197/2/2 196/2/2 198/2/2
f 199/4/2 200/4/2 201/4/2
f 201/4/2 200/4/2 202/4/2
f 203/4/2 204/4/2 205/4/2
f 205/4/2 204/4/2 206/4/2
f 207/4/2 208/4/2 209/4/2
f 209/4/2 208/4/2 210/4/2
f 211/4/2 212/4/2 213/4/2
f 213/4/2 212/4/2 214/4/2
f 215/5/2 216/5/2 217/5/2
f 217/5/2 216/5/2 218/5/2
f 219/4/2 220/4/2 221/4/2
f 221/4/2 220/4/2 222/4/2
f 223/5/2 224/5/2 225/5/2
f 225/5/2 224/5/2 226/5/2
f 227/4/2 228/4/2 229/4/2
f 229/4/2 228/4/2 230/4/2
f 231/5/2 232/5/2 233/5/2
f 233/5/2 232/5/2 234/5/2
f 235/2/2 236/2/2 240/2/2
f 240/2/2 236/2/2 241/2/2
f 237/2/2 238/2/2 242/2/2
f 238/6/2 239/6/2 243/6/2
f 242/2/2 238/2/2 243/2/2
f 241/2/2 236/2/2 244/2/2
f 244/2/2 236/2/2 245/2/2
f 245/2/2 236/2/2 246/2/2
f 246/2/2 236/2/2 247/2/2
f 236/6/2 237/6/2 248/6/2
f 247/2/2 236/2/2 248/2/2
f 248/6/2 237/6/2 249/6/2
f 237/2/2 242/2/2 250/2/2
f 249/6/2 237/6/2 250/6/2
f 242/6/2 243/6/2 251/6/2
f 250/2/2 242/2/2 251/2/2
f 245/2/2 246/2/2 252/2/2
f 252/2/2 246/2/2 253/2/2
f 246/6/2 247/6/2 254/6/2
f 253/2/2 246/2/2 254/2/2
f 248/2/2 249/2/2 255/2/2
f 254/6/2 247/6/2 255/6/2
f 247/2/2 248/2/2 255/2/2
f 255/2/2 249/2/2 256/2/2
f 249/6/2 250/6/2 257/6/2
f 256/2/2 249/2/2 257/2/2
f 250/6/2 251/6/2 257/6/2
f 257/6/2 251/6/2 258/6/2
f 253/2/2 254/2/2 259/2/2
f 255/2/2 256/2/2 259/2/2
f 254/2/2 255/2/2 259/2/2
f 259/2/2 256/2/2 260/2/2
f 257/2/2 258/2/2 261/2/2
f 256/6/2 257/6/2 261/6/2
f 258/6/2 251/6/2 262/6/2
f 261/2/2 258/2/2 262/2/2
f 251/6/2 243/6/2 263/6/2
f 262/6/2 251/6/2 263/6/2
f 260/2/2 256/2/2 264/2/2
f 264/2/2 256/2/2 265/2/2
f 256/6/2 261/6/2 266/6/2
f 265/2/2 256/2/2 266/2/2
f 261/6/2 262/6/2 266/6/2
f 266/6/2 262/6/2 267/6/2
f 262/2/2 263/2/2 268/2/2
f 267/6/2 262/6/2 268/6/2
f 263/6/2 243/6/2 269/6/2
f 268/2/2 263/2/2 269/2/2
f 266/2/2 267/2/2 270/2/2
f 265/2/2 266/2/2 270/2/2
f 270/2/2 267/2/2 271/2/2
f 267/6/2 268/6/2 272/6/2
f 271/2/2 267/2/2 272/2/2
f 268/6/2 269/6/2 272/6/2
f 271/6/2 272/6/2 273/6/2
f 269/6/2 243/6/2 274/6/2
f 273/6/2 272/6/2 274/6/2
f 272/6/2 269/6/2 274/6/2
f 243/6/2 239/6/2 274/6/2
f 278/4/3 277/4/3 276/4/3
f 279/4/3 277/4/3 278/4/3
f 280/4/3 278/4/3 276/4/3
f 281/4/3 277/4/3 279/4/3
f 282/2/3 276/2/3 275/2/3
f 283/4/3 281/4/3 280/4/3
f 283/2/3 276/2/3 282/2/3
f 283/4/3 280/4/3 276/4/3
f 284/4/3 277/4/3 281/4/3
f 284/4/3 281/4/3 283/4/3
f 285/2/3 282/2/3 275/2/3
f 286/2/3 282/2/3 285/2/3
f 289/2/3 288/2/3 287/2/3
f 290/2/3 288/2/3 289/2/3
f 293/2/3 292/2/3 291/2/3
f 294/2/3 292/2/3 293/2/3
f 297/2/3 296/2/3 295/2/3
f 298/2/3 296/2/3 297/2/3
f 303/4/3 300/4/3 299/4/3
f 304/4/3 300/4/3 303/4/3
f 305/2/3 302/2/3 301/2/3
f 306/2/3 302/2/3 305/2/3
f 309/2/3 308/2/3 307/2/3
f 310/2/3 308/2/3 309/2/3
f 314/2/3 312/2/3 311/2/3
f 315/2/3 314/2/3 313/2/3
f 316/2/3 312/2/3 314/2/3
f 316/2/3 314/2/3 315/2/3
f 321/4/3 318/4/3 317/4/3
f 322/4/3 318/4/3 321/4/3
f 323/4/3 320/4/3 319/4/3
f 324/4/3 320/4/3 323/4/3
f 331/4/3 326/4/3 325/4/3
f 332/4/3 326/4/3 331/4/3
f 333/4/3 328/4/3 327/4/3
f 334/4/3 328/4/3 333/4/3
f 335/4/3 330/4/3 329/4/3
f 336/4/3 330/4/3 335/4/3
f 339/4/3 338/4/3 337/4/3
f 340/4/3 338/4/3 339/4/3
f 349/4/3 342/4/3 341/4/3
f 350/4/3 342/4/3 349/4/3
f 351/4/3 346/4/3 345/4/3
f 352/4/3 346/4/3 351/4/3
f 357/4/3 354/4/3 353/4/3
f 358/4/3 354/4/3 357/4/3
f 359/5/3 344/5/3 343/5/3
f 360/5/3 344/5/3 359/5/3
f 361/4/3 356/4/3 355/4/3
f 362/4/3 356/4/3 361/4/3
f 363/5/3 348/5/3 347/5/3
f 364/5/3 348/5/3 363/5/3
f 377/4/3 366/4/3 365/4/3
f 378/4/3 366/4/3 377/4/3
f 379/4/3 370/4/3 369/4/3
f 380/4/3 370/4/3 379/4/3
f 381/4/3 374/4/3 373/4/3
f 382/4/3 374/4/3 381/4/3
f 389/4/3 384/4/3 383/4/3
f 390/4/3 384/4/3 389/4/3
f 391/5/3 368/5/3 367/5/3
f 392/5/3 368/5/3 391/5/3
f 393/4/3 386/4/3 385/4/3
f 394/4/3 386/4/3 393/4/3
f 395/5/3 372/5/3 371/5/3
f 396/5/3 372/5/3 395/5/3
f 397/4/3 388/4/3 387/4/3
f 398/4/3 388/4/3 397/4/3
f 399/5/3 376/5/3 375/5/3
f 400/5/3 376/5/3 399/5/3
f 404/6/3 402/6/3 401/6/3
f 405/6/3 404/6/3 403/6/3
f 406/6/3 402/6/3 404/6/3
f 406/6/3 404/6/3 405/6/3
f 407/6/3 402/6/3 406/6/3
f 408/6/3 402/6/3 407/6/3
f 409/6/3 402/6/3 408/6/3
f 410/6/3 402/6/3 409/6/3
f 411/6/3 402/6/3 410/6/3
f 412/6/3 402/6/3 411/6/3
f 413/6/3 402/6/3 412/6/3
f 414/6/3 402/6/3 413/6/3
f 416/6/3 407/6/3 406/6/3
f 417/6/3 407/6/3 416/6/3
f 420/6/3 411/6/3 410/6/3
f 421/6/3 411/6/3 420/6/3
f 424/6/3 402/6/3 414/6/3
f 425/6/3 423/6/3 422/6/3
f 425/6/3 424/6/3 423/6/3
f 425/6/3 419/6/3 418/6/3
f 425/6/3 416/6/3 415/6/3
f 425/6/3 422/6/3 421/6/3
f 425/6/3 421/6/3 420/6/3
f 425/6/3 420/6/3 419/6/3
f 425/6/3 417/6/3 416/6/3
f 425/6/3 418/6/3 417/6/3
f 426/6/3 424/6/3 425/6/3
f 427/6/3 424/6/3 426/6/3
f 428/6/3 424/6/3 427/6/3
f 429/6/3 424/6/3 428/6/3
f 430/6/3 424/6/3 429/6/3
f 431/6/3 424/6/3 430/6/3
f 432/6/3 424/6/3 431/6/3
f 433/6/3 424/6/3 432/6/3
f 434/6/3 424/6/3 433/6/3
f 435/6/3 424/6/3 434/6/3
f 436/6/3 402/6/3 424/6/3
f 436/6/3 424/6/3 435/6/3
f 437/6/3 425/6/3 415/6/3
f 440/6/3 429/6/3 428/6/3
f 441/6/3 429/6/3 440/6/3
f 444/6/3 433/6/3 432/6/3
f 445/6/3 433/6/3 444/6/3
f 448/6/3 402/6/3 436/6/3
f 449/6/3 447/6/3 446/6/3
f 449/6/3 448/6/3 447/6/3
f 449/6/3 443/6/3 442/6/3
f 449/6/3 439/6/3 438/6/3
f 449/6/3 446/6/3 445/6/3
f 449/6/3 445/6/3 444/6/3
f 449/6/3 444/6/3 443/6/3
f 449/6/3 437/6/3 415/6/3
f 449/6/3 442/6/3 441/6/3
f 449/6/3 441/6/3 440/6/3
f 449/6/3 440/6/3 439/6/3
f 449/6/3 438/6/3 437/6/3
f 450/6/3 402/6/3 448/6/3
f 450/6/3 448/6/3 449/6/3
f 455/7/3 452/7/3 451/7/3
f 456/7/3 452/7/3 455/7/3
f 457/7/3 454/7/3 453/7/3
f 458/7/3 454/7/3 457/7/3
f 465/7/3 460/7/3 459/7/3
f 466/7/3 460/7/3 465/7/3
f 467/7/3 462/7/3 461/7/3
f 468/7/3 462/7/3 467/7/3
f 469/7/3 464/7/3 463/7/3
f 470/7/3 464/7/3 469/7/3
f 473/7/3 472/7/3 471/7/3
f 474/7/3 472/7/3 473/7/3
f 477/6/3 476/6/3 475/6/3
f 478/6/3 476/6/3 477/6/3
f 479/4/4 480/4/4 481/4/4
f 481/4/4 480/4/4 482/4/4
f 482/4/4 483/4/4 485/4/4
f 485/4/4 483/4/4 486/4/4
f 484/4/4 485/4/4 487/4/4
f 487/4/4 485/4/4 488/4/4
f 489/4/4 490/4/4 491/4/4
f 491/4/4 490/4/4 492/4/4
f 493/6/4 494/6/4 495/6/4
f 495/6/4 494/6/4 496/6/4
f 497/6/4 498/6/4 499/6/4
f 499/6/4 498/6/4 500/6/4
f 499/3/4 500/3/4 501/3/4
f 500/6/4 498/6/4 502/6/4
f 501/3/4 500/3/4 502/3/4
f 501/6/4 502/6/4 503/6/4
f 502/6/4 498/6/4 504/6/4
f 503/6/4 502/6/4 504/6/4
f 507/2/5 506/2/5 505/2/5
f 508/2/5 506/2/5 507/2/5
f 509/2/5 506/2/5 508/2/5
f 510/2/5 506/2/5 509/2/5
f 511/2/5 506/2/5 510/2/5
f 512/2/5 506/2/5 511/2/5
f 513/3/5 511/3/5 510/3/5
f 513/6/5 512/6/5 511/6/5
f 514/6/5 512/6/5 513/6/5
f 515/3/5 513/3/5 510/3/5
f 515/2/5 514/2/5 513/2/5
f 516/2/5 514/2/5 515/2/5
f 517/6/5 508/6/5 507/6/5
f 517/1/5 509/1/5 508/1/5
f 518/6/5 510/6/5 509/6/5
f 518/1/5 509/1/5 517/1/5
f 519/6/5 517/6/5 507/6/5
f 519/6/5 518/6/5 517/6/5
f 520/6/5 510/6/5 518/6/5
f 520/6/5 518/6/5 519/6/5
f 520/3/5 515/3/5 510/3/5
f 521/6/5 516/6/5 515/6/5
f 521/3/5 515/3/5 520/3/5
f 522/6/5 516/6/5 521/6/5
f 526/4/5 524/4/5 523/4/5
f 527/4/5 524/4/5 526/4/5
f 529/4/5 528/4/5 527/4/5
f 530/4/5 528/4/5 529/4/5
f 531/4/5 526/4/5 525/4/5
f 532/4/5 526/4/5 531/4/5
f 536/4/5 534/4/5 533/4/5
f 537/4/5 534/4/5 536/4/5
f 539/4/5 536/4/5 535/4/5
f 539/4/5 538/4/5 537/4/5
f 539/4/5 537/4/5 536/4/5
f 540/4/5 538/4/5 539/4/5
f 545/5/5 542/5/5 541/5/5
f 546/5/5 542/5/5 545/5/5
f 547/6/5 544/6/5 543/6/5
f 548/6/5 544/6/5 547/6/5
f 549/1/5 546/1/5 545/1/5
f 550/1/5 546/1/5 549/1/5
f 551/1/5 548/1/5 547/1/5
f 552/1/5 548/1/5 551/1/5
f 558/4/5 554/4/5 553/4/5
f 559/4/5 554/4/5 558/4/5
f 562/4/5 556/4/5 555/4/5
f 563/4/5 556/4/5 562/4/5
f 565/4/5 560/4/5 559/4/5
f 565/4/5 558/4/5 557/4/5
f 565/4/5 559/4/5 558/4/5
f 566/4/5 560/4/5 565/4/5
f 567/4/5 564/4/5 563/4/5
f 567/4/5 563/4/5 562/4/5
f 567/4/5 562/4/5 561/4/5
f 568/4/5 564/4/5 567/4/5
f 573/5/5 570/5/5 569/5/5
f 574/5/5 570/5/5 573/5/5
f 575/5/5 572/5/5 571/5/5
f 576/5/5 572/5/5 575/5/5
f 577/1/5 574/1/5 573/1/5
f 578/1/5 574/1/5 577/1/5
f 579/1/5 576/1/5 575/1/5
f 580/1/5 576/1/5 579/1/5
f 586/4/5 582/4/5 581/4/5
f 587/4/5 582/4/5 586/4/5
f 590/4/5 584/4/5 583/4/5
f 591/4/5 584/4/5 590/4/5
f 593/4/5 588/4/5 587/4/5
f 593/4/5 586/4/5 585/4/5
f 593/4/5 587/4/5 586/4/5
f 594/4/5 588/4/5 593/4/5
f 595/4/5 592/4/5 591/4/5
f 595/4/5 591/4/5 590/4/5
f 595/4/5 590/4/5 589/4/5
f 596/4/5 592/4/5 595/4/5
f 601/5/5 598/5/5 597/5/5
f 602/5/5 598/5/5 601/5/5
f 603/5/5 600/5/5 599/5/5
f 604/5/5 600/5/5 603/5/5
f 605/1/5 602/1/5 601/1/5
f 606/1/5 602/1/5 605/1/5
f 607/1/5 604/1/5 603/1/5
f 608/1/5 604/1/5 607/1/5
f 609/2/6 610/2/6 611/2/6
f 611/2/6 610/2/6 612/2/6
f 613/2/6 614/2/6 615/2/6
f 615/2/6 614/2/6 616/2/6
f 617/2/6 618/2/6 619/2/6
f 619/2/6 618/2/6 620/2/6
f 621/2/6 622/2/6 623/2/6
f 623/2/6 622/2/6 624/2/6
f 625/2/6 626/2/6 627/2/6
f 627/2/6 626/2/6 628/2/6
f 628/2/6 626/2/6 629/2/6
f 629/2/6 626/2/6 630/2/6
f 631/2/6 632/2/6 633/2/6
f 633/2/6 632/2/6 634/2/6
f 635/4/6 636/4/6 638/4/6
f 638/4/6 636/4/6 639/4/6
f 638/2/6 639/2/6 641/2/6
f 639/4/6 640/4/6 641/4/6
f 641/4/6 640/4/6 642/4/6
f 638/2/6 641/2/6 643/2/6
f 638/2/6 643/2/6 645/2/6
f 643/4/6 644/4/6 645/4/6
f 645/4/6 644/4/6 646/4/6
f 637/4/6 638/4/6 648/4/6
f 646/2/6 647/2/6 649/2/6
f 648/4/6 638/4/6 649/4/6
f 645/2/6 646/2/6 649/2/6
f 638/2/6 645/2/6 649/2/6
f 649/2/6 647/2/6 650/2/6
f 650/2/6 647/2/6 651/2/6
f 651/2/6 647/2/6 652/2/6
f 652/2/6 647/2/6 653/2/6
f 651/2/6 652/2/6 654/2/6
f 654/2/6 652/2/6 655/2/6
f 656/4/6 657/4/6 658/4/6
f 658/4/6 657/4/6 659/4/6
f 659/4/6 657/4/6 660/4/6
f 660/4/6 657/4/6 661/4/6
f 656/4/6 658/4/6 662/4/6
f 662/4/6 658/4/6 663/4/6
f 664/4/6 665/4/6 667/4/6
f 667/4/6 665/4/6 668/4/6
f 666/4/6 667/4/6 670/4/6
f 668/4/6 669/4/6 670/4/6
f 667/4/6 668/4/6 670/4/6
f 670/4/6 669/4/6 671/4/6
f 670/5/6 671/5/6 672/5/6
f 672/5/6 671/5/6 673/5/6
f 674/5/6 675/5/6 676/5/6
f 676/5/6 675/5/6 677/5/6
f 678/4/6 679/4/6 683/4/6
f 683/4/6 679/4/6 684/4/6
f 680/4/6 681/4/6 687/4/6
f 687/4/6 681/4/6 688/4/6
f 684/4/6 685/4/6 690/4/6
f 682/4/6 683/4/6 690/4/6
f 683/4/6 684/4/6 690/4/6
f 690/4/6 685/4/6 691/4/6
f 688/4/6 689/4/6 692/4/6
f 687/4/6 688/4/6 692/4/6
f 686/4/6 687/4/6 692/4/6
f 692/4/6 689/4/6 693/4/6
f 690/5/6 691/5/6 694/5/6
f 694/5/6 691/5/6 695/5/6
f 692/5/6 693/5/6 696/5/6
f 696/5/6 693/5/6 697/5/6
f 698/5/6 699/5/6 702/5/6
f 702/5/6 699/5/6 703/5/6
f 700/5/6 701/5/6 704/5/6
f 704/5/6 701/5/6 705/5/6
f 706/4/6 707/4/6 711/4/6
f 711/4/6 707/4/6 712/4/6
f 708/4/6 709/4/6 715/4/6
f 715/4/6 709/4/6 716/4/6
f 712/4/6 713/4/6 718/4/6
f 710/4/6 711/4/6 718/4/6
f 711/4/6 712/4/6 718/4/6
f 718/4/6 713/4/6 719/4/6
f 716/4/6 717/4/6 720/4/6
f 715/4/6 716/4/6 720/4/6
f 714/4/6 715/4/6 720/4/6
f 720/4/6 717/4/6 721/4/6
f 718/5/6 719/5/6 722/5/6
f 722/5/6 719/5/6 723/5/6
f 720/5/6 721/5/6 724/5/6
f 724/5/6 721/5/6 725/5/6
f 726/5/6 727/5/6 730/5/6
f 730/5/6 727/5/6 731/5/6
f 728/5/6 729/5/6 732/5/6
f 732/5/6 729/5/6 733/5/6
f 734/5/6 735/5/6 736/5/6
f 736/5/6 735/5/6 737/5/6
f 738/6/6 739/6/6 740/6/6
f 740/6/6 739/6/6 741/6/6
f 738/6/6 740/6/6 742/6/6
f 741/6/6 739/6/6 743/6/6
f 738/6/6 742/6/6 744/6/6
f 742/6/6 743/6/6 744/6/6
f 743/6/6 739/6/6 745/6/6
f 744/6/6 743/6/6 745/6/6
