# MagicaVoxel @ Ephtracy

# group
g Light

# material
mtllib Light.mtl
usemtl palette

# normals
vn -1 0 0
vn 1 0 0
vn 0 0 1
vn 0 0 -1
vn 0 -1 0
vn 0 1 0

# texcoords
vt 0.0175781 0.5
vt 0.162109 0.5
vt 0.841797 0.5
vt 0.845703 0.5
vt 0.880859 0.5
vt 0.974609 0.5
vt 0.982422 0.5
vt 0.994141 0.5

# verts
v 0 12 6
v 0 12 5
v 0 12 3
v 0 12 2
v 0 13 5
v 0 13 3
v 0 14 6
v 0 14 2
v 0 15 6
v 0 15 5
v 0 15 3
v 0 15 2
v 0 16 5
v 0 16 3
v 0 17 6
v 0 17 2
v 0 18 6
v 0 18 5
v 0 18 3
v 0 18 2
v 0 19 5
v 0 19 3
v 0 20 6
v 0 20 2
v 1 0 6
v 1 0 2
v 1 1 6
v 1 1 2
v 1 10 6
v 1 10 2
v 1 11 5
v 1 11 3
v 1 12 7
v 1 12 6
v 1 12 5
v 1 12 3
v 1 12 2
v 1 12 1
v 1 14 7
v 1 14 6
v 1 14 5
v 1 14 3
v 1 14 2
v 1 14 1
v 1 15 7
v 1 15 6
v 1 15 5
v 1 15 3
v 1 15 2
v 1 15 1
v 1 17 7
v 1 17 6
v 1 17 5
v 1 17 3
v 1 17 2
v 1 17 1
v 1 18 7
v 1 18 6
v 1 18 5
v 1 18 3
v 1 18 2
v 1 18 1
v 1 20 7
v 1 20 6
v 1 20 2
v 1 20 1
v 1 21 6
v 1 21 2
v 2 1 5
v 2 1 3
v 2 10 5
v 2 10 3
v 2 11 5
v 2 11 4
v 2 11 3
v 2 13 5
v 2 13 4
v 2 13 3
v 2 14 5
v 2 14 3
v 2 16 5
v 2 16 3
v 2 17 5
v 2 17 4
v 2 17 3
v 2 19 5
v 2 19 4
v 2 19 3
v 2 21 5
v 2 21 3
v 2 22 5
v 2 22 3
v 4 11 6
v 4 11 5
v 4 11 3
v 4 11 2
v 4 12 7
v 4 12 6
v 4 12 2
v 4 12 1
v 4 13 7
v 4 13 6
v 4 13 5
v 4 13 3
v 4 13 2
v 4 13 1
v 4 14 6
v 4 14 5
v 4 14 3
v 4 14 2
v 4 15 7
v 4 15 6
v 4 15 2
v 4 15 1
v 4 16 7
v 4 16 6
v 4 16 5
v 4 16 3
v 4 16 2
v 4 16 1
v 4 17 6
v 4 17 5
v 4 17 3
v 4 17 2
v 4 18 7
v 4 18 6
v 4 18 2
v 4 18 1
v 4 19 7
v 4 19 6
v 4 19 5
v 4 19 3
v 4 19 2
v 4 19 1
v 2 11 6
v 2 11 5
v 2 11 3
v 2 11 2
v 2 12 7
v 2 12 6
v 2 12 2
v 2 12 1
v 2 13 7
v 2 13 6
v 2 13 5
v 2 13 3
v 2 13 2
v 2 13 1
v 2 14 6
v 2 14 5
v 2 14 3
v 2 14 2
v 2 15 7
v 2 15 6
v 2 15 2
v 2 15 1
v 2 16 7
v 2 16 6
v 2 16 5
v 2 16 3
v 2 16 2
v 2 16 1
v 2 17 6
v 2 17 5
v 2 17 3
v 2 17 2
v 2 18 7
v 2 18 6
v 2 18 2
v 2 18 1
v 2 19 7
v 2 19 6
v 2 19 5
v 2 19 3
v 2 19 2
v 2 19 1
v 4 1 5
v 4 1 3
v 4 2 4
v 4 2 3
v 4 5 4
v 4 5 3
v 4 7 4
v 4 7 3
v 4 9 4
v 4 9 3
v 4 10 5
v 4 10 3
v 4 11 5
v 4 11 3
v 4 13 5
v 4 13 3
v 4 14 5
v 4 14 3
v 4 16 5
v 4 16 3
v 4 17 5
v 4 17 3
v 4 19 5
v 4 19 3
v 4 21 5
v 4 21 3
v 4 22 5
v 4 22 3
v 5 0 6
v 5 0 2
v 5 1 6
v 5 1 2
v 5 10 6
v 5 10 2
v 5 11 5
v 5 11 3
v 5 12 7
v 5 12 6
v 5 12 5
v 5 12 3
v 5 12 2
v 5 12 1
v 5 14 7
v 5 14 6
v 5 14 5
v 5 14 3
v 5 14 2
v 5 14 1
v 5 15 7
v 5 15 6
v 5 15 5
v 5 15 3
v 5 15 2
v 5 15 1
v 5 17 7
v 5 17 6
v 5 17 5
v 5 17 3
v 5 17 2
v 5 17 1
v 5 18 7
v 5 18 6
v 5 18 5
v 5 18 3
v 5 18 2
v 5 18 1
v 5 20 7
v 5 20 6
v 5 20 2
v 5 20 1
v 5 21 6
v 5 21 2
v 6 12 6
v 6 12 5
v 6 12 3
v 6 12 2
v 6 13 5
v 6 13 3
v 6 14 6
v 6 14 2
v 6 15 6
v 6 15 5
v 6 15 3
v 6 15 2
v 6 16 5
v 6 16 3
v 6 17 6
v 6 17 2
v 6 18 6
v 6 18 5
v 6 18 3
v 6 18 2
v 6 19 5
v 6 19 3
v 6 20 6
v 6 20 2
v 1 12 7
v 1 14 7
v 1 15 7
v 1 17 7
v 1 18 7
v 1 20 7
v 2 12 7
v 2 13 7
v 2 15 7
v 2 16 7
v 2 18 7
v 2 19 7
v 4 12 7
v 4 13 7
v 4 15 7
v 4 16 7
v 4 18 7
v 4 19 7
v 5 12 7
v 5 14 7
v 5 15 7
v 5 17 7
v 5 18 7
v 5 20 7
v 0 12 6
v 0 14 6
v 0 15 6
v 0 17 6
v 0 18 6
v 0 20 6
v 1 0 6
v 1 1 6
v 1 10 6
v 1 12 6
v 1 14 6
v 1 15 6
v 1 17 6
v 1 18 6
v 1 20 6
v 1 21 6
v 2 0 6
v 2 1 6
v 2 11 6
v 2 12 6
v 2 14 6
v 2 15 6
v 2 17 6
v 2 18 6
v 4 0 6
v 4 1 6
v 4 11 6
v 4 12 6
v 4 14 6
v 4 15 6
v 4 17 6
v 4 18 6
v 5 0 6
v 5 1 6
v 5 10 6
v 5 12 6
v 5 14 6
v 5 15 6
v 5 17 6
v 5 18 6
v 5 20 6
v 5 21 6
v 6 12 6
v 6 14 6
v 6 15 6
v 6 17 6
v 6 18 6
v 6 20 6
v 2 1 5
v 2 10 5
v 2 11 5
v 2 13 5
v 2 14 5
v 2 16 5
v 2 17 5
v 2 19 5
v 2 21 5
v 2 22 5
v 4 1 5
v 4 10 5
v 4 11 5
v 4 13 5
v 4 14 5
v 4 16 5
v 4 17 5
v 4 19 5
v 4 21 5
v 4 22 5
v 0 12 3
v 0 13 3
v 0 15 3
v 0 16 3
v 0 18 3
v 0 19 3
v 1 11 3
v 1 12 3
v 1 13 3
v 1 14 3
v 1 15 3
v 1 16 3
v 1 17 3
v 1 18 3
v 1 19 3
v 2 11 3
v 2 13 3
v 2 14 3
v 2 16 3
v 2 17 3
v 2 19 3
v 4 11 3
v 4 13 3
v 4 14 3
v 4 16 3
v 4 17 3
v 4 19 3
v 5 11 3
v 5 12 3
v 5 13 3
v 5 14 3
v 5 15 3
v 5 16 3
v 5 17 3
v 5 18 3
v 5 19 3
v 6 12 3
v 6 13 3
v 6 15 3
v 6 16 3
v 6 18 3
v 6 19 3
v 0 12 5
v 0 13 5
v 0 15 5
v 0 16 5
v 0 18 5
v 0 19 5
v 1 11 5
v 1 12 5
v 1 13 5
v 1 14 5
v 1 15 5
v 1 16 5
v 1 17 5
v 1 18 5
v 1 19 5
v 2 11 5
v 2 13 5
v 2 14 5
v 2 16 5
v 2 17 5
v 2 19 5
v 4 11 5
v 4 13 5
v 4 14 5
v 4 16 5
v 4 17 5
v 4 19 5
v 5 11 5
v 5 12 5
v 5 13 5
v 5 14 5
v 5 15 5
v 5 16 5
v 5 17 5
v 5 18 5
v 5 19 5
v 6 12 5
v 6 13 5
v 6 15 5
v 6 16 5
v 6 18 5
v 6 19 5
v 2 1 3
v 2 10 3
v 2 11 3
v 2 13 3
v 2 14 3
v 2 16 3
v 2 17 3
v 2 19 3
v 2 21 3
v 2 22 3
v 3 2 3
v 3 5 3
v 3 7 3
v 3 9 3
v 3 11 3
v 3 13 3
v 3 17 3
v 3 19 3
v 4 1 3
v 4 2 3
v 4 5 3
v 4 7 3
v 4 9 3
v 4 10 3
v 4 11 3
v 4 13 3
v 4 14 3
v 4 16 3
v 4 17 3
v 4 19 3
v 4 21 3
v 4 22 3
v 0 12 2
v 0 14 2
v 0 15 2
v 0 17 2
v 0 18 2
v 0 20 2
v 1 0 2
v 1 1 2
v 1 10 2
v 1 12 2
v 1 14 2
v 1 15 2
v 1 17 2
v 1 18 2
v 1 20 2
v 1 21 2
v 2 0 2
v 2 1 2
v 2 11 2
v 2 12 2
v 2 14 2
v 2 15 2
v 2 17 2
v 2 18 2
v 4 0 2
v 4 1 2
v 4 11 2
v 4 12 2
v 4 14 2
v 4 15 2
v 4 17 2
v 4 18 2
v 5 0 2
v 5 1 2
v 5 10 2
v 5 12 2
v 5 14 2
v 5 15 2
v 5 17 2
v 5 18 2
v 5 20 2
v 5 21 2
v 6 12 2
v 6 14 2
v 6 15 2
v 6 17 2
v 6 18 2
v 6 20 2
v 1 12 1
v 1 14 1
v 1 15 1
v 1 17 1
v 1 18 1
v 1 20 1
v 2 12 1
v 2 13 1
v 2 15 1
v 2 16 1
v 2 18 1
v 2 19 1
v 4 12 1
v 4 13 1
v 4 15 1
v 4 16 1
v 4 18 1
v 4 19 1
v 5 12 1
v 5 14 1
v 5 15 1
v 5 17 1
v 5 18 1
v 5 20 1
v 1 0 6
v 2 0 6
v 4 0 6
v 5 0 6
v 2 0 5
v 4 0 5
v 2 0 3
v 4 0 3
v 1 0 2
v 2 0 2
v 4 0 2
v 5 0 2
v 1 10 6
v 5 10 6
v 2 10 5
v 4 10 5
v 2 10 3
v 4 10 3
v 1 10 2
v 5 10 2
v 1 12 7
v 2 12 7
v 4 12 7
v 5 12 7
v 0 12 6
v 1 12 6
v 2 12 6
v 4 12 6
v 5 12 6
v 6 12 6
v 0 12 5
v 1 12 5
v 5 12 5
v 6 12 5
v 0 12 3
v 1 12 3
v 5 12 3
v 6 12 3
v 0 12 2
v 1 12 2
v 2 12 2
v 4 12 2
v 5 12 2
v 6 12 2
v 1 12 1
v 2 12 1
v 4 12 1
v 5 12 1
v 2 13 7
v 4 13 7
v 2 13 6
v 4 13 6
v 0 13 5
v 1 13 5
v 2 13 5
v 4 13 5
v 5 13 5
v 6 13 5
v 2 13 4
v 0 13 3
v 1 13 3
v 2 13 3
v 3 13 3
v 4 13 3
v 5 13 3
v 6 13 3
v 2 13 2
v 4 13 2
v 2 13 1
v 4 13 1
v 1 15 7
v 2 15 7
v 4 15 7
v 5 15 7
v 0 15 6
v 1 15 6
v 2 15 6
v 4 15 6
v 5 15 6
v 6 15 6
v 0 15 5
v 1 15 5
v 5 15 5
v 6 15 5
v 0 15 3
v 1 15 3
v 5 15 3
v 6 15 3
v 0 15 2
v 1 15 2
v 2 15 2
v 4 15 2
v 5 15 2
v 6 15 2
v 1 15 1
v 2 15 1
v 4 15 1
v 5 15 1
v 2 16 7
v 4 16 7
v 2 16 6
v 4 16 6
v 0 16 5
v 1 16 5
v 2 16 5
v 4 16 5
v 5 16 5
v 6 16 5
v 0 16 3
v 1 16 3
v 2 16 3
v 4 16 3
v 5 16 3
v 6 16 3
v 2 16 2
v 4 16 2
v 2 16 1
v 4 16 1
v 1 18 7
v 2 18 7
v 4 18 7
v 5 18 7
v 0 18 6
v 1 18 6
v 2 18 6
v 4 18 6
v 5 18 6
v 6 18 6
v 0 18 5
v 1 18 5
v 5 18 5
v 6 18 5
v 0 18 3
v 1 18 3
v 5 18 3
v 6 18 3
v 0 18 2
v 1 18 2
v 2 18 2
v 4 18 2
v 5 18 2
v 6 18 2
v 1 18 1
v 2 18 1
v 4 18 1
v 5 18 1
v 2 19 7
v 4 19 7
v 2 19 6
v 4 19 6
v 0 19 5
v 1 19 5
v 2 19 5
v 4 19 5
v 5 19 5
v 6 19 5
v 2 19 4
v 0 19 3
v 1 19 3
v 2 19 3
v 3 19 3
v 4 19 3
v 5 19 3
v 6 19 3
v 2 19 2
v 4 19 2
v 2 19 1
v 4 19 1
v 1 1 6
v 2 1 6
v 4 1 6
v 5 1 6
v 2 1 5
v 4 1 5
v 2 1 3
v 4 1 3
v 1 1 2
v 2 1 2
v 4 1 2
v 5 1 2
v 2 11 6
v 4 11 6
v 1 11 5
v 2 11 5
v 4 11 5
v 5 11 5
v 2 11 4
v 1 11 3
v 2 11 3
v 3 11 3
v 4 11 3
v 5 11 3
v 2 11 2
v 4 11 2
v 1 14 7
v 5 14 7
v 0 14 6
v 1 14 6
v 2 14 6
v 4 14 6
v 5 14 6
v 6 14 6
v 1 14 5
v 2 14 5
v 4 14 5
v 5 14 5
v 1 14 3
v 2 14 3
v 4 14 3
v 5 14 3
v 0 14 2
v 1 14 2
v 2 14 2
v 4 14 2
v 5 14 2
v 6 14 2
v 1 14 1
v 5 14 1
v 1 17 7
v 5 17 7
v 0 17 6
v 1 17 6
v 2 17 6
v 4 17 6
v 5 17 6
v 6 17 6
v 1 17 5
v 2 17 5
v 4 17 5
v 5 17 5
v 2 17 4
v 1 17 3
v 2 17 3
v 3 17 3
v 4 17 3
v 5 17 3
v 0 17 2
v 1 17 2
v 2 17 2
v 4 17 2
v 5 17 2
v 6 17 2
v 1 17 1
v 5 17 1
v 1 20 7
v 5 20 7
v 0 20 6
v 1 20 6
v 5 20 6
v 6 20 6
v 0 20 2
v 1 20 2
v 5 20 2
v 6 20 2
v 1 20 1
v 5 20 1
v 1 21 6
v 5 21 6
v 2 21 5
v 4 21 5
v 2 21 3
v 4 21 3
v 1 21 2
v 5 21 2
v 2 22 5
v 4 22 5
v 2 22 3
v 4 22 3

# faces
f 5/8/1 2/8/1 1/8/1
f 6/8/1 4/8/1 3/8/1
f 7/8/1 5/8/1 1/8/1
f 7/8/1 6/8/1 5/8/1
f 8/8/1 4/8/1 6/8/1
f 8/8/1 6/8/1 7/8/1
f 13/8/1 10/8/1 9/8/1
f 14/8/1 12/8/1 11/8/1
f 15/8/1 13/8/1 9/8/1
f 15/8/1 14/8/1 13/8/1
f 16/8/1 12/8/1 14/8/1
f 16/8/1 14/8/1 15/8/1
f 21/8/1 18/8/1 17/8/1
f 22/8/1 20/8/1 19/8/1
f 23/8/1 21/8/1 17/8/1
f 23/8/1 22/8/1 21/8/1
f 24/8/1 20/8/1 22/8/1
f 24/8/1 22/8/1 23/8/1
f 27/7/1 26/7/1 25/7/1
f 28/7/1 26/7/1 27/7/1
f 31/7/1 30/7/1 29/7/1
f 32/7/1 30/7/1 31/7/1
f 34/7/1 31/7/1 29/7/1
f 35/7/1 31/7/1 34/7/1
f 36/7/1 30/7/1 32/7/1
f 37/7/1 30/7/1 36/7/1
f 39/8/1 34/8/1 33/8/1
f 40/8/1 34/8/1 39/8/1
f 43/8/1 38/8/1 37/8/1
f 44/8/1 38/8/1 43/8/1
f 46/7/1 41/7/1 40/7/1
f 47/7/1 41/7/1 46/7/1
f 48/7/1 43/7/1 42/7/1
f 49/7/1 43/7/1 48/7/1
f 51/8/1 46/8/1 45/8/1
f 52/8/1 46/8/1 51/8/1
f 55/8/1 50/8/1 49/8/1
f 56/8/1 50/8/1 55/8/1
f 58/7/1 53/7/1 52/7/1
f 59/7/1 53/7/1 58/7/1
f 60/7/1 55/7/1 54/7/1
f 61/7/1 55/7/1 60/7/1
f 63/8/1 58/8/1 57/8/1
f 64/8/1 58/8/1 63/8/1
f 65/8/1 62/8/1 61/8/1
f 66/8/1 62/8/1 65/8/1
f 67/7/1 65/7/1 64/7/1
f 68/7/1 65/7/1 67/7/1
f 71/7/1 70/7/1 69/7/1
f 72/7/1 70/7/1 71/7/1
f 76/2/1 74/2/1 73/2/1
f 77/1/1 75/1/1 74/1/1
f 77/2/1 74/2/1 76/2/1
f 78/1/1 75/1/1 77/1/1
f 81/5/1 80/5/1 79/5/1
f 82/5/1 80/5/1 81/5/1
f 86/4/1 84/4/1 83/4/1
f 87/3/1 85/3/1 84/3/1
f 87/4/1 84/4/1 86/4/1
f 88/3/1 85/3/1 87/3/1
f 91/7/1 90/7/1 89/7/1
f 92/7/1 90/7/1 91/7/1
f 98/7/1 94/7/1 93/7/1
f 99/7/1 96/7/1 95/7/1
f 101/8/1 98/8/1 97/8/1
f 102/7/1 94/7/1 98/7/1
f 102/8/1 98/8/1 101/8/1
f 103/7/1 94/7/1 102/7/1
f 104/7/1 99/7/1 95/7/1
f 105/8/1 100/8/1 99/8/1
f 105/7/1 99/7/1 104/7/1
f 106/8/1 100/8/1 105/8/1
f 112/7/1 108/7/1 107/7/1
f 113/7/1 110/7/1 109/7/1
f 115/8/1 112/8/1 111/8/1
f 116/7/1 108/7/1 112/7/1
f 116/8/1 112/8/1 115/8/1
f 117/7/1 108/7/1 116/7/1
f 118/7/1 113/7/1 109/7/1
f 119/8/1 114/8/1 113/8/1
f 119/7/1 113/7/1 118/7/1
f 120/8/1 114/8/1 119/8/1
f 126/7/1 122/7/1 121/7/1
f 127/7/1 124/7/1 123/7/1
f 129/8/1 126/8/1 125/8/1
f 130/7/1 122/7/1 126/7/1
f 130/8/1 126/8/1 129/8/1
f 131/7/1 122/7/1 130/7/1
f 132/7/1 127/7/1 123/7/1
f 133/8/1 128/8/1 127/8/1
f 133/7/1 127/7/1 132/7/1
f 134/8/1 128/8/1 133/8/1
f 135/7/2 136/7/2 140/7/2
f 137/7/2 138/7/2 141/7/2
f 139/8/2 140/8/2 143/8/2
f 140/7/2 136/7/2 144/7/2
f 143/8/2 140/8/2 144/8/2
f 144/7/2 136/7/2 145/7/2
f 137/7/2 141/7/2 146/7/2
f 141/8/2 142/8/2 147/8/2
f 146/7/2 141/7/2 147/7/2
f 147/8/2 142/8/2 148/8/2
f 149/7/2 150/7/2 154/7/2
f 151/7/2 152/7/2 155/7/2
f 153/8/2 154/8/2 157/8/2
f 154/7/2 150/7/2 158/7/2
f 157/8/2 154/8/2 158/8/2
f 158/7/2 150/7/2 159/7/2
f 151/7/2 155/7/2 160/7/2
f 155/8/2 156/8/2 161/8/2
f 160/7/2 155/7/2 161/7/2
f 161/8/2 156/8/2 162/8/2
f 163/7/2 164/7/2 168/7/2
f 165/7/2 166/7/2 169/7/2
f 167/8/2 168/8/2 171/8/2
f 168/7/2 164/7/2 172/7/2
f 171/8/2 168/8/2 172/8/2
f 172/7/2 164/7/2 173/7/2
f 165/7/2 169/7/2 174/7/2
f 169/8/2 170/8/2 175/8/2
f 174/7/2 169/7/2 175/7/2
f 175/8/2 170/8/2 176/8/2
f 177/7/2 178/7/2 179/7/2
f 179/7/2 178/7/2 180/7/2
f 177/7/2 179/7/2 181/7/2
f 179/6/2 180/6/2 181/6/2
f 181/6/2 180/6/2 182/6/2
f 177/7/2 181/7/2 183/7/2
f 181/7/2 182/7/2 183/7/2
f 183/7/2 182/7/2 184/7/2
f 177/7/2 183/7/2 185/7/2
f 183/6/2 184/6/2 185/6/2
f 185/6/2 184/6/2 186/6/2
f 177/7/2 185/7/2 187/7/2
f 185/7/2 186/7/2 187/7/2
f 187/7/2 186/7/2 188/7/2
f 189/2/2 190/2/2 191/2/2
f 191/2/2 190/2/2 192/2/2
f 193/5/2 194/5/2 195/5/2
f 195/5/2 194/5/2 196/5/2
f 197/4/2 198/4/2 199/4/2
f 199/4/2 198/4/2 200/4/2
f 201/7/2 202/7/2 203/7/2
f 203/7/2 202/7/2 204/7/2
f 205/7/2 206/7/2 207/7/2
f 207/7/2 206/7/2 208/7/2
f 209/7/2 210/7/2 211/7/2
f 211/7/2 210/7/2 212/7/2
f 209/7/2 211/7/2 214/7/2
f 214/7/2 211/7/2 215/7/2
f 212/7/2 210/7/2 216/7/2
f 216/7/2 210/7/2 217/7/2
f 213/8/2 214/8/2 219/8/2
f 219/8/2 214/8/2 220/8/2
f 217/8/2 218/8/2 223/8/2
f 223/8/2 218/8/2 224/8/2
f 220/7/2 221/7/2 226/7/2
f 226/7/2 221/7/2 227/7/2
f 222/7/2 223/7/2 228/7/2
f 228/7/2 223/7/2 229/7/2
f 225/8/2 226/8/2 231/8/2
f 231/8/2 226/8/2 232/8/2
f 229/8/2 230/8/2 235/8/2
f 235/8/2 230/8/2 236/8/2
f 232/7/2 233/7/2 238/7/2
f 238/7/2 233/7/2 239/7/2
f 234/7/2 235/7/2 240/7/2
f 240/7/2 235/7/2 241/7/2
f 237/8/2 238/8/2 243/8/2
f 243/8/2 238/8/2 244/8/2
f 241/8/2 242/8/2 245/8/2
f 245/8/2 242/8/2 246/8/2
f 244/7/2 245/7/2 247/7/2
f 247/7/2 245/7/2 248/7/2
f 249/8/2 250/8/2 253/8/2
f 251/8/2 252/8/2 254/8/2
f 249/8/2 253/8/2 255/8/2
f 253/8/2 254/8/2 255/8/2
f 254/8/2 252/8/2 256/8/2
f 255/8/2 254/8/2 256/8/2
f 257/8/2 258/8/2 261/8/2
f 259/8/2 260/8/2 262/8/2
f 257/8/2 261/8/2 263/8/2
f 261/8/2 262/8/2 263/8/2
f 262/8/2 260/8/2 264/8/2
f 263/8/2 262/8/2 264/8/2
f 265/8/2 266/8/2 269/8/2
f 267/8/2 268/8/2 270/8/2
f 265/8/2 269/8/2 271/8/2
f 269/8/2 270/8/2 271/8/2
f 270/8/2 268/8/2 272/8/2
f 271/8/2 270/8/2 272/8/2
f 279/8/3 274/8/3 273/8/3
f 280/8/3 274/8/3 279/8/3
f 281/8/3 276/8/3 275/8/3
f 282/8/3 276/8/3 281/8/3
f 283/8/3 278/8/3 277/8/3
f 284/8/3 278/8/3 283/8/3
f 286/8/3 274/8/3 280/8/3
f 288/8/3 276/8/3 282/8/3
f 290/8/3 278/8/3 284/8/3
f 291/8/3 286/8/3 285/8/3
f 292/8/3 274/8/3 286/8/3
f 292/8/3 286/8/3 291/8/3
f 293/8/3 288/8/3 287/8/3
f 294/8/3 276/8/3 288/8/3
f 294/8/3 288/8/3 293/8/3
f 295/8/3 290/8/3 289/8/3
f 296/8/3 278/8/3 290/8/3
f 296/8/3 290/8/3 295/8/3
f 306/8/3 298/8/3 297/8/3
f 307/8/3 298/8/3 306/8/3
f 308/8/3 300/8/3 299/8/3
f 309/8/3 300/8/3 308/8/3
f 310/8/3 302/8/3 301/8/3
f 311/8/3 302/8/3 310/8/3
f 313/7/3 304/7/3 303/7/3
f 314/7/3 304/7/3 313/7/3
f 315/7/3 306/7/3 305/7/3
f 316/7/3 306/7/3 315/7/3
f 317/7/3 308/7/3 307/7/3
f 318/7/3 308/7/3 317/7/3
f 319/7/3 310/7/3 309/7/3
f 320/7/3 310/7/3 319/7/3
f 321/6/3 314/6/3 313/6/3
f 322/6/3 314/6/3 321/6/3
f 323/7/3 315/7/3 305/7/3
f 329/7/3 322/7/3 321/7/3
f 330/7/3 322/7/3 329/7/3
f 331/7/3 323/7/3 305/7/3
f 331/7/3 324/7/3 323/7/3
f 332/7/3 324/7/3 331/7/3
f 333/7/3 326/7/3 325/7/3
f 334/7/3 326/7/3 333/7/3
f 335/7/3 328/7/3 327/7/3
f 336/7/3 328/7/3 335/7/3
f 337/7/3 312/7/3 311/7/3
f 338/7/3 312/7/3 337/7/3
f 339/8/3 333/8/3 332/8/3
f 340/8/3 333/8/3 339/8/3
f 341/8/3 335/8/3 334/8/3
f 342/8/3 335/8/3 341/8/3
f 343/8/3 337/8/3 336/8/3
f 344/8/3 337/8/3 343/8/3
f 355/7/3 346/7/3 345/7/3
f 356/7/3 346/7/3 355/7/3
f 357/2/3 348/2/3 347/2/3
f 358/2/3 348/2/3 357/2/3
f 359/5/3 350/5/3 349/5/3
f 360/5/3 350/5/3 359/5/3
f 361/4/3 352/4/3 351/4/3
f 362/4/3 352/4/3 361/4/3
f 363/7/3 354/7/3 353/7/3
f 364/7/3 354/7/3 363/7/3
f 372/8/3 366/8/3 365/8/3
f 373/8/3 366/8/3 372/8/3
f 375/8/3 368/8/3 367/8/3
f 376/8/3 368/8/3 375/8/3
f 378/8/3 370/8/3 369/8/3
f 379/8/3 370/8/3 378/8/3
f 380/7/3 373/7/3 372/7/3
f 380/7/3 372/7/3 371/7/3
f 381/7/3 373/7/3 380/7/3
f 382/7/3 376/7/3 375/7/3
f 382/7/3 375/7/3 374/7/3
f 383/7/3 376/7/3 382/7/3
f 384/7/3 379/7/3 378/7/3
f 384/7/3 378/7/3 377/7/3
f 385/7/3 379/7/3 384/7/3
f 392/7/3 387/7/3 386/7/3
f 393/7/3 387/7/3 392/7/3
f 394/7/3 387/7/3 393/7/3
f 395/7/3 389/7/3 388/7/3
f 396/7/3 389/7/3 395/7/3
f 397/7/3 389/7/3 396/7/3
f 398/7/3 391/7/3 390/7/3
f 399/7/3 391/7/3 398/7/3
f 400/7/3 391/7/3 399/7/3
f 401/8/3 394/8/3 393/8/3
f 402/8/3 394/8/3 401/8/3
f 403/8/3 397/8/3 396/8/3
f 404/8/3 397/8/3 403/8/3
f 405/8/3 400/8/3 399/8/3
f 406/8/3 400/8/3 405/8/3
f 407/8/4 408/8/4 414/8/4
f 414/8/4 408/8/4 415/8/4
f 409/8/4 410/8/4 417/8/4
f 417/8/4 410/8/4 418/8/4
f 411/8/4 412/8/4 420/8/4
f 420/8/4 412/8/4 421/8/4
f 414/7/4 415/7/4 422/7/4
f 413/7/4 414/7/4 422/7/4
f 422/7/4 415/7/4 423/7/4
f 417/7/4 418/7/4 424/7/4
f 416/7/4 417/7/4 424/7/4
f 424/7/4 418/7/4 425/7/4
f 420/7/4 421/7/4 426/7/4
f 419/7/4 420/7/4 426/7/4
f 426/7/4 421/7/4 427/7/4
f 428/7/4 429/7/4 434/7/4
f 434/7/4 429/7/4 435/7/4
f 435/7/4 429/7/4 436/7/4
f 430/7/4 431/7/4 437/7/4
f 437/7/4 431/7/4 438/7/4
f 438/7/4 431/7/4 439/7/4
f 432/7/4 433/7/4 440/7/4
f 440/7/4 433/7/4 441/7/4
f 441/7/4 433/7/4 442/7/4
f 435/8/4 436/8/4 443/8/4
f 443/8/4 436/8/4 444/8/4
f 438/8/4 439/8/4 445/8/4
f 445/8/4 439/8/4 446/8/4
f 441/8/4 442/8/4 447/8/4
f 447/8/4 442/8/4 448/8/4
f 449/7/4 450/7/4 459/7/4
f 459/7/4 450/7/4 460/7/4
f 460/7/4 450/7/4 461/7/4
f 461/7/4 450/7/4 462/7/4
f 451/1/4 452/1/4 463/1/4
f 463/1/4 452/1/4 464/1/4
f 455/3/4 456/3/4 465/3/4
f 465/3/4 456/3/4 466/3/4
f 449/7/4 459/7/4 467/7/4
f 459/6/4 460/6/4 468/6/4
f 467/7/4 459/7/4 468/7/4
f 460/7/4 461/7/4 469/7/4
f 468/6/4 460/6/4 469/6/4
f 461/6/4 462/6/4 470/6/4
f 469/7/4 461/7/4 470/7/4
f 462/7/4 450/7/4 471/7/4
f 470/6/4 462/6/4 471/6/4
f 471/7/4 450/7/4 472/7/4
f 463/2/4 464/2/4 473/2/4
f 473/2/4 464/2/4 474/2/4
f 453/5/4 454/5/4 475/5/4
f 475/5/4 454/5/4 476/5/4
f 465/4/4 466/4/4 477/4/4
f 477/4/4 466/4/4 478/4/4
f 457/7/4 458/7/4 479/7/4
f 479/7/4 458/7/4 480/7/4
f 481/8/4 482/8/4 490/8/4
f 490/8/4 482/8/4 491/8/4
f 483/8/4 484/8/4 492/8/4
f 492/8/4 484/8/4 493/8/4
f 485/8/4 486/8/4 494/8/4
f 494/8/4 486/8/4 495/8/4
f 487/7/4 488/7/4 497/7/4
f 497/7/4 488/7/4 498/7/4
f 489/7/4 490/7/4 499/7/4
f 499/7/4 490/7/4 500/7/4
f 491/7/4 492/7/4 501/7/4
f 501/7/4 492/7/4 502/7/4
f 493/7/4 494/7/4 503/7/4
f 503/7/4 494/7/4 504/7/4
f 497/6/4 498/6/4 505/6/4
f 505/6/4 498/6/4 506/6/4
f 489/7/4 499/7/4 507/7/4
f 505/7/4 506/7/4 513/7/4
f 513/7/4 506/7/4 514/7/4
f 489/7/4 507/7/4 515/7/4
f 507/7/4 508/7/4 515/7/4
f 515/7/4 508/7/4 516/7/4
f 509/7/4 510/7/4 517/7/4
f 517/7/4 510/7/4 518/7/4
f 511/7/4 512/7/4 519/7/4
f 519/7/4 512/7/4 520/7/4
f 495/7/4 496/7/4 521/7/4
f 521/7/4 496/7/4 522/7/4
f 516/8/4 517/8/4 523/8/4
f 523/8/4 517/8/4 524/8/4
f 518/8/4 519/8/4 525/8/4
f 525/8/4 519/8/4 526/8/4
f 520/8/4 521/8/4 527/8/4
f 527/8/4 521/8/4 528/8/4
f 529/8/4 530/8/4 535/8/4
f 535/8/4 530/8/4 536/8/4
f 531/8/4 532/8/4 537/8/4
f 537/8/4 532/8/4 538/8/4
f 533/8/4 534/8/4 539/8/4
f 539/8/4 534/8/4 540/8/4
f 536/8/4 530/8/4 542/8/4
f 538/8/4 532/8/4 544/8/4
f 540/8/4 534/8/4 546/8/4
f 541/8/4 542/8/4 547/8/4
f 542/8/4 530/8/4 548/8/4
f 547/8/4 542/8/4 548/8/4
f 543/8/4 544/8/4 549/8/4
f 544/8/4 532/8/4 550/8/4
f 549/8/4 544/8/4 550/8/4
f 545/8/4 546/8/4 551/8/4
f 546/8/4 534/8/4 552/8/4
f 551/8/4 546/8/4 552/8/4
f 557/7/5 554/7/5 553/7/5
f 557/6/5 555/6/5 554/6/5
f 558/7/5 556/7/5 555/7/5
f 558/6/5 555/6/5 557/6/5
f 559/7/5 557/7/5 553/7/5
f 559/7/5 558/7/5 557/7/5
f 560/7/5 556/7/5 558/7/5
f 560/7/5 558/7/5 559/7/5
f 561/7/5 559/7/5 553/7/5
f 562/6/5 560/6/5 559/6/5
f 562/7/5 559/7/5 561/7/5
f 563/7/5 556/7/5 560/7/5
f 563/6/5 560/6/5 562/6/5
f 564/7/5 556/7/5 563/7/5
f 567/7/5 566/7/5 565/7/5
f 568/7/5 566/7/5 567/7/5
f 569/7/5 567/7/5 565/7/5
f 570/7/5 566/7/5 568/7/5
f 571/7/5 569/7/5 565/7/5
f 571/7/5 570/7/5 569/7/5
f 572/7/5 566/7/5 570/7/5
f 572/7/5 570/7/5 571/7/5
f 578/8/5 574/8/5 573/8/5
f 579/8/5 574/8/5 578/8/5
f 580/8/5 576/8/5 575/8/5
f 581/8/5 576/8/5 580/8/5
f 583/8/5 578/8/5 577/8/5
f 584/8/5 578/8/5 583/8/5
f 585/8/5 582/8/5 581/8/5
f 586/8/5 582/8/5 585/8/5
f 591/8/5 588/8/5 587/8/5
f 592/8/5 588/8/5 591/8/5
f 595/8/5 590/8/5 589/8/5
f 596/8/5 590/8/5 595/8/5
f 597/8/5 593/8/5 592/8/5
f 598/8/5 593/8/5 597/8/5
f 599/8/5 595/8/5 594/8/5
f 600/8/5 595/8/5 599/8/5
f 603/8/5 602/8/5 601/8/5
f 604/8/5 602/8/5 603/8/5
f 607/7/5 604/7/5 603/7/5
f 608/7/5 604/7/5 607/7/5
f 611/7/5 607/7/5 606/7/5
f 612/8/5 606/8/5 605/8/5
f 613/7/5 611/7/5 606/7/5
f 613/8/5 606/8/5 612/8/5
f 614/7/5 611/7/5 613/7/5
f 616/7/5 609/7/5 608/7/5
f 617/8/5 610/8/5 609/8/5
f 617/7/5 609/7/5 616/7/5
f 618/8/5 610/8/5 617/8/5
f 619/7/5 616/7/5 615/7/5
f 619/7/5 615/7/5 614/7/5
f 620/7/5 616/7/5 619/7/5
f 621/8/5 620/8/5 619/8/5
f 622/8/5 620/8/5 621/8/5
f 628/8/5 624/8/5 623/8/5
f 629/8/5 624/8/5 628/8/5
f 630/8/5 626/8/5 625/8/5
f 631/8/5 626/8/5 630/8/5
f 633/8/5 628/8/5 627/8/5
f 634/8/5 628/8/5 633/8/5
f 635/8/5 632/8/5 631/8/5
f 636/8/5 632/8/5 635/8/5
f 641/8/5 638/8/5 637/8/5
f 642/8/5 638/8/5 641/8/5
f 645/8/5 640/8/5 639/8/5
f 646/8/5 640/8/5 645/8/5
f 647/8/5 643/8/5 642/8/5
f 648/8/5 643/8/5 647/8/5
f 649/8/5 645/8/5 644/8/5
f 650/8/5 645/8/5 649/8/5
f 653/8/5 652/8/5 651/8/5
f 654/8/5 652/8/5 653/8/5
f 657/7/5 654/7/5 653/7/5
f 658/7/5 654/7/5 657/7/5
f 661/8/5 656/8/5 655/8/5
f 662/7/5 657/7/5 656/7/5
f 662/8/5 656/8/5 661/8/5
f 663/7/5 657/7/5 662/7/5
f 664/7/5 659/7/5 658/7/5
f 665/8/5 660/8/5 659/8/5
f 665/7/5 659/7/5 664/7/5
f 666/8/5 660/8/5 665/8/5
f 667/7/5 664/7/5 663/7/5
f 668/7/5 664/7/5 667/7/5
f 669/8/5 668/8/5 667/8/5
f 670/8/5 668/8/5 669/8/5
f 676/8/5 672/8/5 671/8/5
f 677/8/5 672/8/5 676/8/5
f 678/8/5 674/8/5 673/8/5
f 679/8/5 674/8/5 678/8/5
f 681/8/5 676/8/5 675/8/5
f 682/8/5 676/8/5 681/8/5
f 683/8/5 680/8/5 679/8/5
f 684/8/5 680/8/5 683/8/5
f 689/8/5 686/8/5 685/8/5
f 690/8/5 686/8/5 689/8/5
f 693/8/5 688/8/5 687/8/5
f 694/8/5 688/8/5 693/8/5
f 695/8/5 691/8/5 690/8/5
f 696/8/5 691/8/5 695/8/5
f 697/8/5 693/8/5 692/8/5
f 698/8/5 693/8/5 697/8/5
f 701/8/5 700/8/5 699/8/5
f 702/8/5 700/8/5 701/8/5
f 705/7/5 702/7/5 701/7/5
f 706/7/5 702/7/5 705/7/5
f 709/7/5 705/7/5 704/7/5
f 710/8/5 704/8/5 703/8/5
f 711/7/5 709/7/5 704/7/5
f 711/8/5 704/8/5 710/8/5
f 712/7/5 709/7/5 711/7/5
f 714/7/5 707/7/5 706/7/5
f 715/8/5 708/8/5 707/8/5
f 715/7/5 707/7/5 714/7/5
f 716/8/5 708/8/5 715/8/5
f 717/7/5 714/7/5 713/7/5
f 717/7/5 713/7/5 712/7/5
f 718/7/5 714/7/5 717/7/5
f 719/8/5 718/8/5 717/8/5
f 720/8/5 718/8/5 719/8/5
f 721/7/6 722/7/6 725/7/6
f 722/6/6 723/6/6 725/6/6
f 723/7/6 724/7/6 726/7/6
f 725/6/6 723/6/6 726/6/6
f 721/7/6 725/7/6 727/7/6
f 726/7/6 724/7/6 728/7/6
f 721/7/6 727/7/6 729/7/6
f 727/6/6 728/6/6 730/6/6
f 729/7/6 727/7/6 730/7/6
f 728/7/6 724/7/6 731/7/6
f 730/6/6 728/6/6 731/6/6
f 731/7/6 724/7/6 732/7/6
f 733/7/6 734/7/6 736/7/6
f 736/7/6 734/7/6 737/7/6
f 735/7/6 736/7/6 739/7/6
f 735/7/6 739/7/6 740/7/6
f 740/7/6 739/7/6 741/7/6
f 737/7/6 738/7/6 743/7/6
f 743/7/6 738/7/6 744/7/6
f 741/7/6 742/7/6 745/7/6
f 742/7/6 743/7/6 745/7/6
f 745/7/6 743/7/6 746/7/6
f 747/8/6 748/8/6 750/8/6
f 750/8/6 748/8/6 751/8/6
f 751/8/6 748/8/6 752/8/6
f 752/8/6 748/8/6 753/8/6
f 749/8/6 750/8/6 755/8/6
f 751/7/6 752/7/6 756/7/6
f 756/7/6 752/7/6 757/7/6
f 753/8/6 754/8/6 758/8/6
f 749/8/6 755/8/6 759/8/6
f 755/7/6 756/7/6 759/7/6
f 759/7/6 756/7/6 760/7/6
f 757/7/6 758/7/6 761/7/6
f 758/8/6 754/8/6 762/8/6
f 761/7/6 758/7/6 762/7/6
f 749/8/6 759/8/6 763/8/6
f 763/8/6 759/8/6 764/8/6
f 760/7/6 761/7/6 765/7/6
f 765/7/6 761/7/6 766/7/6
f 762/8/6 754/8/6 767/8/6
f 767/8/6 754/8/6 768/8/6
f 765/8/6 766/8/6 769/8/6
f 766/8/6 767/8/6 769/8/6
f 764/8/6 765/8/6 769/8/6
f 769/8/6 767/8/6 770/8/6
f 771/8/6 772/8/6 774/8/6
f 774/8/6 772/8/6 775/8/6
f 775/8/6 772/8/6 776/8/6
f 776/8/6 772/8/6 777/8/6
f 773/8/6 774/8/6 779/8/6
f 775/7/6 776/7/6 780/7/6
f 780/7/6 776/7/6 781/7/6
f 777/8/6 778/8/6 782/8/6
f 779/7/6 780/7/6 783/7/6
f 773/8/6 779/8/6 784/8/6
f 779/7/6 783/7/6 784/7/6
f 784/7/6 783/7/6 785/7/6
f 781/7/6 782/7/6 787/7/6
f 782/8/6 778/8/6 788/8/6
f 787/7/6 782/7/6 788/7/6
f 773/8/6 784/8/6 789/8/6
f 789/8/6 784/8/6 790/8/6
f 785/7/6 786/7/6 791/7/6
f 786/7/6 787/7/6 791/7/6
f 791/7/6 787/7/6 792/7/6
f 788/8/6 778/8/6 793/8/6
f 793/8/6 778/8/6 794/8/6
f 791/8/6 792/8/6 795/8/6
f 792/8/6 793/8/6 795/8/6
f 790/8/6 791/8/6 795/8/6
f 795/8/6 793/8/6 796/8/6
f 797/8/6 798/8/6 800/8/6
f 800/8/6 798/8/6 801/8/6
f 799/8/6 800/8/6 803/8/6
f 803/8/6 800/8/6 804/8/6
f 801/8/6 802/8/6 805/8/6
f 805/8/6 802/8/6 806/8/6
f 804/8/6 805/8/6 807/8/6
f 807/8/6 805/8/6 808/8/6
f 809/7/6 810/7/6 811/7/6
f 811/7/6 810/7/6 812/7/6
f 809/7/6 811/7/6 813/7/6
f 812/7/6 810/7/6 814/7/6
f 809/7/6 813/7/6 815/7/6
f 813/7/6 814/7/6 815/7/6
f 814/7/6 810/7/6 816/7/6
f 815/7/6 814/7/6 816/7/6
f 817/7/6 818/7/6 819/7/6
f 819/7/6 818/7/6 820/7/6
