# MagicaVoxel @ Ephtracy

# group
g Super

# material
mtllib Super.mtl
usemtl palette

# normals
vn -1 0 0
vn 1 0 0
vn 0 0 1
vn 0 0 -1
vn 0 -1 0
vn 0 1 0

# texcoords
vt 0.970703 0.5
vt 0.982422 0.5
vt 0.986328 0.5
vt 0.990234 0.5

# verts
v -12 0 10
v -12 0 -7
v -12 6 14
v -12 6 10
v -12 7 14
v -12 7 10
v -12 28 11
v -12 28 10
v -12 30 8
v -12 30 -7
v -12 31 11
v -12 31 8
v -11 1 11
v -11 1 10
v -11 5 11
v -11 5 10
v -11 8 11
v -11 8 10
v -11 11 11
v -11 11 10
v -11 12 11
v -11 12 10
v -11 20 11
v -11 20 10
v -11 21 11
v -11 21 10
v -9 30 6
v -9 30 -2
v -9 31 6
v -9 31 -2
v -7 13 10
v -7 13 9
v -7 17 10
v -7 17 9
v -7 17 8
v -7 18 9
v -7 19 9
v -7 19 8
v -7 22 10
v -7 22 9
v -7 26 10
v -7 26 9
v -6 2 11
v -6 2 10
v -6 4 11
v -6 4 10
v -4 0 11
v -4 0 10
v -4 4 11
v -4 4 10
v -2 13 10
v -2 13 9
v -2 17 10
v -2 17 9
v -2 17 8
v -2 18 9
v -2 19 9
v -2 19 8
v -2 22 10
v -2 22 9
v -2 26 10
v -2 26 9
v 1 30 6
v 1 30 -2
v 1 31 6
v 1 31 -2
v 3 13 10
v 3 13 9
v 3 17 10
v 3 17 9
v 3 17 8
v 3 18 9
v 3 19 9
v 3 19 8
v 3 22 10
v 3 22 9
v 3 26 10
v 3 26 9
v 6 0 11
v 6 0 10
v 6 3 11
v 6 3 10
v 8 1 11
v 8 1 10
v 8 5 11
v 8 5 10
v 8 13 10
v 8 13 9
v 8 17 10
v 8 17 9
v 8 17 8
v 8 18 9
v 8 19 9
v 8 19 8
v 8 22 10
v 8 22 9
v 8 26 10
v 8 26 9
v 13 2 11
v 13 2 10
v 13 4 11
v 13 4 10
v 13 9 11
v 13 9 10
v 13 10 11
v 13 10 10
v 13 13 10
v 13 13 9
v 13 17 10
v 13 17 9
v 13 17 8
v 13 18 9
v 13 19 9
v 13 19 8
v 13 22 10
v 13 22 9
v 13 26 10
v 13 26 9
v -10 2 11
v -10 2 10
v -10 4 11
v -10 4 10
v -10 9 11
v -10 9 10
v -10 10 11
v -10 10 10
v -10 13 10
v -10 13 9
v -10 17 10
v -10 17 9
v -10 17 8
v -10 18 9
v -10 19 9
v -10 19 8
v -10 22 10
v -10 22 9
v -10 26 10
v -10 26 9
v -5 1 11
v -5 1 10
v -5 5 11
v -5 5 10
v -5 13 10
v -5 13 9
v -5 17 10
v -5 17 9
v -5 17 8
v -5 18 9
v -5 19 9
v -5 19 8
v -5 22 10
v -5 22 9
v -5 26 10
v -5 26 9
v -3 0 11
v -3 0 10
v -3 3 11
v -3 3 10
v -3 30 6
v -3 30 -2
v -3 31 6
v -3 31 -2
v 0 13 10
v 0 13 9
v 0 17 10
v 0 17 9
v 0 17 8
v 0 18 9
v 0 19 9
v 0 19 8
v 0 22 10
v 0 22 9
v 0 26 10
v 0 26 9
v 5 13 10
v 5 13 9
v 5 17 10
v 5 17 9
v 5 17 8
v 5 18 9
v 5 19 9
v 5 19 8
v 5 22 10
v 5 22 9
v 5 26 10
v 5 26 9
v 7 0 11
v 7 0 10
v 7 4 11
v 7 4 10
v 8 30 6
v 8 30 -2
v 8 31 6
v 8 31 -2
v 9 2 11
v 9 2 10
v 9 4 11
v 9 4 10
v 10 13 10
v 10 13 9
v 10 17 10
v 10 17 9
v 10 17 8
v 10 18 9
v 10 19 9
v 10 19 8
v 10 22 10
v 10 22 9
v 10 26 10
v 10 26 9
v 14 1 11
v 14 1 10
v 14 5 11
v 14 5 10
v 14 8 11
v 14 8 10
v 14 11 11
v 14 11 10
v 14 12 11
v 14 12 10
v 14 20 11
v 14 20 10
v 14 21 11
v 14 21 10
v 15 0 10
v 15 0 -7
v 15 6 14
v 15 6 10
v 15 7 14
v 15 7 10
v 15 28 11
v 15 28 10
v 15 30 8
v 15 30 -7
v 15 31 11
v 15 31 8
v -12 6 14
v -12 7 14
v 15 6 14
v 15 7 14
v -12 28 11
v -12 31 11
v -11 1 11
v -11 5 11
v -11 8 11
v -11 11 11
v -11 12 11
v -11 20 11
v -11 21 11
v -10 2 11
v -10 4 11
v -10 9 11
v -10 10 11
v -6 2 11
v -6 4 11
v -5 1 11
v -5 5 11
v -4 0 11
v -4 4 11
v -3 0 11
v -3 3 11
v 6 0 11
v 6 3 11
v 7 0 11
v 7 4 11
v 8 1 11
v 8 5 11
v 9 2 11
v 9 4 11
v 13 2 11
v 13 4 11
v 13 9 11
v 13 10 11
v 14 1 11
v 14 5 11
v 14 8 11
v 14 11 11
v 14 12 11
v 14 20 11
v 14 21 11
v 15 28 11
v 15 31 11
v -12 0 10
v -12 6 10
v -12 7 10
v -12 28 10
v -11 1 10
v -11 5 10
v -11 8 10
v -11 11 10
v -11 12 10
v -11 18 10
v -11 20 10
v -11 21 10
v -11 27 10
v -10 2 10
v -10 4 10
v -10 9 10
v -10 10 10
v -10 13 10
v -10 17 10
v -10 22 10
v -10 26 10
v -7 13 10
v -7 17 10
v -7 22 10
v -7 26 10
v -6 2 10
v -6 4 10
v -5 1 10
v -5 5 10
v -5 13 10
v -5 17 10
v -5 22 10
v -5 26 10
v -4 0 10
v -4 4 10
v -3 0 10
v -3 3 10
v -2 13 10
v -2 17 10
v -2 22 10
v -2 26 10
v 0 13 10
v 0 17 10
v 0 22 10
v 0 26 10
v 3 13 10
v 3 17 10
v 3 22 10
v 3 26 10
v 5 13 10
v 5 17 10
v 5 22 10
v 5 26 10
v 6 0 10
v 6 3 10
v 7 0 10
v 7 4 10
v 8 1 10
v 8 5 10
v 8 13 10
v 8 17 10
v 8 22 10
v 8 26 10
v 9 2 10
v 9 4 10
v 10 13 10
v 10 17 10
v 10 22 10
v 10 26 10
v 13 2 10
v 13 4 10
v 13 9 10
v 13 10 10
v 13 13 10
v 13 17 10
v 13 22 10
v 13 26 10
v 14 1 10
v 14 5 10
v 14 8 10
v 14 11 10
v 14 12 10
v 14 18 10
v 14 20 10
v 14 21 10
v 14 27 10
v 15 0 10
v 15 6 10
v 15 7 10
v 15 28 10
v -10 13 9
v -10 17 9
v -10 22 9
v -10 26 9
v -7 13 9
v -7 17 9
v -7 22 9
v -7 26 9
v -5 13 9
v -5 17 9
v -5 22 9
v -5 26 9
v -2 13 9
v -2 17 9
v -2 22 9
v -2 26 9
v 0 13 9
v 0 17 9
v 0 22 9
v 0 26 9
v 3 13 9
v 3 17 9
v 3 22 9
v 3 26 9
v 5 13 9
v 5 17 9
v 5 22 9
v 5 26 9
v 8 13 9
v 8 17 9
v 8 22 9
v 8 26 9
v 10 13 9
v 10 17 9
v 10 22 9
v 10 26 9
v 13 13 9
v 13 17 9
v 13 22 9
v 13 26 9
v -10 17 8
v -10 19 8
v -7 17 8
v -7 19 8
v -5 17 8
v -5 19 8
v -2 17 8
v -2 19 8
v 0 17 8
v 0 19 8
v 3 17 8
v 3 19 8
v 5 17 8
v 5 19 8
v 8 17 8
v 8 19 8
v 10 17 8
v 10 19 8
v 13 17 8
v 13 19 8
v -9 30 6
v -9 31 6
v -3 30 6
v -3 31 6
v 1 30 6
v 1 31 6
v 8 30 6
v 8 31 6
v -10 17 9
v -10 18 9
v -10 19 9
v -7 17 9
v -7 18 9
v -7 19 9
v -5 17 9
v -5 18 9
v -5 19 9
v -2 17 9
v -2 18 9
v -2 19 9
v 0 17 9
v 0 18 9
v 0 19 9
v 3 17 9
v 3 18 9
v 3 19 9
v 5 17 9
v 5 18 9
v 5 19 9
v 8 17 9
v 8 18 9
v 8 19 9
v 10 17 9
v 10 18 9
v 10 19 9
v 13 17 9
v 13 18 9
v 13 19 9
v -12 30 8
v -12 31 8
v 15 30 8
v 15 31 8
v -9 30 -2
v -9 31 -2
v -3 30 -2
v -3 31 -2
v 1 30 -2
v 1 31 -2
v 8 30 -2
v 8 31 -2
v -12 0 -7
v -12 30 -7
v 15 0 -7
v 15 30 -7
v -4 0 11
v -3 0 11
v 6 0 11
v 7 0 11
v -12 0 10
v -4 0 10
v -3 0 10
v 6 0 10
v 7 0 10
v 15 0 10
v -3 0 9
v 6 0 9
v -12 0 -7
v 15 0 -7
v -11 1 11
v -5 1 11
v 8 1 11
v 14 1 11
v -11 1 10
v -5 1 10
v 8 1 10
v 14 1 10
v -3 3 11
v 6 3 11
v -3 3 10
v 6 3 10
v -10 4 11
v -6 4 11
v 9 4 11
v 13 4 11
v -10 4 10
v -6 4 10
v 9 4 10
v 13 4 10
v -12 6 14
v 15 6 14
v -12 6 10
v 15 6 10
v -11 8 11
v 14 8 11
v -11 8 10
v 14 8 10
v -10 10 11
v 13 10 11
v -10 10 10
v 13 10 10
v -10 17 10
v -7 17 10
v -5 17 10
v -2 17 10
v 0 17 10
v 3 17 10
v 5 17 10
v 8 17 10
v 10 17 10
v 13 17 10
v -10 17 9
v -7 17 9
v -5 17 9
v -2 17 9
v 0 17 9
v 3 17 9
v 5 17 9
v 8 17 9
v 10 17 9
v 13 17 9
v -10 19 9
v -7 19 9
v -5 19 9
v -2 19 9
v 0 19 9
v 3 19 9
v 5 19 9
v 8 19 9
v 10 19 9
v 13 19 9
v -10 19 8
v -7 19 8
v -5 19 8
v -2 19 8
v 0 19 8
v 3 19 8
v 5 19 8
v 8 19 8
v 10 19 8
v 13 19 8
v -11 20 11
v 14 20 11
v -11 20 10
v 14 20 10
v -10 26 10
v -7 26 10
v -5 26 10
v -2 26 10
v 0 26 10
v 3 26 10
v 5 26 10
v 8 26 10
v 10 26 10
v 13 26 10
v -10 26 9
v -7 26 9
v -5 26 9
v -2 26 9
v 0 26 9
v 3 26 9
v 5 26 9
v 8 26 9
v 10 26 9
v 13 26 9
v -12 28 11
v 15 28 11
v -12 28 10
v 15 28 10
v -10 2 11
v -6 2 11
v 9 2 11
v 13 2 11
v -10 2 10
v -6 2 10
v 9 2 10
v 13 2 10
v -4 4 11
v 7 4 11
v -4 4 10
v 7 4 10
v -11 5 11
v -5 5 11
v 8 5 11
v 14 5 11
v -11 5 10
v -5 5 10
v 8 5 10
v 14 5 10
v -12 7 14
v 15 7 14
v -12 7 10
v 15 7 10
v -10 9 11
v 13 9 11
v -10 9 10
v 13 9 10
v -11 12 11
v 14 12 11
v -11 12 10
v 14 12 10
v -10 13 10
v -7 13 10
v -5 13 10
v -2 13 10
v 0 13 10
v 3 13 10
v 5 13 10
v 8 13 10
v 10 13 10
v 13 13 10
v -10 13 9
v -7 13 9
v -5 13 9
v -2 13 9
v 0 13 9
v 3 13 9
v 5 13 9
v 8 13 9
v 10 13 9
v 13 13 9
v -10 17 9
v -7 17 9
v -5 17 9
v -2 17 9
v 0 17 9
v 3 17 9
v 5 17 9
v 8 17 9
v 10 17 9
v 13 17 9
v -10 17 8
v -7 17 8
v -5 17 8
v -2 17 8
v 0 17 8
v 3 17 8
v 5 17 8
v 8 17 8
v 10 17 8
v 13 17 8
v -11 21 11
v 14 21 11
v -11 21 10
v 14 21 10
v -10 22 10
v -7 22 10
v -5 22 10
v -2 22 10
v 0 22 10
v 3 22 10
v 5 22 10
v 8 22 10
v 10 22 10
v 13 22 10
v -10 22 9
v -7 22 9
v -5 22 9
v -2 22 9
v 0 22 9
v 3 22 9
v 5 22 9
v 8 22 9
v 10 22 9
v 13 22 9
v -12 30 8
v 15 30 8
v -9 30 6
v -3 30 6
v 1 30 6
v 8 30 6
v -9 30 -2
v -3 30 -2
v 1 30 -2
v 8 30 -2
v -12 30 -7
v 15 30 -7
v -12 31 11
v 15 31 11
v -12 31 8
v 15 31 8
v -9 31 6
v -3 31 6
v 1 31 6
v 8 31 6
v -9 31 -2
v -3 31 -2
v 1 31 -2
v 8 31 -2

# faces
f 4/1/1 2/1/1 1/1/1
f 5/4/1 4/4/1 3/4/1
f 6/1/1 2/1/1 4/1/1
f 6/4/1 4/4/1 5/4/1
f 8/1/1 2/1/1 6/1/1
f 9/1/1 2/1/1 8/1/1
f 9/1/1 8/1/1 7/1/1
f 10/1/1 2/1/1 9/1/1
f 11/1/1 9/1/1 7/1/1
f 12/1/1 9/1/1 11/1/1
f 15/1/1 14/1/1 13/1/1
f 16/1/1 14/1/1 15/1/1
f 19/4/1 18/4/1 17/4/1
f 20/4/1 18/4/1 19/4/1
f 21/1/1 20/1/1 19/1/1
f 22/1/1 20/1/1 21/1/1
f 25/1/1 24/1/1 23/1/1
f 26/1/1 24/1/1 25/1/1
f 29/1/1 28/1/1 27/1/1
f 30/1/1 28/1/1 29/1/1
f 33/2/1 32/2/1 31/2/1
f 34/2/1 32/2/1 33/2/1
f 36/1/1 35/1/1 34/1/1
f 37/1/1 35/1/1 36/1/1
f 38/1/1 35/1/1 37/1/1
f 41/2/1 40/2/1 39/2/1
f 42/2/1 40/2/1 41/2/1
f 45/1/1 44/1/1 43/1/1
f 46/1/1 44/1/1 45/1/1
f 49/1/1 48/1/1 47/1/1
f 50/1/1 48/1/1 49/1/1
f 53/2/1 52/2/1 51/2/1
f 54/2/1 52/2/1 53/2/1
f 56/1/1 55/1/1 54/1/1
f 57/1/1 55/1/1 56/1/1
f 58/1/1 55/1/1 57/1/1
f 61/2/1 60/2/1 59/2/1
f 62/2/1 60/2/1 61/2/1
f 65/1/1 64/1/1 63/1/1
f 66/1/1 64/1/1 65/1/1
f 69/2/1 68/2/1 67/2/1
f 70/2/1 68/2/1 69/2/1
f 72/1/1 71/1/1 70/1/1
f 73/1/1 71/1/1 72/1/1
f 74/1/1 71/1/1 73/1/1
f 77/2/1 76/2/1 75/2/1
f 78/2/1 76/2/1 77/2/1
f 81/1/1 80/1/1 79/1/1
f 82/1/1 80/1/1 81/1/1
f 85/1/1 84/1/1 83/1/1
f 86/1/1 84/1/1 85/1/1
f 89/2/1 88/2/1 87/2/1
f 90/2/1 88/2/1 89/2/1
f 92/1/1 91/1/1 90/1/1
f 93/1/1 91/1/1 92/1/1
f 94/1/1 91/1/1 93/1/1
f 97/2/1 96/2/1 95/2/1
f 98/2/1 96/2/1 97/2/1
f 101/1/1 100/1/1 99/1/1
f 102/1/1 100/1/1 101/1/1
f 105/4/1 104/4/1 103/4/1
f 106/4/1 104/4/1 105/4/1
f 109/2/1 108/2/1 107/2/1
f 110/2/1 108/2/1 109/2/1
f 112/1/1 111/1/1 110/1/1
f 113/1/1 111/1/1 112/1/1
f 114/1/1 111/1/1 113/1/1
f 117/2/1 116/2/1 115/2/1
f 118/2/1 116/2/1 117/2/1
f 119/1/2 120/1/2 121/1/2
f 121/1/2 120/1/2 122/1/2
f 123/4/2 124/4/2 125/4/2
f 125/4/2 124/4/2 126/4/2
f 127/2/2 128/2/2 129/2/2
f 129/2/2 128/2/2 130/2/2
f 130/1/2 131/1/2 132/1/2
f 132/1/2 131/1/2 133/1/2
f 133/1/2 131/1/2 134/1/2
f 135/2/2 136/2/2 137/2/2
f 137/2/2 136/2/2 138/2/2
f 139/1/2 140/1/2 141/1/2
f 141/1/2 140/1/2 142/1/2
f 143/2/2 144/2/2 145/2/2
f 145/2/2 144/2/2 146/2/2
f 146/1/2 147/1/2 148/1/2
f 148/1/2 147/1/2 149/1/2
f 149/1/2 147/1/2 150/1/2
f 151/2/2 152/2/2 153/2/2
f 153/2/2 152/2/2 154/2/2
f 155/1/2 156/1/2 157/1/2
f 157/1/2 156/1/2 158/1/2
f 159/1/2 160/1/2 161/1/2
f 161/1/2 160/1/2 162/1/2
f 163/2/2 164/2/2 165/2/2
f 165/2/2 164/2/2 166/2/2
f 166/1/2 167/1/2 168/1/2
f 168/1/2 167/1/2 169/1/2
f 169/1/2 167/1/2 170/1/2
f 171/2/2 172/2/2 173/2/2
f 173/2/2 172/2/2 174/2/2
f 175/2/2 176/2/2 177/2/2
f 177/2/2 176/2/2 178/2/2
f 178/1/2 179/1/2 180/1/2
f 180/1/2 179/1/2 181/1/2
f 181/1/2 179/1/2 182/1/2
f 183/2/2 184/2/2 185/2/2
f 185/2/2 184/2/2 186/2/2
f 187/1/2 188/1/2 189/1/2
f 189/1/2 188/1/2 190/1/2
f 191/1/2 192/1/2 193/1/2
f 193/1/2 192/1/2 194/1/2
f 195/1/2 196/1/2 197/1/2
f 197/1/2 196/1/2 198/1/2
f 199/2/2 200/2/2 201/2/2
f 201/2/2 200/2/2 202/2/2
f 202/1/2 203/1/2 204/1/2
f 204/1/2 203/1/2 205/1/2
f 205/1/2 203/1/2 206/1/2
f 207/2/2 208/2/2 209/2/2
f 209/2/2 208/2/2 210/2/2
f 211/1/2 212/1/2 213/1/2
f 213/1/2 212/1/2 214/1/2
f 215/4/2 216/4/2 217/4/2
f 217/4/2 216/4/2 218/4/2
f 217/1/2 218/1/2 219/1/2
f 219/1/2 218/1/2 220/1/2
f 221/1/2 222/1/2 223/1/2
f 223/1/2 222/1/2 224/1/2
f 225/1/2 226/1/2 228/1/2
f 227/4/2 228/4/2 229/4/2
f 228/1/2 226/1/2 230/1/2
f 229/4/2 228/4/2 230/4/2
f 230/1/2 226/1/2 232/1/2
f 232/1/2 226/1/2 233/1/2
f 231/1/2 232/1/2 233/1/2
f 233/1/2 226/1/2 234/1/2
f 231/1/2 233/1/2 235/1/2
f 235/1/2 233/1/2 236/1/2
f 239/4/3 238/4/3 237/4/3
f 240/4/3 238/4/3 239/4/3
f 250/1/3 244/1/3 243/1/3
f 251/1/3 244/1/3 250/1/3
f 252/4/3 246/4/3 245/4/3
f 253/4/3 246/4/3 252/4/3
f 254/1/3 250/1/3 243/1/3
f 255/1/3 244/1/3 251/1/3
f 256/1/3 254/1/3 243/1/3
f 256/1/3 255/1/3 254/1/3
f 257/1/3 244/1/3 255/1/3
f 257/1/3 255/1/3 256/1/3
f 260/1/3 259/1/3 258/1/3
f 261/1/3 259/1/3 260/1/3
f 263/1/3 259/1/3 261/1/3
f 264/1/3 263/1/3 262/1/3
f 265/1/3 259/1/3 263/1/3
f 265/1/3 263/1/3 264/1/3
f 268/1/3 267/1/3 266/1/3
f 269/1/3 267/1/3 268/1/3
f 270/1/3 268/1/3 266/1/3
f 271/1/3 267/1/3 269/1/3
f 272/4/3 252/4/3 245/4/3
f 273/4/3 246/4/3 253/4/3
f 274/1/3 271/1/3 270/1/3
f 274/1/3 270/1/3 266/1/3
f 275/1/3 267/1/3 271/1/3
f 275/1/3 271/1/3 274/1/3
f 276/4/3 272/4/3 245/4/3
f 276/4/3 273/4/3 272/4/3
f 277/1/3 247/1/3 246/1/3
f 277/4/3 273/4/3 276/4/3
f 277/4/3 246/4/3 273/4/3
f 278/1/3 247/1/3 277/1/3
f 279/1/3 249/1/3 248/1/3
f 280/1/3 249/1/3 279/1/3
f 281/1/3 242/1/3 241/1/3
f 282/1/3 242/1/3 281/1/3
f 287/1/3 284/1/3 283/1/3
f 288/1/3 284/1/3 287/1/3
f 289/1/3 286/1/3 285/1/3
f 290/1/3 286/1/3 289/1/3
f 291/1/3 286/1/3 290/1/3
f 292/1/3 286/1/3 291/1/3
f 293/1/3 286/1/3 292/1/3
f 294/1/3 286/1/3 293/1/3
f 295/1/3 286/1/3 294/1/3
f 300/2/3 292/2/3 291/2/3
f 301/2/3 292/2/3 300/2/3
f 302/2/3 295/2/3 294/2/3
f 303/2/3 295/2/3 302/2/3
f 304/2/3 300/2/3 291/2/3
f 305/2/3 292/2/3 301/2/3
f 306/2/3 302/2/3 294/2/3
f 307/2/3 295/2/3 303/2/3
f 308/3/3 297/3/3 296/3/3
f 309/3/3 297/3/3 308/3/3
f 310/1/3 287/1/3 283/1/3
f 311/1/3 284/1/3 288/1/3
f 312/2/3 304/2/3 291/2/3
f 312/2/3 305/2/3 304/2/3
f 313/2/3 292/2/3 305/2/3
f 313/2/3 305/2/3 312/2/3
f 314/2/3 307/2/3 306/2/3
f 314/2/3 306/2/3 294/2/3
f 315/2/3 295/2/3 307/2/3
f 315/2/3 307/2/3 314/2/3
f 316/1/3 310/1/3 283/1/3
f 316/1/3 311/1/3 310/1/3
f 317/1/3 311/1/3 316/1/3
f 320/2/3 312/2/3 291/2/3
f 321/2/3 292/2/3 313/2/3
f 322/2/3 314/2/3 294/2/3
f 323/2/3 295/2/3 315/2/3
f 324/2/3 320/2/3 291/2/3
f 324/2/3 321/2/3 320/2/3
f 325/2/3 292/2/3 321/2/3
f 325/2/3 321/2/3 324/2/3
f 326/2/3 322/2/3 294/2/3
f 326/2/3 323/2/3 322/2/3
f 327/2/3 295/2/3 323/2/3
f 327/2/3 323/2/3 326/2/3
f 328/2/3 324/2/3 291/2/3
f 329/2/3 292/2/3 325/2/3
f 330/2/3 326/2/3 294/2/3
f 331/2/3 295/2/3 327/2/3
f 332/2/3 328/2/3 291/2/3
f 332/2/3 329/2/3 328/2/3
f 333/2/3 292/2/3 329/2/3
f 333/2/3 329/2/3 332/2/3
f 334/2/3 331/2/3 330/2/3
f 334/2/3 330/2/3 294/2/3
f 335/2/3 295/2/3 331/2/3
f 335/2/3 331/2/3 334/2/3
f 336/3/3 319/3/3 318/3/3
f 337/3/3 319/3/3 336/3/3
f 339/1/3 311/1/3 317/1/3
f 340/1/3 339/1/3 338/1/3
f 341/1/3 284/1/3 311/1/3
f 341/1/3 339/1/3 340/1/3
f 341/1/3 311/1/3 339/1/3
f 342/2/3 332/2/3 291/2/3
f 343/2/3 292/2/3 333/2/3
f 344/2/3 334/2/3 294/2/3
f 345/2/3 295/2/3 335/2/3
f 348/2/3 342/2/3 291/2/3
f 348/2/3 343/2/3 342/2/3
f 349/2/3 292/2/3 343/2/3
f 349/2/3 343/2/3 348/2/3
f 350/2/3 344/2/3 294/2/3
f 350/2/3 345/2/3 344/2/3
f 351/2/3 295/2/3 345/2/3
f 351/2/3 345/2/3 350/2/3
f 352/3/3 347/3/3 346/3/3
f 353/3/3 347/3/3 352/3/3
f 354/1/3 299/1/3 298/1/3
f 355/1/3 299/1/3 354/1/3
f 356/2/3 348/2/3 291/2/3
f 357/2/3 292/2/3 349/2/3
f 358/2/3 350/2/3 294/2/3
f 359/2/3 295/2/3 351/2/3
f 360/1/3 340/1/3 338/1/3
f 361/1/3 284/1/3 341/1/3
f 362/1/3 289/1/3 285/1/3
f 364/2/3 356/2/3 291/2/3
f 364/2/3 357/2/3 356/2/3
f 365/1/3 293/1/3 292/1/3
f 365/2/3 292/2/3 357/2/3
f 365/2/3 357/2/3 364/2/3
f 366/1/3 293/1/3 365/1/3
f 367/2/3 358/2/3 294/2/3
f 367/2/3 359/2/3 358/2/3
f 368/1/3 286/1/3 295/1/3
f 368/2/3 295/2/3 359/2/3
f 368/2/3 359/2/3 367/2/3
f 369/1/3 361/1/3 360/1/3
f 369/1/3 360/1/3 338/1/3
f 370/1/3 284/1/3 361/1/3
f 370/1/3 361/1/3 369/1/3
f 371/1/3 366/1/3 365/1/3
f 371/1/3 367/1/3 366/1/3
f 371/1/3 364/1/3 363/1/3
f 371/1/3 365/1/3 364/1/3
f 371/1/3 363/1/3 362/1/3
f 371/1/3 362/1/3 285/1/3
f 371/1/3 368/1/3 367/1/3
f 372/1/3 286/1/3 368/1/3
f 372/1/3 368/1/3 371/1/3
f 377/3/3 374/3/3 373/3/3
f 378/3/3 374/3/3 377/3/3
f 379/3/3 376/3/3 375/3/3
f 380/3/3 376/3/3 379/3/3
f 385/3/3 382/3/3 381/3/3
f 386/3/3 382/3/3 385/3/3
f 387/3/3 384/3/3 383/3/3
f 388/3/3 384/3/3 387/3/3
f 393/3/3 390/3/3 389/3/3
f 394/3/3 390/3/3 393/3/3
f 395/3/3 392/3/3 391/3/3
f 396/3/3 392/3/3 395/3/3
f 401/3/3 398/3/3 397/3/3
f 402/3/3 398/3/3 401/3/3
f 403/3/3 400/3/3 399/3/3
f 404/3/3 400/3/3 403/3/3
f 409/3/3 406/3/3 405/3/3
f 410/3/3 406/3/3 409/3/3
f 411/3/3 408/3/3 407/3/3
f 412/3/3 408/3/3 411/3/3
f 415/1/3 414/1/3 413/1/3
f 416/1/3 414/1/3 415/1/3
f 419/1/3 418/1/3 417/1/3
f 420/1/3 418/1/3 419/1/3
f 423/1/3 422/1/3 421/1/3
f 424/1/3 422/1/3 423/1/3
f 427/1/3 426/1/3 425/1/3
f 428/1/3 426/1/3 427/1/3
f 431/1/3 430/1/3 429/1/3
f 432/1/3 430/1/3 431/1/3
f 435/1/3 434/1/3 433/1/3
f 436/1/3 434/1/3 435/1/3
f 439/1/3 438/1/3 437/1/3
f 440/1/3 438/1/3 439/1/3
f 441/2/4 442/2/4 444/2/4
f 442/1/4 443/1/4 445/1/4
f 444/2/4 442/2/4 445/2/4
f 445/1/4 443/1/4 446/1/4
f 447/2/4 448/2/4 450/2/4
f 448/1/4 449/1/4 451/1/4
f 450/2/4 448/2/4 451/2/4
f 451/1/4 449/1/4 452/1/4
f 453/2/4 454/2/4 456/2/4
f 454/1/4 455/1/4 457/1/4
f 456/2/4 454/2/4 457/2/4
f 457/1/4 455/1/4 458/1/4
f 459/2/4 460/2/4 462/2/4
f 460/1/4 461/1/4 463/1/4
f 462/2/4 460/2/4 463/2/4
f 463/1/4 461/1/4 464/1/4
f 465/2/4 466/2/4 468/2/4
f 466/1/4 467/1/4 469/1/4
f 468/2/4 466/2/4 469/2/4
f 469/1/4 467/1/4 470/1/4
f 471/1/4 472/1/4 473/1/4
f 473/1/4 472/1/4 474/1/4
f 475/1/4 476/1/4 477/1/4
f 477/1/4 476/1/4 478/1/4
f 479/1/4 480/1/4 481/1/4
f 481/1/4 480/1/4 482/1/4
f 483/1/4 484/1/4 485/1/4
f 485/1/4 484/1/4 486/1/4
f 492/1/5 488/1/5 487/1/5
f 493/1/5 488/1/5 492/1/5
f 494/1/5 490/1/5 489/1/5
f 495/1/5 490/1/5 494/1/5
f 497/1/5 493/1/5 492/1/5
f 497/1/5 492/1/5 491/1/5
f 497/3/5 494/3/5 493/3/5
f 498/1/5 496/1/5 495/1/5
f 498/3/5 494/3/5 497/3/5
f 498/1/5 495/1/5 494/1/5
f 499/1/5 497/1/5 491/1/5
f 499/1/5 498/1/5 497/1/5
f 500/1/5 496/1/5 498/1/5
f 500/1/5 498/1/5 499/1/5
f 505/1/5 502/1/5 501/1/5
f 506/1/5 502/1/5 505/1/5
f 507/1/5 504/1/5 503/1/5
f 508/1/5 504/1/5 507/1/5
f 511/1/5 510/1/5 509/1/5
f 512/1/5 510/1/5 511/1/5
f 517/1/5 514/1/5 513/1/5
f 518/1/5 514/1/5 517/1/5
f 519/1/5 516/1/5 515/1/5
f 520/1/5 516/1/5 519/1/5
f 523/4/5 522/4/5 521/4/5
f 524/4/5 522/4/5 523/4/5
f 527/4/5 526/4/5 525/4/5
f 528/4/5 526/4/5 527/4/5
f 531/4/5 530/4/5 529/4/5
f 532/4/5 530/4/5 531/4/5
f 543/2/5 534/2/5 533/2/5
f 544/2/5 534/2/5 543/2/5
f 545/2/5 536/2/5 535/2/5
f 546/2/5 536/2/5 545/2/5
f 547/2/5 538/2/5 537/2/5
f 548/2/5 538/2/5 547/2/5
f 549/2/5 540/2/5 539/2/5
f 550/2/5 540/2/5 549/2/5
f 551/2/5 542/2/5 541/2/5
f 552/2/5 542/2/5 551/2/5
f 563/1/5 554/1/5 553/1/5
f 564/1/5 554/1/5 563/1/5
f 565/1/5 556/1/5 555/1/5
f 566/1/5 556/1/5 565/1/5
f 567/1/5 558/1/5 557/1/5
f 568/1/5 558/1/5 567/1/5
f 569/1/5 560/1/5 559/1/5
f 570/1/5 560/1/5 569/1/5
f 571/1/5 562/1/5 561/1/5
f 572/1/5 562/1/5 571/1/5
f 575/1/5 574/1/5 573/1/5
f 576/1/5 574/1/5 575/1/5
f 587/2/5 578/2/5 577/2/5
f 588/2/5 578/2/5 587/2/5
f 589/2/5 580/2/5 579/2/5
f 590/2/5 580/2/5 589/2/5
f 591/2/5 582/2/5 581/2/5
f 592/2/5 582/2/5 591/2/5
f 593/2/5 584/2/5 583/2/5
f 594/2/5 584/2/5 593/2/5
f 595/2/5 586/2/5 585/2/5
f 596/2/5 586/2/5 595/2/5
f 599/1/5 598/1/5 597/1/5
f 600/1/5 598/1/5 599/1/5
f 601/1/6 602/1/6 605/1/6
f 605/1/6 602/1/6 606/1/6
f 603/1/6 604/1/6 607/1/6
f 607/1/6 604/1/6 608/1/6
f 609/1/6 610/1/6 611/1/6
f 611/1/6 610/1/6 612/1/6
f 613/1/6 614/1/6 617/1/6
f 617/1/6 614/1/6 618/1/6
f 615/1/6 616/1/6 619/1/6
f 619/1/6 616/1/6 620/1/6
f 621/4/6 622/4/6 623/4/6
f 623/4/6 622/4/6 624/4/6
f 625/4/6 626/4/6 627/4/6
f 627/4/6 626/4/6 628/4/6
f 629/1/6 630/1/6 631/1/6
f 631/1/6 630/1/6 632/1/6
f 633/2/6 634/2/6 643/2/6
f 643/2/6 634/2/6 644/2/6
f 635/2/6 636/2/6 645/2/6
f 645/2/6 636/2/6 646/2/6
f 637/2/6 638/2/6 647/2/6
f 647/2/6 638/2/6 648/2/6
f 639/2/6 640/2/6 649/2/6
f 649/2/6 640/2/6 650/2/6
f 641/2/6 642/2/6 651/2/6
f 651/2/6 642/2/6 652/2/6
f 653/3/6 654/3/6 663/3/6
f 663/3/6 654/3/6 664/3/6
f 655/3/6 656/3/6 665/3/6
f 665/3/6 656/3/6 666/3/6
f 657/3/6 658/3/6 667/3/6
f 667/3/6 658/3/6 668/3/6
f 659/3/6 660/3/6 669/3/6
f 669/3/6 660/3/6 670/3/6
f 661/3/6 662/3/6 671/3/6
f 671/3/6 662/3/6 672/3/6
f 673/1/6 674/1/6 675/1/6
f 675/1/6 674/1/6 676/1/6
f 677/2/6 678/2/6 687/2/6
f 687/2/6 678/2/6 688/2/6
f 679/2/6 680/2/6 689/2/6
f 689/2/6 680/2/6 690/2/6
f 681/2/6 682/2/6 691/2/6
f 691/2/6 682/2/6 692/2/6
f 683/2/6 684/2/6 693/2/6
f 693/2/6 684/2/6 694/2/6
f 685/2/6 686/2/6 695/2/6
f 695/2/6 686/2/6 696/2/6
f 697/1/6 698/1/6 699/1/6
f 699/1/6 698/1/6 700/1/6
f 700/1/6 698/1/6 701/1/6
f 701/1/6 698/1/6 702/1/6
f 697/1/6 699/1/6 703/1/6
f 700/1/6 701/1/6 704/1/6
f 704/1/6 701/1/6 705/1/6
f 702/1/6 698/1/6 706/1/6
f 704/1/6 705/1/6 707/1/6
f 705/1/6 706/1/6 707/1/6
f 697/1/6 703/1/6 707/1/6
f 703/1/6 704/1/6 707/1/6
f 706/1/6 698/1/6 708/1/6
f 707/1/6 706/1/6 708/1/6
f 709/1/6 710/1/6 711/1/6
f 711/1/6 710/1/6 712/1/6
f 713/1/6 714/1/6 717/1/6
f 717/1/6 714/1/6 718/1/6
f 715/1/6 716/1/6 719/1/6
f 719/1/6 716/1/6 720/1/6
