# MagicaVoxel @ Ephtracy

# group
g City Biulding 1

# material
mtllib City Biulding 1.mtl
usemtl palette

# normals
vn -1 0 0
vn 1 0 0
vn 0 0 1
vn 0 0 -1
vn 0 -1 0
vn 0 1 0

# texcoords
vt 0.943359 0.5
vt 0.970703 0.5
vt 0.974609 0.5
vt 0.978516 0.5
vt 0.982422 0.5

# verts
v -15 8 12
v -15 8 -10
v -15 9 12
v -15 9 -10
v -15 25 12
v -15 25 -10
v -15 27 12
v -15 27 -10
v -14 0 11
v -14 0 -9
v -14 8 11
v -14 8 -9
v -14 9 11
v -14 9 -9
v -14 25 11
v -14 25 -9
v -12 0 -9
v -12 0 -10
v -12 5 -9
v -12 5 -10
v -11 5 -9
v -11 5 -10
v -11 6 -9
v -11 6 -10
v -10 6 -9
v -10 6 -10
v -10 7 -9
v -10 7 -10
v -10 10 -9
v -10 10 -10
v -10 11 -9
v -10 11 -10
v -10 17 -9
v -10 17 -10
v -10 18 -9
v -10 18 -10
v -9 5 -9
v -9 5 -10
v -9 6 -9
v -9 6 -10
v -8 0 -9
v -8 0 -10
v -8 5 -9
v -8 5 -10
v -6 11 -8
v -6 11 -9
v -6 16 -8
v -6 16 -9
v -6 18 -8
v -6 18 -9
v -6 23 -8
v -6 23 -9
v -4 0 -9
v -4 0 -10
v -4 5 -9
v -4 5 -10
v -3 5 -9
v -3 5 -10
v -3 6 -9
v -3 6 -10
v -3 10 -9
v -3 10 -10
v -3 11 -9
v -3 11 -10
v -3 17 -9
v -3 17 -10
v -3 18 -9
v -3 18 -10
v -2 6 -9
v -2 6 -10
v -2 7 -9
v -2 7 -10
v -1 5 -9
v -1 5 -10
v -1 6 -9
v -1 6 -10
v 0 0 -9
v 0 0 -10
v 0 5 -9
v 0 5 -10
v 1 11 -8
v 1 11 -9
v 1 16 -8
v 1 16 -9
v 1 18 -8
v 1 18 -9
v 1 23 -8
v 1 23 -9
v 4 0 -9
v 4 0 -10
v 4 5 -9
v 4 5 -10
v 4 10 -9
v 4 10 -10
v 4 11 -9
v 4 11 -10
v 4 17 -9
v 4 17 -10
v 4 18 -9
v 4 18 -10
v 5 5 -9
v 5 5 -10
v 5 6 -9
v 5 6 -10
v 6 6 -9
v 6 6 -10
v 6 7 -9
v 6 7 -10
v 7 5 -9
v 7 5 -10
v 7 6 -9
v 7 6 -10
v 8 0 -9
v 8 0 -10
v 8 5 -9
v 8 5 -10
v 8 11 -8
v 8 11 -9
v 8 16 -8
v 8 16 -9
v 8 18 -8
v 8 18 -9
v 8 23 -8
v 8 23 -9
v 11 26 11
v 11 26 -9
v 11 27 11
v 11 27 -9
v -14 26 11
v -14 26 -9
v -14 27 11
v -14 27 -9
v -11 0 -9
v -11 0 -10
v -11 5 -9
v -11 5 -10
v -10 5 -9
v -10 5 -10
v -10 6 -9
v -10 6 -10
v -10 11 -8
v -10 11 -9
v -10 16 -8
v -10 16 -9
v -10 18 -8
v -10 18 -9
v -10 23 -8
v -10 23 -9
v -9 6 -9
v -9 6 -10
v -9 7 -9
v -9 7 -10
v -8 5 -9
v -8 5 -10
v -8 6 -9
v -8 6 -10
v -7 0 -9
v -7 0 -10
v -7 5 -9
v -7 5 -10
v -6 10 -9
v -6 10 -10
v -6 11 -9
v -6 11 -10
v -6 17 -9
v -6 17 -10
v -6 18 -9
v -6 18 -10
v -3 0 -9
v -3 0 -10
v -3 5 -9
v -3 5 -10
v -3 11 -8
v -3 11 -9
v -3 16 -8
v -3 16 -9
v -3 18 -8
v -3 18 -9
v -3 23 -8
v -3 23 -9
v -2 5 -9
v -2 5 -10
v -2 6 -9
v -2 6 -10
v -1 6 -9
v -1 6 -10
v -1 7 -9
v -1 7 -10
v 0 5 -9
v 0 5 -10
v 0 6 -9
v 0 6 -10
v 1 0 -9
v 1 0 -10
v 1 5 -9
v 1 5 -10
v 1 10 -9
v 1 10 -10
v 1 11 -9
v 1 11 -10
v 1 17 -9
v 1 17 -10
v 1 18 -9
v 1 18 -10
v 4 11 -8
v 4 11 -9
v 4 16 -8
v 4 16 -9
v 4 18 -8
v 4 18 -9
v 4 23 -8
v 4 23 -9
v 5 0 -9
v 5 0 -10
v 5 5 -9
v 5 5 -10
v 6 5 -9
v 6 5 -10
v 6 6 -9
v 6 6 -10
v 7 6 -9
v 7 6 -10
v 7 7 -9
v 7 7 -10
v 8 5 -9
v 8 5 -10
v 8 6 -9
v 8 6 -10
v 8 10 -9
v 8 10 -10
v 8 11 -9
v 8 11 -10
v 8 17 -9
v 8 17 -10
v 8 18 -9
v 8 18 -10
v 9 0 -9
v 9 0 -10
v 9 5 -9
v 9 5 -10
v 11 0 11
v 11 0 -9
v 11 8 11
v 11 8 -9
v 11 9 11
v 11 9 -9
v 11 25 11
v 11 25 -9
v 12 8 12
v 12 8 -10
v 12 9 12
v 12 9 -10
v 12 25 12
v 12 25 -10
v 12 27 12
v 12 27 -10
v -15 8 12
v -15 9 12
v -15 25 12
v -15 27 12
v 12 8 12
v 12 9 12
v 12 25 12
v 12 27 12
v -14 0 11
v -14 8 11
v -14 9 11
v -14 25 11
v 11 0 11
v 11 8 11
v 11 9 11
v 11 25 11
v -14 26 -9
v -14 27 -9
v 11 26 -9
v 11 27 -9
v -14 26 11
v -14 27 11
v 11 26 11
v 11 27 11
v -10 11 -8
v -10 16 -8
v -10 18 -8
v -10 23 -8
v -6 11 -8
v -6 16 -8
v -6 18 -8
v -6 23 -8
v -3 11 -8
v -3 16 -8
v -3 18 -8
v -3 23 -8
v 1 11 -8
v 1 16 -8
v 1 18 -8
v 1 23 -8
v 4 11 -8
v 4 16 -8
v 4 18 -8
v 4 23 -8
v 8 11 -8
v 8 16 -8
v 8 18 -8
v 8 23 -8
v -14 0 -9
v -14 8 -9
v -14 9 -9
v -14 25 -9
v -12 0 -9
v -12 5 -9
v -11 0 -9
v -11 5 -9
v -11 6 -9
v -10 5 -9
v -10 6 -9
v -10 7 -9
v -10 10 -9
v -10 11 -9
v -10 16 -9
v -10 17 -9
v -10 18 -9
v -10 23 -9
v -9 5 -9
v -9 6 -9
v -9 7 -9
v -8 0 -9
v -8 5 -9
v -8 6 -9
v -7 0 -9
v -7 5 -9
v -6 10 -9
v -6 11 -9
v -6 16 -9
v -6 17 -9
v -6 18 -9
v -6 23 -9
v -4 0 -9
v -4 5 -9
v -3 0 -9
v -3 5 -9
v -3 6 -9
v -3 10 -9
v -3 11 -9
v -3 16 -9
v -3 17 -9
v -3 18 -9
v -3 23 -9
v -2 5 -9
v -2 6 -9
v -2 7 -9
v -1 5 -9
v -1 6 -9
v -1 7 -9
v 0 0 -9
v 0 5 -9
v 0 6 -9
v 1 0 -9
v 1 5 -9
v 1 10 -9
v 1 11 -9
v 1 16 -9
v 1 17 -9
v 1 18 -9
v 1 23 -9
v 4 0 -9
v 4 5 -9
v 4 10 -9
v 4 11 -9
v 4 16 -9
v 4 17 -9
v 4 18 -9
v 4 23 -9
v 5 0 -9
v 5 5 -9
v 5 6 -9
v 6 5 -9
v 6 6 -9
v 6 7 -9
v 7 5 -9
v 7 6 -9
v 7 7 -9
v 8 0 -9
v 8 5 -9
v 8 6 -9
v 8 10 -9
v 8 11 -9
v 8 16 -9
v 8 17 -9
v 8 18 -9
v 8 23 -9
v 9 0 -9
v 9 5 -9
v 11 0 -9
v 11 8 -9
v 11 9 -9
v 11 25 -9
v -15 8 -10
v -15 9 -10
v -15 25 -10
v -15 27 -10
v -12 0 -10
v -12 5 -10
v -11 0 -10
v -11 5 -10
v -11 6 -10
v -10 5 -10
v -10 6 -10
v -10 7 -10
v -10 10 -10
v -10 11 -10
v -10 17 -10
v -10 18 -10
v -9 5 -10
v -9 6 -10
v -9 7 -10
v -8 0 -10
v -8 5 -10
v -8 6 -10
v -7 0 -10
v -7 5 -10
v -6 10 -10
v -6 11 -10
v -6 17 -10
v -6 18 -10
v -4 0 -10
v -4 5 -10
v -3 0 -10
v -3 5 -10
v -3 6 -10
v -3 10 -10
v -3 11 -10
v -3 17 -10
v -3 18 -10
v -2 5 -10
v -2 6 -10
v -2 7 -10
v -1 5 -10
v -1 6 -10
v -1 7 -10
v 0 0 -10
v 0 5 -10
v 0 6 -10
v 1 0 -10
v 1 5 -10
v 1 10 -10
v 1 11 -10
v 1 17 -10
v 1 18 -10
v 4 0 -10
v 4 5 -10
v 4 10 -10
v 4 11 -10
v 4 17 -10
v 4 18 -10
v 5 0 -10
v 5 5 -10
v 5 6 -10
v 6 5 -10
v 6 6 -10
v 6 7 -10
v 7 5 -10
v 7 6 -10
v 7 7 -10
v 8 0 -10
v 8 5 -10
v 8 6 -10
v 8 10 -10
v 8 11 -10
v 8 17 -10
v 8 18 -10
v 9 0 -10
v 9 5 -10
v 12 8 -10
v 12 9 -10
v 12 25 -10
v 12 27 -10
v -14 0 11
v 11 0 11
v -11 0 -8
v -8 0 -8
v -3 0 -8
v 0 0 -8
v 5 0 -8
v 8 0 -8
v -14 0 -9
v -12 0 -9
v -11 0 -9
v -8 0 -9
v -7 0 -9
v -4 0 -9
v -3 0 -9
v 0 0 -9
v 1 0 -9
v 4 0 -9
v 5 0 -9
v 8 0 -9
v 9 0 -9
v 11 0 -9
v -12 0 -10
v -11 0 -10
v -8 0 -10
v -7 0 -10
v -4 0 -10
v -3 0 -10
v 0 0 -10
v 1 0 -10
v 4 0 -10
v 5 0 -10
v 8 0 -10
v 9 0 -10
v -11 5 -9
v -10 5 -9
v -9 5 -9
v -8 5 -9
v -3 5 -9
v -2 5 -9
v -1 5 -9
v 0 5 -9
v 5 5 -9
v 6 5 -9
v 7 5 -9
v 8 5 -9
v -11 5 -10
v -10 5 -10
v -9 5 -10
v -8 5 -10
v -3 5 -10
v -2 5 -10
v -1 5 -10
v 0 5 -10
v 5 5 -10
v 6 5 -10
v 7 5 -10
v 8 5 -10
v -10 6 -9
v -9 6 -9
v -2 6 -9
v -1 6 -9
v 6 6 -9
v 7 6 -9
v -10 6 -10
v -9 6 -10
v -2 6 -10
v -1 6 -10
v 6 6 -10
v 7 6 -10
v -15 8 12
v 12 8 12
v -14 8 11
v 11 8 11
v -14 8 -9
v 11 8 -9
v -15 8 -10
v 12 8 -10
v -10 10 -9
v -6 10 -9
v -3 10 -9
v 1 10 -9
v 4 10 -9
v 8 10 -9
v -10 10 -10
v -6 10 -10
v -3 10 -10
v 1 10 -10
v 4 10 -10
v 8 10 -10
v -10 16 -8
v -6 16 -8
v -3 16 -8
v 1 16 -8
v 4 16 -8
v 8 16 -8
v -10 16 -9
v -6 16 -9
v -3 16 -9
v 1 16 -9
v 4 16 -9
v 8 16 -9
v -10 17 -9
v -6 17 -9
v -3 17 -9
v 1 17 -9
v 4 17 -9
v 8 17 -9
v -10 17 -10
v -6 17 -10
v -3 17 -10
v 1 17 -10
v 4 17 -10
v 8 17 -10
v -10 23 -8
v -6 23 -8
v -3 23 -8
v 1 23 -8
v 4 23 -8
v 8 23 -8
v -10 23 -9
v -6 23 -9
v -3 23 -9
v 1 23 -9
v 4 23 -9
v 8 23 -9
v -15 25 12
v 12 25 12
v -14 25 11
v 11 25 11
v -14 25 -9
v 11 25 -9
v -15 25 -10
v 12 25 -10
v -12 5 -9
v -11 5 -9
v -8 5 -9
v -7 5 -9
v -4 5 -9
v -3 5 -9
v 0 5 -9
v 1 5 -9
v 4 5 -9
v 5 5 -9
v 8 5 -9
v 9 5 -9
v -12 5 -10
v -11 5 -10
v -8 5 -10
v -7 5 -10
v -4 5 -10
v -3 5 -10
v 0 5 -10
v 1 5 -10
v 4 5 -10
v 5 5 -10
v 8 5 -10
v 9 5 -10
v -11 6 -9
v -10 6 -9
v -9 6 -9
v -8 6 -9
v -3 6 -9
v -2 6 -9
v -1 6 -9
v 0 6 -9
v 5 6 -9
v 6 6 -9
v 7 6 -9
v 8 6 -9
v -11 6 -10
v -10 6 -10
v -9 6 -10
v -8 6 -10
v -3 6 -10
v -2 6 -10
v -1 6 -10
v 0 6 -10
v 5 6 -10
v 6 6 -10
v 7 6 -10
v 8 6 -10
v -10 7 -9
v -9 7 -9
v -2 7 -9
v -1 7 -9
v 6 7 -9
v 7 7 -9
v -10 7 -10
v -9 7 -10
v -2 7 -10
v -1 7 -10
v 6 7 -10
v 7 7 -10
v -15 9 12
v 12 9 12
v -14 9 11
v 11 9 11
v -14 9 -9
v 11 9 -9
v -15 9 -10
v 12 9 -10
v -10 11 -8
v -6 11 -8
v -3 11 -8
v 1 11 -8
v 4 11 -8
v 8 11 -8
v -10 11 -9
v -6 11 -9
v -3 11 -9
v 1 11 -9
v 4 11 -9
v 8 11 -9
v -10 11 -10
v -6 11 -10
v -3 11 -10
v 1 11 -10
v 4 11 -10
v 8 11 -10
v -10 18 -8
v -6 18 -8
v -3 18 -8
v 1 18 -8
v 4 18 -8
v 8 18 -8
v -10 18 -9
v -6 18 -9
v -3 18 -9
v 1 18 -9
v 4 18 -9
v 8 18 -9
v -10 18 -10
v -6 18 -10
v -3 18 -10
v 1 18 -10
v 4 18 -10
v 8 18 -10
v -14 26 11
v 11 26 11
v -14 26 -9
v 11 26 -9
v -15 27 12
v 12 27 12
v -14 27 11
v 11 27 11
v -14 27 -9
v 11 27 -9
v -15 27 -10
v 12 27 -10

# faces
f 3/3/1 2/3/1 1/3/1
f 4/3/1 2/3/1 3/3/1
f 7/3/1 6/3/1 5/3/1
f 8/3/1 6/3/1 7/3/1
f 11/1/1 10/1/1 9/1/1
f 12/1/1 10/1/1 11/1/1
f 15/2/1 14/2/1 13/2/1
f 16/2/1 14/2/1 15/2/1
f 19/4/1 18/4/1 17/4/1
f 20/4/1 18/4/1 19/4/1
f 23/4/1 22/4/1 21/4/1
f 24/4/1 22/4/1 23/4/1
f 27/4/1 26/4/1 25/4/1
f 28/4/1 26/4/1 27/4/1
f 31/3/1 30/3/1 29/3/1
f 32/3/1 30/3/1 31/3/1
f 35/3/1 34/3/1 33/3/1
f 36/3/1 34/3/1 35/3/1
f 39/4/1 38/4/1 37/4/1
f 40/4/1 38/4/1 39/4/1
f 43/4/1 42/4/1 41/4/1
f 44/4/1 42/4/1 43/4/1
f 47/2/1 46/2/1 45/2/1
f 48/2/1 46/2/1 47/2/1
f 51/2/1 50/2/1 49/2/1
f 52/2/1 50/2/1 51/2/1
f 55/4/1 54/4/1 53/4/1
f 56/4/1 54/4/1 55/4/1
f 59/4/1 58/4/1 57/4/1
f 60/4/1 58/4/1 59/4/1
f 63/3/1 62/3/1 61/3/1
f 64/3/1 62/3/1 63/3/1
f 67/3/1 66/3/1 65/3/1
f 68/3/1 66/3/1 67/3/1
f 71/4/1 70/4/1 69/4/1
f 72/4/1 70/4/1 71/4/1
f 75/4/1 74/4/1 73/4/1
f 76/4/1 74/4/1 75/4/1
f 79/4/1 78/4/1 77/4/1
f 80/4/1 78/4/1 79/4/1
f 83/2/1 82/2/1 81/2/1
f 84/2/1 82/2/1 83/2/1
f 87/2/1 86/2/1 85/2/1
f 88/2/1 86/2/1 87/2/1
f 91/4/1 90/4/1 89/4/1
f 92/4/1 90/4/1 91/4/1
f 95/3/1 94/3/1 93/3/1
f 96/3/1 94/3/1 95/3/1
f 99/3/1 98/3/1 97/3/1
f 100/3/1 98/3/1 99/3/1
f 103/4/1 102/4/1 101/4/1
f 104/4/1 102/4/1 103/4/1
f 107/4/1 106/4/1 105/4/1
f 108/4/1 106/4/1 107/4/1
f 111/4/1 110/4/1 109/4/1
f 112/4/1 110/4/1 111/4/1
f 115/4/1 114/4/1 113/4/1
f 116/4/1 114/4/1 115/4/1
f 119/2/1 118/2/1 117/2/1
f 120/2/1 118/2/1 119/2/1
f 123/2/1 122/2/1 121/2/1
f 124/2/1 122/2/1 123/2/1
f 127/3/1 126/3/1 125/3/1
f 128/3/1 126/3/1 127/3/1
f 129/3/2 130/3/2 131/3/2
f 131/3/2 130/3/2 132/3/2
f 133/4/2 134/4/2 135/4/2
f 135/4/2 134/4/2 136/4/2
f 137/4/2 138/4/2 139/4/2
f 139/4/2 138/4/2 140/4/2
f 141/2/2 142/2/2 143/2/2
f 143/2/2 142/2/2 144/2/2
f 145/2/2 146/2/2 147/2/2
f 147/2/2 146/2/2 148/2/2
f 149/4/2 150/4/2 151/4/2
f 151/4/2 150/4/2 152/4/2
f 153/4/2 154/4/2 155/4/2
f 155/4/2 154/4/2 156/4/2
f 157/4/2 158/4/2 159/4/2
f 159/4/2 158/4/2 160/4/2
f 161/3/2 162/3/2 163/3/2
f 163/3/2 162/3/2 164/3/2
f 165/3/2 166/3/2 167/3/2
f 167/3/2 166/3/2 168/3/2
f 169/4/2 170/4/2 171/4/2
f 171/4/2 170/4/2 172/4/2
f 173/2/2 174/2/2 175/2/2
f 175/2/2 174/2/2 176/2/2
f 177/2/2 178/2/2 179/2/2
f 179/2/2 178/2/2 180/2/2
f 181/4/2 182/4/2 183/4/2
f 183/4/2 182/4/2 184/4/2
f 185/4/2 186/4/2 187/4/2
f 187/4/2 186/4/2 188/4/2
f 189/4/2 190/4/2 191/4/2
f 191/4/2 190/4/2 192/4/2
f 193/4/2 194/4/2 195/4/2
f 195/4/2 194/4/2 196/4/2
f 197/3/2 198/3/2 199/3/2
f 199/3/2 198/3/2 200/3/2
f 201/3/2 202/3/2 203/3/2
f 203/3/2 202/3/2 204/3/2
f 205/2/2 206/2/2 207/2/2
f 207/2/2 206/2/2 208/2/2
f 209/2/2 210/2/2 211/2/2
f 211/2/2 210/2/2 212/2/2
f 213/4/2 214/4/2 215/4/2
f 215/4/2 214/4/2 216/4/2
f 217/4/2 218/4/2 219/4/2
f 219/4/2 218/4/2 220/4/2
f 221/4/2 222/4/2 223/4/2
f 223/4/2 222/4/2 224/4/2
f 225/4/2 226/4/2 227/4/2
f 227/4/2 226/4/2 228/4/2
f 229/3/2 230/3/2 231/3/2
f 231/3/2 230/3/2 232/3/2
f 233/3/2 234/3/2 235/3/2
f 235/3/2 234/3/2 236/3/2
f 237/4/2 238/4/2 239/4/2
f 239/4/2 238/4/2 240/4/2
f 241/1/2 242/1/2 243/1/2
f 243/1/2 242/1/2 244/1/2
f 245/2/2 246/2/2 247/2/2
f 247/2/2 246/2/2 248/2/2
f 249/3/2 250/3/2 251/3/2
f 251/3/2 250/3/2 252/3/2
f 253/3/2 254/3/2 255/3/2
f 255/3/2 254/3/2 256/3/2
f 261/3/3 258/3/3 257/3/3
f 262/3/3 258/3/3 261/3/3
f 263/3/3 260/3/3 259/3/3
f 264/3/3 260/3/3 263/3/3
f 269/1/3 266/1/3 265/1/3
f 270/1/3 266/1/3 269/1/3
f 271/2/3 268/2/3 267/2/3
f 272/2/3 268/2/3 271/2/3
f 275/3/3 274/3/3 273/3/3
f 276/3/3 274/3/3 275/3/3
f 277/3/4 278/3/4 279/3/4
f 279/3/4 278/3/4 280/3/4
f 281/4/4 282/4/4 285/4/4
f 285/4/4 282/4/4 286/4/4
f 283/4/4 284/4/4 287/4/4
f 287/4/4 284/4/4 288/4/4
f 289/4/4 290/4/4 293/4/4
f 293/4/4 290/4/4 294/4/4
f 291/4/4 292/4/4 295/4/4
f 295/4/4 292/4/4 296/4/4
f 297/4/4 298/4/4 301/4/4
f 301/4/4 298/4/4 302/4/4
f 299/4/4 300/4/4 303/4/4
f 303/4/4 300/4/4 304/4/4
f 305/1/4 306/1/4 309/1/4
f 309/1/4 306/1/4 310/1/4
f 310/1/4 306/1/4 312/1/4
f 312/1/4 306/1/4 313/1/4
f 311/5/4 312/5/4 314/5/4
f 313/1/4 306/1/4 315/1/4
f 315/1/4 306/1/4 316/1/4
f 307/2/4 308/2/4 317/2/4
f 317/2/4 308/2/4 318/2/4
f 318/2/4 308/2/4 319/2/4
f 319/2/4 308/2/4 320/2/4
f 320/2/4 308/2/4 321/2/4
f 321/2/4 308/2/4 322/2/4
f 311/5/4 314/5/4 323/5/4
f 314/5/4 315/5/4 323/5/4
f 323/5/4 315/5/4 324/5/4
f 316/1/4 306/1/4 325/1/4
f 311/5/4 323/5/4 326/5/4
f 326/5/4 323/5/4 327/5/4
f 324/1/4 325/1/4 328/1/4
f 327/1/4 328/1/4 330/1/4
f 307/2/4 317/2/4 331/2/4
f 319/2/4 320/2/4 333/2/4
f 333/2/4 320/2/4 334/2/4
f 322/2/4 308/2/4 336/2/4
f 329/1/4 330/1/4 337/1/4
f 330/1/4 328/1/4 338/1/4
f 337/1/4 330/1/4 338/1/4
f 338/1/4 328/1/4 340/1/4
f 328/1/4 325/1/4 341/1/4
f 340/1/4 328/1/4 341/1/4
f 334/2/4 335/2/4 342/2/4
f 331/2/4 332/2/4 342/2/4
f 335/2/4 336/2/4 342/2/4
f 307/2/4 331/2/4 342/2/4
f 332/2/4 333/2/4 342/2/4
f 333/2/4 334/2/4 342/2/4
f 342/2/4 336/2/4 343/2/4
f 343/2/4 336/2/4 344/2/4
f 344/2/4 336/2/4 345/2/4
f 345/2/4 336/2/4 346/2/4
f 336/2/4 308/2/4 347/2/4
f 346/2/4 336/2/4 347/2/4
f 339/5/4 340/5/4 348/5/4
f 341/1/4 325/1/4 349/1/4
f 325/1/4 306/1/4 350/1/4
f 349/1/4 325/1/4 350/1/4
f 339/5/4 348/5/4 351/5/4
f 348/5/4 349/5/4 351/5/4
f 351/5/4 349/5/4 352/5/4
f 350/1/4 306/1/4 353/1/4
f 339/5/4 351/5/4 354/5/4
f 354/5/4 351/5/4 355/5/4
f 352/1/4 353/1/4 356/1/4
f 355/1/4 356/1/4 358/1/4
f 307/2/4 342/2/4 359/2/4
f 344/2/4 345/2/4 361/2/4
f 361/2/4 345/2/4 362/2/4
f 347/2/4 308/2/4 364/2/4
f 357/1/4 358/1/4 365/1/4
f 358/1/4 356/1/4 366/1/4
f 365/1/4 358/1/4 366/1/4
f 362/2/4 363/2/4 367/2/4
f 359/2/4 360/2/4 367/2/4
f 363/2/4 364/2/4 367/2/4
f 307/2/4 359/2/4 367/2/4
f 360/2/4 361/2/4 367/2/4
f 361/2/4 362/2/4 367/2/4
f 367/2/4 364/2/4 368/2/4
f 368/2/4 364/2/4 369/2/4
f 369/2/4 364/2/4 370/2/4
f 370/2/4 364/2/4 371/2/4
f 364/2/4 308/2/4 372/2/4
f 371/2/4 364/2/4 372/2/4
f 366/1/4 356/1/4 374/1/4
f 356/1/4 353/1/4 375/1/4
f 374/1/4 356/1/4 375/1/4
f 373/5/4 374/5/4 376/5/4
f 375/1/4 353/1/4 377/1/4
f 353/1/4 306/1/4 378/1/4
f 377/1/4 353/1/4 378/1/4
f 373/5/4 376/5/4 379/5/4
f 376/5/4 377/5/4 379/5/4
f 379/5/4 377/5/4 380/5/4
f 378/1/4 306/1/4 381/1/4
f 373/5/4 379/5/4 382/5/4
f 382/5/4 379/5/4 383/5/4
f 380/1/4 381/1/4 384/1/4
f 307/2/4 367/2/4 385/2/4
f 369/2/4 370/2/4 387/2/4
f 387/2/4 370/2/4 388/2/4
f 372/2/4 308/2/4 390/2/4
f 383/1/4 384/1/4 392/1/4
f 391/1/4 392/1/4 393/1/4
f 381/1/4 306/1/4 394/1/4
f 393/1/4 392/1/4 394/1/4
f 384/1/4 381/1/4 394/1/4
f 392/1/4 384/1/4 394/1/4
f 389/2/4 390/2/4 395/2/4
f 388/2/4 389/2/4 395/2/4
f 385/2/4 386/2/4 395/2/4
f 387/2/4 388/2/4 395/2/4
f 386/2/4 387/2/4 395/2/4
f 307/2/4 385/2/4 395/2/4
f 390/2/4 308/2/4 396/2/4
f 395/2/4 390/2/4 396/2/4
f 401/4/4 402/4/4 403/4/4
f 403/4/4 402/4/4 404/4/4
f 404/4/4 405/4/4 406/4/4
f 406/4/4 405/4/4 407/4/4
f 407/4/4 408/4/4 414/4/4
f 414/4/4 408/4/4 415/4/4
f 413/4/4 414/4/4 417/4/4
f 417/4/4 414/4/4 418/4/4
f 416/4/4 417/4/4 419/4/4
f 419/4/4 417/4/4 420/4/4
f 409/3/4 410/3/4 421/3/4
f 421/3/4 410/3/4 422/3/4
f 411/3/4 412/3/4 423/3/4
f 423/3/4 412/3/4 424/3/4
f 425/4/4 426/4/4 427/4/4
f 427/4/4 426/4/4 428/4/4
f 428/4/4 429/4/4 434/4/4
f 434/4/4 429/4/4 435/4/4
f 435/4/4 436/4/4 438/4/4
f 438/4/4 436/4/4 439/4/4
f 437/4/4 438/4/4 441/4/4
f 441/4/4 438/4/4 442/4/4
f 440/4/4 441/4/4 443/4/4
f 443/4/4 441/4/4 444/4/4
f 430/3/4 431/3/4 445/3/4
f 445/3/4 431/3/4 446/3/4
f 432/3/4 433/3/4 447/3/4
f 447/3/4 433/3/4 448/3/4
f 449/4/4 450/4/4 455/4/4
f 455/4/4 450/4/4 456/4/4
f 456/4/4 457/4/4 458/4/4
f 458/4/4 457/4/4 459/4/4
f 459/4/4 460/4/4 462/4/4
f 462/4/4 460/4/4 463/4/4
f 461/4/4 462/4/4 465/4/4
f 465/4/4 462/4/4 466/4/4
f 451/3/4 452/3/4 467/3/4
f 467/3/4 452/3/4 468/3/4
f 453/3/4 454/3/4 469/3/4
f 469/3/4 454/3/4 470/3/4
f 464/4/4 465/4/4 471/4/4
f 471/4/4 465/4/4 472/4/4
f 397/3/4 398/3/4 473/3/4
f 473/3/4 398/3/4 474/3/4
f 399/3/4 400/3/4 475/3/4
f 475/3/4 400/3/4 476/3/4
f 479/1/5 478/1/5 477/1/5
f 480/1/5 478/1/5 479/1/5
f 481/1/5 478/1/5 480/1/5
f 482/1/5 478/1/5 481/1/5
f 483/1/5 478/1/5 482/1/5
f 484/1/5 478/1/5 483/1/5
f 485/1/5 479/1/5 477/1/5
f 486/1/5 479/1/5 485/1/5
f 487/5/5 480/5/5 479/5/5
f 487/1/5 479/1/5 486/1/5
f 488/1/5 481/1/5 480/1/5
f 488/5/5 480/5/5 487/5/5
f 489/1/5 481/1/5 488/1/5
f 490/1/5 481/1/5 489/1/5
f 491/5/5 482/5/5 481/5/5
f 491/1/5 481/1/5 490/1/5
f 492/1/5 483/1/5 482/1/5
f 492/5/5 482/5/5 491/5/5
f 493/1/5 483/1/5 492/1/5
f 494/1/5 483/1/5 493/1/5
f 495/5/5 484/5/5 483/5/5
f 495/1/5 483/1/5 494/1/5
f 496/1/5 478/1/5 484/1/5
f 496/5/5 484/5/5 495/5/5
f 497/1/5 478/1/5 496/1/5
f 498/1/5 478/1/5 497/1/5
f 499/4/5 487/4/5 486/4/5
f 500/4/5 487/4/5 499/4/5
f 501/4/5 489/4/5 488/4/5
f 502/4/5 489/4/5 501/4/5
f 503/4/5 491/4/5 490/4/5
f 504/4/5 491/4/5 503/4/5
f 505/4/5 493/4/5 492/4/5
f 506/4/5 493/4/5 505/4/5
f 507/4/5 495/4/5 494/4/5
f 508/4/5 495/4/5 507/4/5
f 509/4/5 497/4/5 496/4/5
f 510/4/5 497/4/5 509/4/5
f 523/4/5 512/4/5 511/4/5
f 524/4/5 512/4/5 523/4/5
f 525/4/5 514/4/5 513/4/5
f 526/4/5 514/4/5 525/4/5
f 527/4/5 516/4/5 515/4/5
f 528/4/5 516/4/5 527/4/5
f 529/4/5 518/4/5 517/4/5
f 530/4/5 518/4/5 529/4/5
f 531/4/5 520/4/5 519/4/5
f 532/4/5 520/4/5 531/4/5
f 533/4/5 522/4/5 521/4/5
f 534/4/5 522/4/5 533/4/5
f 541/4/5 536/4/5 535/4/5
f 542/4/5 536/4/5 541/4/5
f 543/4/5 538/4/5 537/4/5
f 544/4/5 538/4/5 543/4/5
f 545/4/5 540/4/5 539/4/5
f 546/4/5 540/4/5 545/4/5
f 549/3/5 548/3/5 547/3/5
f 550/3/5 548/3/5 549/3/5
f 551/3/5 549/3/5 547/3/5
f 552/3/5 548/3/5 550/3/5
f 553/3/5 551/3/5 547/3/5
f 553/3/5 552/3/5 551/3/5
f 554/3/5 548/3/5 552/3/5
f 554/3/5 552/3/5 553/3/5
f 561/3/5 556/3/5 555/3/5
f 562/3/5 556/3/5 561/3/5
f 563/3/5 558/3/5 557/3/5
f 564/3/5 558/3/5 563/3/5
f 565/3/5 560/3/5 559/3/5
f 566/3/5 560/3/5 565/3/5
f 573/2/5 568/2/5 567/2/5
f 574/2/5 568/2/5 573/2/5
f 575/2/5 570/2/5 569/2/5
f 576/2/5 570/2/5 575/2/5
f 577/2/5 572/2/5 571/2/5
f 578/2/5 572/2/5 577/2/5
f 585/3/5 580/3/5 579/3/5
f 586/3/5 580/3/5 585/3/5
f 587/3/5 582/3/5 581/3/5
f 588/3/5 582/3/5 587/3/5
f 589/3/5 584/3/5 583/3/5
f 590/3/5 584/3/5 589/3/5
f 597/2/5 592/2/5 591/2/5
f 598/2/5 592/2/5 597/2/5
f 599/2/5 594/2/5 593/2/5
f 600/2/5 594/2/5 599/2/5
f 601/2/5 596/2/5 595/2/5
f 602/2/5 596/2/5 601/2/5
f 605/3/5 604/3/5 603/3/5
f 606/3/5 604/3/5 605/3/5
f 607/3/5 605/3/5 603/3/5
f 608/3/5 604/3/5 606/3/5
f 609/3/5 607/3/5 603/3/5
f 609/3/5 608/3/5 607/3/5
f 610/3/5 604/3/5 608/3/5
f 610/3/5 608/3/5 609/3/5
f 611/4/6 612/4/6 623/4/6
f 623/4/6 612/4/6 624/4/6
f 613/4/6 614/4/6 625/4/6
f 625/4/6 614/4/6 626/4/6
f 615/4/6 616/4/6 627/4/6
f 627/4/6 616/4/6 628/4/6
f 617/4/6 618/4/6 629/4/6
f 629/4/6 618/4/6 630/4/6
f 619/4/6 620/4/6 631/4/6
f 631/4/6 620/4/6 632/4/6
f 621/4/6 622/4/6 633/4/6
f 633/4/6 622/4/6 634/4/6
f 635/4/6 636/4/6 647/4/6
f 647/4/6 636/4/6 648/4/6
f 637/4/6 638/4/6 649/4/6
f 649/4/6 638/4/6 650/4/6
f 639/4/6 640/4/6 651/4/6
f 651/4/6 640/4/6 652/4/6
f 641/4/6 642/4/6 653/4/6
f 653/4/6 642/4/6 654/4/6
f 643/4/6 644/4/6 655/4/6
f 655/4/6 644/4/6 656/4/6
f 645/4/6 646/4/6 657/4/6
f 657/4/6 646/4/6 658/4/6
f 659/4/6 660/4/6 665/4/6
f 665/4/6 660/4/6 666/4/6
f 661/4/6 662/4/6 667/4/6
f 667/4/6 662/4/6 668/4/6
f 663/4/6 664/4/6 669/4/6
f 669/4/6 664/4/6 670/4/6
f 671/3/6 672/3/6 673/3/6
f 673/3/6 672/3/6 674/3/6
f 671/3/6 673/3/6 675/3/6
f 674/3/6 672/3/6 676/3/6
f 671/3/6 675/3/6 677/3/6
f 675/3/6 676/3/6 677/3/6
f 676/3/6 672/3/6 678/3/6
f 677/3/6 676/3/6 678/3/6
f 679/3/6 680/3/6 685/3/6
f 685/3/6 680/3/6 686/3/6
f 681/3/6 682/3/6 687/3/6
f 687/3/6 682/3/6 688/3/6
f 683/3/6 684/3/6 689/3/6
f 689/3/6 684/3/6 690/3/6
f 685/3/6 686/3/6 691/3/6
f 691/3/6 686/3/6 692/3/6
f 687/3/6 688/3/6 693/3/6
f 693/3/6 688/3/6 694/3/6
f 689/3/6 690/3/6 695/3/6
f 695/3/6 690/3/6 696/3/6
f 697/3/6 698/3/6 703/3/6
f 703/3/6 698/3/6 704/3/6
f 699/3/6 700/3/6 705/3/6
f 705/3/6 700/3/6 706/3/6
f 701/3/6 702/3/6 707/3/6
f 707/3/6 702/3/6 708/3/6
f 703/3/6 704/3/6 709/3/6
f 709/3/6 704/3/6 710/3/6
f 705/3/6 706/3/6 711/3/6
f 711/3/6 706/3/6 712/3/6
f 707/3/6 708/3/6 713/3/6
f 713/3/6 708/3/6 714/3/6
f 715/5/6 716/5/6 717/5/6
f 717/5/6 716/5/6 718/5/6
f 719/3/6 720/3/6 721/3/6
f 721/3/6 720/3/6 722/3/6
f 719/3/6 721/3/6 723/3/6
f 722/3/6 720/3/6 724/3/6
f 719/3/6 723/3/6 725/3/6
f 723/3/6 724/3/6 725/3/6
f 724/3/6 720/3/6 726/3/6
f 725/3/6 724/3/6 726/3/6
