# MagicaVoxel @ Ephtracy

# group
g Bin

# material
mtllib Bin.mtl
usemtl palette

# normals
vn -1 0 0
vn 1 0 0
vn 0 0 1
vn 0 0 -1
vn 0 -1 0
vn 0 1 0

# texcoords
vt 0.970703 0.5
vt 0.974609 0.5
vt 0.978516 0.5
vt 0.982422 0.5

# verts
v -5 8 2
v -5 8 -1
v -5 9 2
v -5 9 -1
v -4 0 2
v -4 0 -1
v -4 8 3
v -4 8 2
v -4 8 -1
v -4 8 -2
v -4 9 3
v -4 9 2
v -4 9 -1
v -4 9 -2
v -3 0 3
v -3 0 2
v -3 0 -1
v -3 0 -2
v -3 8 4
v -3 8 3
v -3 8 2
v -3 8 -1
v -3 8 -2
v -3 8 -3
v -3 9 4
v -3 9 3
v -3 9 -2
v -3 9 -3
v -2 0 4
v -2 0 3
v -2 0 -2
v -2 0 -3
v -2 4 4
v -2 4 3
v -2 6 4
v -2 6 3
v -2 8 5
v -2 8 4
v -2 8 3
v -2 8 -2
v -2 8 -3
v -2 8 -4
v -2 9 5
v -2 9 4
v -2 9 -3
v -2 9 -4
v 1 7 3
v 1 7 2
v 1 7 -1
v 1 7 -2
v 1 9 3
v 1 9 2
v 1 9 -1
v 1 9 -2
v 2 7 2
v 2 7 -1
v 2 9 2
v 2 9 -1
v -3 7 2
v -3 7 -1
v -3 9 2
v -3 9 -1
v -2 7 3
v -2 7 2
v -2 7 -1
v -2 7 -2
v -2 9 3
v -2 9 2
v -2 9 -1
v -2 9 -2
v 1 0 4
v 1 0 3
v 1 0 -2
v 1 0 -3
v 1 4 4
v 1 4 3
v 1 6 4
v 1 6 3
v 1 8 5
v 1 8 4
v 1 8 3
v 1 8 -2
v 1 8 -3
v 1 8 -4
v 1 9 5
v 1 9 4
v 1 9 -3
v 1 9 -4
v 2 0 3
v 2 0 2
v 2 0 -1
v 2 0 -2
v 2 8 4
v 2 8 3
v 2 8 2
v 2 8 -1
v 2 8 -2
v 2 8 -3
v 2 9 4
v 2 9 3
v 2 9 -2
v 2 9 -3
v 3 0 2
v 3 0 -1
v 3 8 3
v 3 8 2
v 3 8 -1
v 3 8 -2
v 3 9 3
v 3 9 2
v 3 9 -1
v 3 9 -2
v 4 8 2
v 4 8 -1
v 4 9 2
v 4 9 -1
v -2 8 5
v -2 9 5
v 1 8 5
v 1 9 5
v -3 8 4
v -3 9 4
v -2 0 4
v -2 4 4
v -2 6 4
v -2 8 4
v -2 9 4
v 1 0 4
v 1 4 4
v 1 6 4
v 1 8 4
v 1 9 4
v 2 8 4
v 2 9 4
v -4 8 3
v -4 9 3
v -3 0 3
v -3 8 3
v -3 9 3
v -2 0 3
v -2 4 3
v -2 6 3
v -2 8 3
v 1 0 3
v 1 4 3
v 1 6 3
v 1 8 3
v 2 0 3
v 2 8 3
v 2 9 3
v 3 8 3
v 3 9 3
v -5 8 2
v -5 9 2
v -4 0 2
v -4 8 2
v -4 9 2
v -3 0 2
v -3 8 2
v 2 0 2
v 2 8 2
v 3 0 2
v 3 8 2
v 3 9 2
v 4 8 2
v 4 9 2
v -3 7 -1
v -3 9 -1
v -2 7 -1
v -2 9 -1
v 1 7 -1
v 1 9 -1
v 2 7 -1
v 2 9 -1
v -2 7 -2
v -2 9 -2
v 1 7 -2
v 1 9 -2
v -2 7 3
v -2 9 3
v 1 7 3
v 1 9 3
v -3 7 2
v -3 9 2
v -2 7 2
v -2 9 2
v 1 7 2
v 1 9 2
v 2 7 2
v 2 9 2
v -5 8 -1
v -5 9 -1
v -4 0 -1
v -4 8 -1
v -4 9 -1
v -3 0 -1
v -3 8 -1
v 2 0 -1
v 2 8 -1
v 3 0 -1
v 3 8 -1
v 3 9 -1
v 4 8 -1
v 4 9 -1
v -4 8 -2
v -4 9 -2
v -3 0 -2
v -3 8 -2
v -3 9 -2
v -2 0 -2
v -2 8 -2
v 1 0 -2
v 1 8 -2
v 2 0 -2
v 2 8 -2
v 2 9 -2
v 3 8 -2
v 3 9 -2
v -3 8 -3
v -3 9 -3
v -2 0 -3
v -2 8 -3
v -2 9 -3
v 1 0 -3
v 1 8 -3
v 1 9 -3
v 2 8 -3
v 2 9 -3
v -2 8 -4
v -2 9 -4
v 1 8 -4
v 1 9 -4
v -2 0 4
v 1 0 4
v -3 0 3
v -2 0 3
v 1 0 3
v 2 0 3
v -4 0 2
v -3 0 2
v 2 0 2
v 3 0 2
v -4 0 -1
v -3 0 -1
v 2 0 -1
v 3 0 -1
v -3 0 -2
v -2 0 -2
v 1 0 -2
v 2 0 -2
v -2 0 -3
v 1 0 -3
v -2 8 5
v 1 8 5
v -3 8 4
v -2 8 4
v 1 8 4
v 2 8 4
v -4 8 3
v -3 8 3
v -2 8 3
v 1 8 3
v 2 8 3
v 3 8 3
v -5 8 2
v -4 8 2
v -3 8 2
v 2 8 2
v 3 8 2
v 4 8 2
v -5 8 -1
v -4 8 -1
v -3 8 -1
v 2 8 -1
v 3 8 -1
v 4 8 -1
v -4 8 -2
v -3 8 -2
v -2 8 -2
v 1 8 -2
v 2 8 -2
v 3 8 -2
v -3 8 -3
v -2 8 -3
v 1 8 -3
v 2 8 -3
v -2 8 -4
v 1 8 -4
v -2 7 3
v 1 7 3
v -3 7 2
v -2 7 2
v 1 7 2
v 2 7 2
v -3 7 -1
v -2 7 -1
v 1 7 -1
v 2 7 -1
v -2 7 -2
v 1 7 -2
v -2 9 5
v 1 9 5
v -3 9 4
v -2 9 4
v 1 9 4
v 2 9 4
v -4 9 3
v -3 9 3
v -2 9 3
v 1 9 3
v 2 9 3
v 3 9 3
v -5 9 2
v -4 9 2
v -3 9 2
v -2 9 2
v 1 9 2
v 2 9 2
v 3 9 2
v 4 9 2
v -5 9 -1
v -4 9 -1
v -3 9 -1
v -2 9 -1
v 1 9 -1
v 2 9 -1
v 3 9 -1
v 4 9 -1
v -4 9 -2
v -3 9 -2
v -2 9 -2
v 1 9 -2
v 2 9 -2
v 3 9 -2
v -3 9 -3
v -2 9 -3
v 1 9 -3
v 2 9 -3
v -2 9 -4
v 1 9 -4

# faces
f 3/3/1 2/3/1 1/3/1
f 4/3/1 2/3/1 3/3/1
f 8/1/1 6/1/1 5/1/1
f 9/1/1 6/1/1 8/1/1
f 11/3/1 8/3/1 7/3/1
f 12/3/1 8/3/1 11/3/1
f 13/3/1 10/3/1 9/3/1
f 14/3/1 10/3/1 13/3/1
f 20/1/1 16/1/1 15/1/1
f 21/1/1 16/1/1 20/1/1
f 22/1/1 18/1/1 17/1/1
f 23/1/1 18/1/1 22/1/1
f 25/3/1 20/3/1 19/3/1
f 26/3/1 20/3/1 25/3/1
f 27/3/1 24/3/1 23/3/1
f 28/3/1 24/3/1 27/3/1
f 33/1/1 30/1/1 29/1/1
f 34/1/1 30/1/1 33/1/1
f 35/4/1 34/4/1 33/4/1
f 36/4/1 34/4/1 35/4/1
f 38/1/1 36/1/1 35/1/1
f 39/1/1 36/1/1 38/1/1
f 40/1/1 32/1/1 31/1/1
f 41/1/1 32/1/1 40/1/1
f 43/3/1 38/3/1 37/3/1
f 44/3/1 38/3/1 43/3/1
f 45/3/1 42/3/1 41/3/1
f 46/3/1 42/3/1 45/3/1
f 51/1/1 48/1/1 47/1/1
f 52/1/1 48/1/1 51/1/1
f 53/1/1 50/1/1 49/1/1
f 54/1/1 50/1/1 53/1/1
f 57/1/1 56/1/1 55/1/1
f 58/1/1 56/1/1 57/1/1
f 59/1/2 60/1/2 61/1/2
f 61/1/2 60/1/2 62/1/2
f 63/1/2 64/1/2 67/1/2
f 67/1/2 64/1/2 68/1/2
f 65/1/2 66/1/2 69/1/2
f 69/1/2 66/1/2 70/1/2
f 71/1/2 72/1/2 75/1/2
f 75/1/2 72/1/2 76/1/2
f 75/4/2 76/4/2 77/4/2
f 77/4/2 76/4/2 78/4/2
f 77/1/2 78/1/2 80/1/2
f 80/1/2 78/1/2 81/1/2
f 73/1/2 74/1/2 82/1/2
f 82/1/2 74/1/2 83/1/2
f 79/3/2 80/3/2 85/3/2
f 85/3/2 80/3/2 86/3/2
f 83/3/2 84/3/2 87/3/2
f 87/3/2 84/3/2 88/3/2
f 89/1/2 90/1/2 94/1/2
f 94/1/2 90/1/2 95/1/2
f 91/1/2 92/1/2 96/1/2
f 96/1/2 92/1/2 97/1/2
f 93/3/2 94/3/2 99/3/2
f 99/3/2 94/3/2 100/3/2
f 97/3/2 98/3/2 101/3/2
f 101/3/2 98/3/2 102/3/2
f 103/1/2 104/1/2 106/1/2
f 106/1/2 104/1/2 107/1/2
f 105/3/2 106/3/2 109/3/2
f 109/3/2 106/3/2 110/3/2
f 107/3/2 108/3/2 111/3/2
f 111/3/2 108/3/2 112/3/2
f 113/3/2 114/3/2 115/3/2
f 115/3/2 114/3/2 116/3/2
f 119/3/3 118/3/3 117/3/3
f 120/3/3 118/3/3 119/3/3
f 126/3/3 122/3/3 121/3/3
f 127/3/3 122/3/3 126/3/3
f 128/1/3 124/1/3 123/1/3
f 129/4/3 125/4/3 124/4/3
f 129/1/3 124/1/3 128/1/3
f 130/1/3 126/1/3 125/1/3
f 130/4/3 125/4/3 129/4/3
f 131/1/3 126/1/3 130/1/3
f 133/3/3 132/3/3 131/3/3
f 134/3/3 132/3/3 133/3/3
f 138/3/3 136/3/3 135/3/3
f 139/3/3 136/3/3 138/3/3
f 140/1/3 138/1/3 137/1/3
f 141/1/3 138/1/3 140/1/3
f 142/1/3 138/1/3 141/1/3
f 143/1/3 138/1/3 142/1/3
f 148/1/3 145/1/3 144/1/3
f 148/1/3 147/1/3 146/1/3
f 148/1/3 146/1/3 145/1/3
f 149/1/3 147/1/3 148/1/3
f 151/3/3 150/3/3 149/3/3
f 152/3/3 150/3/3 151/3/3
f 156/3/3 154/3/3 153/3/3
f 157/3/3 154/3/3 156/3/3
f 158/1/3 156/1/3 155/1/3
f 159/1/3 156/1/3 158/1/3
f 162/1/3 161/1/3 160/1/3
f 163/1/3 161/1/3 162/1/3
f 165/3/3 164/3/3 163/3/3
f 166/3/3 164/3/3 165/3/3
f 169/1/3 168/1/3 167/1/3
f 170/1/3 168/1/3 169/1/3
f 173/1/3 172/1/3 171/1/3
f 174/1/3 172/1/3 173/1/3
f 177/1/3 176/1/3 175/1/3
f 178/1/3 176/1/3 177/1/3
f 179/1/4 180/1/4 181/1/4
f 181/1/4 180/1/4 182/1/4
f 183/1/4 184/1/4 185/1/4
f 185/1/4 184/1/4 186/1/4
f 187/1/4 188/1/4 189/1/4
f 189/1/4 188/1/4 190/1/4
f 191/3/4 192/3/4 194/3/4
f 194/3/4 192/3/4 195/3/4
f 193/1/4 194/1/4 196/1/4
f 196/1/4 194/1/4 197/1/4
f 198/1/4 199/1/4 200/1/4
f 200/1/4 199/1/4 201/1/4
f 201/3/4 202/3/4 203/3/4
f 203/3/4 202/3/4 204/3/4
f 205/3/4 206/3/4 208/3/4
f 208/3/4 206/3/4 209/3/4
f 207/1/4 208/1/4 210/1/4
f 210/1/4 208/1/4 211/1/4
f 212/1/4 213/1/4 214/1/4
f 214/1/4 213/1/4 215/1/4
f 215/3/4 216/3/4 217/3/4
f 217/3/4 216/3/4 218/3/4
f 219/3/4 220/3/4 222/3/4
f 222/3/4 220/3/4 223/3/4
f 221/1/4 222/1/4 224/1/4
f 224/1/4 222/1/4 225/1/4
f 225/3/4 226/3/4 227/3/4
f 227/3/4 226/3/4 228/3/4
f 229/3/4 230/3/4 231/3/4
f 231/3/4 230/3/4 232/3/4
f 236/1/5 234/1/5 233/1/5
f 237/1/5 234/1/5 236/1/5
f 240/1/5 236/1/5 235/1/5
f 240/1/5 238/1/5 237/1/5
f 240/1/5 237/1/5 236/1/5
f 241/1/5 238/1/5 240/1/5
f 243/1/5 240/1/5 239/1/5
f 243/1/5 242/1/5 241/1/5
f 243/1/5 241/1/5 240/1/5
f 244/1/5 242/1/5 243/1/5
f 245/1/5 242/1/5 244/1/5
f 246/1/5 242/1/5 245/1/5
f 247/1/5 245/1/5 244/1/5
f 248/1/5 245/1/5 247/1/5
f 249/1/5 245/1/5 248/1/5
f 250/1/5 245/1/5 249/1/5
f 251/1/5 249/1/5 248/1/5
f 252/1/5 249/1/5 251/1/5
f 256/3/5 254/3/5 253/3/5
f 257/3/5 254/3/5 256/3/5
f 260/3/5 256/3/5 255/3/5
f 261/3/5 256/3/5 260/3/5
f 262/3/5 258/3/5 257/3/5
f 263/3/5 258/3/5 262/3/5
f 266/3/5 260/3/5 259/3/5
f 267/3/5 260/3/5 266/3/5
f 268/3/5 264/3/5 263/3/5
f 269/3/5 264/3/5 268/3/5
f 271/3/5 266/3/5 265/3/5
f 272/3/5 266/3/5 271/3/5
f 275/3/5 270/3/5 269/3/5
f 276/3/5 270/3/5 275/3/5
f 277/3/5 273/3/5 272/3/5
f 278/3/5 273/3/5 277/3/5
f 281/3/5 275/3/5 274/3/5
f 282/3/5 275/3/5 281/3/5
f 283/3/5 279/3/5 278/3/5
f 284/3/5 279/3/5 283/3/5
f 285/3/5 281/3/5 280/3/5
f 286/3/5 281/3/5 285/3/5
f 287/3/5 285/3/5 284/3/5
f 288/3/5 285/3/5 287/3/5
f 289/2/6 290/2/6 292/2/6
f 292/2/6 290/2/6 293/2/6
f 291/2/6 292/2/6 295/2/6
f 293/2/6 294/2/6 295/2/6
f 292/2/6 293/2/6 295/2/6
f 295/2/6 294/2/6 296/2/6
f 296/2/6 294/2/6 297/2/6
f 297/2/6 294/2/6 298/2/6
f 296/2/6 297/2/6 299/2/6
f 299/2/6 297/2/6 300/2/6
f 301/3/6 302/3/6 304/3/6
f 304/3/6 302/3/6 305/3/6
f 303/3/6 304/3/6 308/3/6
f 304/1/6 305/1/6 309/1/6
f 308/3/6 304/3/6 309/3/6
f 305/3/6 306/3/6 310/3/6
f 309/1/6 305/1/6 310/1/6
f 310/3/6 306/3/6 311/3/6
f 307/3/6 308/3/6 314/3/6
f 308/1/6 309/1/6 315/1/6
f 314/3/6 308/3/6 315/3/6
f 315/1/6 309/1/6 316/1/6
f 310/1/6 311/1/6 317/1/6
f 311/3/6 312/3/6 318/3/6
f 317/1/6 311/1/6 318/1/6
f 318/3/6 312/3/6 319/3/6
f 313/3/6 314/3/6 321/3/6
f 314/1/6 315/1/6 322/1/6
f 321/3/6 314/3/6 322/3/6
f 322/1/6 315/1/6 323/1/6
f 318/1/6 319/1/6 326/1/6
f 319/3/6 320/3/6 327/3/6
f 326/1/6 319/1/6 327/1/6
f 327/3/6 320/3/6 328/3/6
f 322/3/6 323/3/6 329/3/6
f 323/1/6 324/1/6 330/1/6
f 329/3/6 323/3/6 330/3/6
f 330/1/6 324/1/6 331/1/6
f 325/1/6 326/1/6 332/1/6
f 326/3/6 327/3/6 333/3/6
f 332/1/6 326/1/6 333/1/6
f 333/3/6 327/3/6 334/3/6
f 330/3/6 331/3/6 335/3/6
f 331/1/6 332/1/6 336/1/6
f 335/3/6 331/3/6 336/3/6
f 332/3/6 333/3/6 337/3/6
f 336/1/6 332/1/6 337/1/6
f 337/3/6 333/3/6 338/3/6
f 336/3/6 337/3/6 339/3/6
f 339/3/6 337/3/6 340/3/6
