# MagicaVoxel @ Ephtracy

# group
g Music tape walkman

# material
mtllib Music tape walkman.mtl
usemtl palette

# normals
vn -1 0 0
vn 1 0 0
vn 0 0 1
vn 0 0 -1
vn 0 -1 0
vn 0 1 0

# texcoords
vt 0.939453 0.5
vt 0.943359 0.5
vt 0.970703 0.5
vt 0.974609 0.5
vt 0.978516 0.5
vt 0.982422 0.5
vt 0.986328 0.5

# verts
v -20 0 -14
v -20 0 -15
v -20 1 -11
v -20 1 -14
v -20 2 -6
v -20 2 -11
v -20 2 -12
v -20 2 -15
v -20 3 -6
v -20 3 -12
v -18 1 -5
v -18 1 -8
v -18 2 -6
v -18 2 -7
v -18 3 -6
v -18 3 -7
v -18 4 -5
v -18 4 -8
v -15 0 7
v -15 0 -10
v -15 1 -5
v -15 1 -8
v -15 4 -5
v -15 4 -8
v -15 6 7
v -15 6 -10
v -11 2 8
v -11 2 7
v -11 4 8
v -11 4 7
v -9 2 9
v -9 2 8
v -9 4 9
v -9 4 8
v -5 2 9
v -5 2 8
v -5 4 9
v -5 4 8
v -1 2 9
v -1 2 8
v -1 4 9
v -1 4 8
v 3 2 9
v 3 2 8
v 3 4 9
v 3 4 8
v -19 1 -11
v -19 1 -14
v -19 1 -15
v -19 2 -7
v -19 2 -11
v -19 2 -12
v -19 2 -15
v -19 3 -7
v -19 3 -12
v -7 2 9
v -7 2 8
v -7 4 9
v -7 4 8
v -3 2 9
v -3 2 8
v -3 4 9
v -3 4 8
v 1 2 9
v 1 2 8
v 1 4 9
v 1 4 8
v 5 2 9
v 5 2 8
v 5 4 9
v 5 4 8
v 11 2 8
v 11 2 7
v 11 4 8
v 11 4 7
v 15 0 7
v 15 0 -10
v 15 6 7
v 15 6 -10
v 20 0 -14
v 20 0 -15
v 20 1 -14
v 20 1 -15
v -9 2 9
v -9 4 9
v -7 2 9
v -7 4 9
v -5 2 9
v -5 4 9
v -3 2 9
v -3 4 9
v -1 2 9
v -1 4 9
v 1 2 9
v 1 4 9
v 3 2 9
v 3 4 9
v 5 2 9
v 5 4 9
v -11 2 8
v -11 4 8
v -9 2 8
v -9 4 8
v -7 2 8
v -7 4 8
v -5 2 8
v -5 4 8
v -3 2 8
v -3 4 8
v -1 2 8
v -1 4 8
v 1 2 8
v 1 4 8
v 3 2 8
v 3 4 8
v 5 2 8
v 5 4 8
v 11 2 8
v 11 4 8
v -15 0 7
v -15 6 7
v -13 1 7
v -13 5 7
v -12 2 7
v -12 4 7
v -11 2 7
v -11 4 7
v -9 2 7
v -9 4 7
v -7 2 7
v -7 4 7
v -5 2 7
v -5 4 7
v -3 2 7
v -3 4 7
v -1 2 7
v -1 4 7
v 1 2 7
v 1 4 7
v 3 2 7
v 3 4 7
v 5 2 7
v 5 4 7
v 11 2 7
v 11 4 7
v 12 2 7
v 12 4 7
v 13 1 7
v 13 5 7
v 15 0 7
v 15 6 7
v -18 1 -5
v -18 4 -5
v -15 1 -5
v -15 4 -5
v -20 2 -6
v -20 3 -6
v -18 2 -6
v -18 3 -6
v -20 1 -11
v -20 2 -11
v -19 1 -11
v -19 2 -11
v -20 0 -14
v -20 1 -14
v -19 1 -14
v 20 0 -14
v 20 1 -14
v -19 2 -7
v -19 3 -7
v -18 2 -7
v -18 3 -7
v -18 1 -8
v -18 4 -8
v -15 1 -8
v -15 4 -8
v -15 0 -10
v -15 6 -10
v 15 0 -10
v 15 6 -10
v -20 2 -12
v -20 3 -12
v -19 2 -12
v -19 3 -12
v -20 0 -15
v -20 2 -15
v -19 1 -15
v -19 2 -15
v 20 0 -15
v 20 1 -15
v -15 0 7
v 15 0 7
v -15 0 -10
v 15 0 -10
v -20 0 -14
v 20 0 -14
v -20 0 -15
v 20 0 -15
v -18 1 -5
v -15 1 -5
v -18 1 -8
v -15 1 -8
v -20 1 -11
v -19 1 -11
v -20 1 -14
v -19 1 -14
v -9 2 9
v -7 2 9
v -5 2 9
v -3 2 9
v -1 2 9
v 1 2 9
v 3 2 9
v 5 2 9
v -11 2 8
v -9 2 8
v -7 2 8
v -5 2 8
v -3 2 8
v -1 2 8
v 1 2 8
v 3 2 8
v 5 2 8
v 11 2 8
v -11 2 7
v -9 2 7
v -7 2 7
v -5 2 7
v -3 2 7
v -1 2 7
v 1 2 7
v 3 2 7
v 5 2 7
v 11 2 7
v -20 2 -6
v -18 2 -6
v -19 2 -7
v -18 2 -7
v -20 2 -11
v -19 2 -11
v -19 1 -14
v 20 1 -14
v -19 1 -15
v 20 1 -15
v -20 2 -12
v -19 2 -12
v -20 2 -15
v -19 2 -15
v -20 3 -6
v -18 3 -6
v -19 3 -7
v -18 3 -7
v -20 3 -12
v -19 3 -12
v -9 4 9
v -7 4 9
v -5 4 9
v -3 4 9
v -1 4 9
v 1 4 9
v 3 4 9
v 5 4 9
v -11 4 8
v -9 4 8
v -7 4 8
v -5 4 8
v -3 4 8
v -1 4 8
v 1 4 8
v 3 4 8
v 5 4 8
v 11 4 8
v -11 4 7
v -9 4 7
v -7 4 7
v -5 4 7
v -3 4 7
v -1 4 7
v 1 4 7
v 3 4 7
v 5 4 7
v 11 4 7
v -18 4 -5
v -15 4 -5
v -18 4 -8
v -15 4 -8
v -15 6 7
v 15 6 7
v -7 6 5
v 13 6 5
v -5 6 3
v 11 6 3
v -9 6 2
v -7 6 2
v -5 6 2
v 11 6 2
v -11 6 1
v -9 6 1
v -3 6 1
v 9 6 1
v -10 6 -0
v -9 6 -0
v -7 6 -0
v -5 6 -0
v -3 6 -0
v -1 6 -0
v 0 6 -0
v 6 6 -0
v 7 6 -0
v 9 6 -0
v 11 6 -0
v -2 6 -1
v -1 6 -1
v 0 6 -1
v 1 6 -1
v 5 6 -1
v 6 6 -1
v 7 6 -1
v 8 6 -1
v -2 6 -2
v -1 6 -2
v 0 6 -2
v 1 6 -2
v 5 6 -2
v 6 6 -2
v 7 6 -2
v 8 6 -2
v -1 6 -3
v 0 6 -3
v 6 6 -3
v 7 6 -3
v -3 6 -4
v 9 6 -4
v -5 6 -5
v 11 6 -5
v -10 6 -7
v -9 6 -7
v -7 6 -7
v -6 6 -7
v 13 6 -7
v -11 6 -8
v -6 6 -8
v -15 6 -10
v 15 6 -10

# faces
f 4/4/1 2/4/1 1/4/1
f 6/4/1 4/4/1 3/4/1
f 7/4/1 4/4/1 6/4/1
f 8/4/1 2/4/1 4/4/1
f 8/4/1 4/4/1 7/4/1
f 9/4/1 7/4/1 6/4/1
f 9/4/1 6/4/1 5/4/1
f 10/4/1 7/4/1 9/4/1
f 13/4/1 12/4/1 11/4/1
f 14/4/1 12/4/1 13/4/1
f 15/4/1 13/4/1 11/4/1
f 16/4/1 12/4/1 14/4/1
f 17/4/1 15/4/1 11/4/1
f 17/4/1 16/4/1 15/4/1
f 18/4/1 12/4/1 16/4/1
f 18/4/1 16/4/1 17/4/1
f 21/3/1 20/3/1 19/3/1
f 22/3/1 20/3/1 21/3/1
f 23/3/1 21/3/1 19/3/1
f 24/3/1 20/3/1 22/3/1
f 25/3/1 23/3/1 19/3/1
f 25/3/1 24/3/1 23/3/1
f 26/3/1 20/3/1 24/3/1
f 26/3/1 24/3/1 25/3/1
f 29/4/1 28/4/1 27/4/1
f 30/4/1 28/4/1 29/4/1
f 33/2/1 32/2/1 31/2/1
f 34/2/1 32/2/1 33/2/1
f 37/2/1 36/2/1 35/2/1
f 38/2/1 36/2/1 37/2/1
f 41/2/1 40/2/1 39/2/1
f 42/2/1 40/2/1 41/2/1
f 45/2/1 44/2/1 43/2/1
f 46/2/1 44/2/1 45/2/1
f 47/4/2 48/4/2 51/4/2
f 48/4/2 49/4/2 51/4/2
f 51/4/2 49/4/2 52/4/2
f 52/4/2 49/4/2 53/4/2
f 50/4/2 51/4/2 54/4/2
f 51/4/2 52/4/2 54/4/2
f 54/4/2 52/4/2 55/4/2
f 56/2/2 57/2/2 58/2/2
f 58/2/2 57/2/2 59/2/2
f 60/2/2 61/2/2 62/2/2
f 62/2/2 61/2/2 63/2/2
f 64/2/2 65/2/2 66/2/2
f 66/2/2 65/2/2 67/2/2
f 68/2/2 69/2/2 70/2/2
f 70/2/2 69/2/2 71/2/2
f 72/4/2 73/4/2 74/4/2
f 74/4/2 73/4/2 75/4/2
f 76/3/2 77/3/2 78/3/2
f 78/3/2 77/3/2 79/3/2
f 80/4/2 81/4/2 82/4/2
f 82/4/2 81/4/2 83/4/2
f 86/2/3 85/2/3 84/2/3
f 87/2/3 85/2/3 86/2/3
f 90/2/3 89/2/3 88/2/3
f 91/2/3 89/2/3 90/2/3
f 94/2/3 93/2/3 92/2/3
f 95/2/3 93/2/3 94/2/3
f 98/2/3 97/2/3 96/2/3
f 99/2/3 97/2/3 98/2/3
f 102/4/3 101/4/3 100/4/3
f 103/4/3 101/4/3 102/4/3
f 106/4/3 105/4/3 104/4/3
f 107/4/3 105/4/3 106/4/3
f 110/4/3 109/4/3 108/4/3
f 111/4/3 109/4/3 110/4/3
f 114/4/3 113/4/3 112/4/3
f 115/4/3 113/4/3 114/4/3
f 118/4/3 117/4/3 116/4/3
f 119/4/3 117/4/3 118/4/3
f 122/3/3 121/3/3 120/3/3
f 123/3/3 121/3/3 122/3/3
f 124/2/3 123/2/3 122/2/3
f 125/2/3 123/2/3 124/2/3
f 126/2/3 124/2/3 122/2/3
f 126/4/3 125/4/3 124/4/3
f 127/2/3 123/2/3 125/2/3
f 127/4/3 125/4/3 126/4/3
f 128/2/3 126/2/3 122/2/3
f 129/2/3 123/2/3 127/2/3
f 130/2/3 128/2/3 122/2/3
f 131/2/3 123/2/3 129/2/3
f 132/2/3 130/2/3 122/2/3
f 133/2/3 123/2/3 131/2/3
f 134/2/3 132/2/3 122/2/3
f 135/2/3 123/2/3 133/2/3
f 136/2/3 134/2/3 122/2/3
f 137/2/3 123/2/3 135/2/3
f 138/2/3 136/2/3 122/2/3
f 139/2/3 123/2/3 137/2/3
f 140/2/3 138/2/3 122/2/3
f 141/2/3 123/2/3 139/2/3
f 142/2/3 140/2/3 122/2/3
f 143/2/3 123/2/3 141/2/3
f 144/2/3 142/2/3 122/2/3
f 145/2/3 123/2/3 143/2/3
f 146/2/3 144/2/3 122/2/3
f 146/4/3 145/4/3 144/4/3
f 147/2/3 123/2/3 145/2/3
f 147/4/3 145/4/3 146/4/3
f 148/3/3 122/3/3 120/3/3
f 148/2/3 146/2/3 122/2/3
f 148/2/3 147/2/3 146/2/3
f 149/2/3 123/2/3 147/2/3
f 149/2/3 147/2/3 148/2/3
f 149/3/3 121/3/3 123/3/3
f 150/3/3 148/3/3 120/3/3
f 150/3/3 149/3/3 148/3/3
f 151/3/3 121/3/3 149/3/3
f 151/3/3 149/3/3 150/3/3
f 154/4/3 153/4/3 152/4/3
f 155/4/3 153/4/3 154/4/3
f 158/4/3 157/4/3 156/4/3
f 159/4/3 157/4/3 158/4/3
f 162/4/3 161/4/3 160/4/3
f 163/4/3 161/4/3 162/4/3
f 166/4/3 165/4/3 164/4/3
f 167/4/3 166/4/3 164/4/3
f 168/4/3 166/4/3 167/4/3
f 169/4/4 170/4/4 171/4/4
f 171/4/4 170/4/4 172/4/4
f 173/4/4 174/4/4 175/4/4
f 175/4/4 174/4/4 176/4/4
f 177/3/4 178/3/4 179/3/4
f 179/3/4 178/3/4 180/3/4
f 181/4/4 182/4/4 183/4/4
f 183/4/4 182/4/4 184/4/4
f 185/4/4 186/4/4 187/4/4
f 187/4/4 186/4/4 188/4/4
f 185/4/4 187/4/4 189/4/4
f 189/4/4 187/4/4 190/4/4
f 193/3/5 192/3/5 191/3/5
f 194/3/5 192/3/5 193/3/5
f 197/4/5 196/4/5 195/4/5
f 198/4/5 196/4/5 197/4/5
f 201/4/5 200/4/5 199/4/5
f 202/4/5 200/4/5 201/4/5
f 205/4/5 204/4/5 203/4/5
f 206/4/5 204/4/5 205/4/5
f 216/2/5 208/2/5 207/2/5
f 217/2/5 208/2/5 216/2/5
f 218/2/5 210/2/5 209/2/5
f 219/2/5 210/2/5 218/2/5
f 220/2/5 212/2/5 211/2/5
f 221/2/5 212/2/5 220/2/5
f 222/2/5 214/2/5 213/2/5
f 223/2/5 214/2/5 222/2/5
f 225/4/5 216/4/5 215/4/5
f 226/2/5 217/2/5 216/2/5
f 226/4/5 216/4/5 225/4/5
f 227/4/5 218/4/5 217/4/5
f 227/2/5 217/2/5 226/2/5
f 228/2/5 219/2/5 218/2/5
f 228/4/5 218/4/5 227/4/5
f 229/4/5 220/4/5 219/4/5
f 229/2/5 219/2/5 228/2/5
f 230/2/5 221/2/5 220/2/5
f 230/4/5 220/4/5 229/4/5
f 231/4/5 222/4/5 221/4/5
f 231/2/5 221/2/5 230/2/5
f 232/2/5 223/2/5 222/2/5
f 232/4/5 222/4/5 231/4/5
f 233/4/5 224/4/5 223/4/5
f 233/2/5 223/2/5 232/2/5
f 234/4/5 224/4/5 233/4/5
f 237/4/5 236/4/5 235/4/5
f 238/4/5 236/4/5 237/4/5
f 239/4/5 237/4/5 235/4/5
f 240/4/5 237/4/5 239/4/5
f 241/4/6 242/4/6 243/4/6
f 243/4/6 242/4/6 244/4/6
f 245/4/6 246/4/6 247/4/6
f 247/4/6 246/4/6 248/4/6
f 249/4/6 250/4/6 251/4/6
f 251/4/6 250/4/6 252/4/6
f 249/4/6 251/4/6 253/4/6
f 253/4/6 251/4/6 254/4/6
f 255/2/6 256/2/6 264/2/6
f 264/2/6 256/2/6 265/2/6
f 257/2/6 258/2/6 266/2/6
f 266/2/6 258/2/6 267/2/6
f 259/2/6 260/2/6 268/2/6
f 268/2/6 260/2/6 269/2/6
f 261/2/6 262/2/6 270/2/6
f 270/2/6 262/2/6 271/2/6
f 263/4/6 264/4/6 273/4/6
f 264/2/6 265/2/6 274/2/6
f 273/4/6 264/4/6 274/4/6
f 265/4/6 266/4/6 275/4/6
f 274/2/6 265/2/6 275/2/6
f 266/2/6 267/2/6 276/2/6
f 275/4/6 266/4/6 276/4/6
f 267/4/6 268/4/6 277/4/6
f 276/2/6 267/2/6 277/2/6
f 268/2/6 269/2/6 278/2/6
f 277/4/6 268/4/6 278/4/6
f 269/4/6 270/4/6 279/4/6
f 278/2/6 269/2/6 279/2/6
f 270/2/6 271/2/6 280/2/6
f 279/4/6 270/4/6 280/4/6
f 271/4/6 272/4/6 281/4/6
f 280/2/6 271/2/6 281/2/6
f 281/4/6 272/4/6 282/4/6
f 283/4/6 284/4/6 285/4/6
f 285/4/6 284/4/6 286/4/6
f 287/3/6 288/3/6 289/3/6
f 289/3/6 288/3/6 290/3/6
f 289/4/6 290/4/6 291/4/6
f 291/4/6 290/4/6 292/4/6
f 287/3/6 289/3/6 293/3/6
f 289/4/6 291/4/6 294/4/6
f 293/3/6 289/3/6 294/3/6
f 291/2/6 292/2/6 295/2/6
f 294/4/6 291/4/6 295/4/6
f 292/4/6 290/4/6 296/4/6
f 295/2/6 292/2/6 296/2/6
f 287/3/6 293/3/6 297/3/6
f 294/4/6 295/4/6 298/4/6
f 297/3/6 293/3/6 298/3/6
f 293/4/6 294/4/6 298/4/6
f 295/7/6 296/7/6 299/7/6
f 299/7/6 296/7/6 300/7/6
f 297/4/6 298/4/6 301/4/6
f 298/4/6 295/4/6 302/4/6
f 301/4/6 298/4/6 302/4/6
f 302/4/6 295/4/6 303/4/6
f 295/7/6 299/7/6 304/7/6
f 303/4/6 295/4/6 304/4/6
f 299/4/6 300/4/6 305/4/6
f 304/7/6 299/7/6 305/7/6
f 305/4/6 300/4/6 306/4/6
f 306/4/6 300/4/6 307/4/6
f 307/4/6 300/4/6 308/4/6
f 308/4/6 300/4/6 309/4/6
f 300/7/6 296/7/6 310/7/6
f 309/4/6 300/4/6 310/4/6
f 296/4/6 290/4/6 311/4/6
f 310/7/6 296/7/6 311/7/6
f 305/4/6 306/4/6 312/4/6
f 306/5/6 307/5/6 313/5/6
f 312/4/6 306/4/6 313/4/6
f 307/4/6 308/4/6 314/4/6
f 313/5/6 307/5/6 314/5/6
f 314/4/6 308/4/6 315/4/6
f 315/4/6 308/4/6 316/4/6
f 308/5/6 309/5/6 317/5/6
f 316/4/6 308/4/6 317/4/6
f 309/4/6 310/4/6 318/4/6
f 317/5/6 309/5/6 318/5/6
f 318/4/6 310/4/6 319/4/6
f 305/4/6 312/4/6 320/4/6
f 312/5/6 313/5/6 320/5/6
f 313/4/6 314/4/6 321/4/6
f 320/5/6 313/5/6 321/5/6
f 314/5/6 315/5/6 322/5/6
f 321/4/6 314/4/6 322/4/6
f 315/4/6 316/4/6 323/4/6
f 322/5/6 315/5/6 323/5/6
f 316/5/6 317/5/6 324/5/6
f 323/4/6 316/4/6 324/4/6
f 317/4/6 318/4/6 325/4/6
f 324/5/6 317/5/6 325/5/6
f 318/5/6 319/5/6 326/5/6
f 325/4/6 318/4/6 326/4/6
f 319/4/6 310/4/6 327/4/6
f 326/5/6 319/5/6 327/5/6
f 321/5/6 322/5/6 328/5/6
f 320/4/6 321/4/6 328/4/6
f 322/4/6 323/4/6 329/4/6
f 328/5/6 322/5/6 329/5/6
f 324/4/6 325/4/6 329/4/6
f 323/4/6 324/4/6 329/4/6
f 325/5/6 326/5/6 330/5/6
f 329/4/6 325/4/6 330/4/6
f 326/4/6 327/4/6 331/4/6
f 330/5/6 326/5/6 331/5/6
f 320/4/6 328/4/6 332/4/6
f 304/1/6 305/1/6 332/1/6
f 330/4/6 331/4/6 332/4/6
f 305/4/6 320/4/6 332/4/6
f 328/4/6 329/4/6 332/4/6
f 329/4/6 330/4/6 332/4/6
f 331/4/6 327/4/6 333/4/6
f 332/4/6 331/4/6 333/4/6
f 327/4/6 310/4/6 333/4/6
f 310/1/6 311/1/6 333/1/6
f 304/1/6 332/1/6 334/1/6
f 303/4/6 304/4/6 334/4/6
f 332/1/6 333/1/6 334/1/6
f 333/1/6 311/1/6 335/1/6
f 334/1/6 333/1/6 335/1/6
f 311/4/6 290/4/6 335/4/6
f 297/4/6 301/4/6 336/4/6
f 301/5/6 302/5/6 336/5/6
f 302/6/6 303/6/6 337/6/6
f 336/5/6 302/5/6 337/5/6
f 303/4/6 334/4/6 338/4/6
f 337/6/6 303/6/6 338/6/6
f 334/4/6 335/4/6 338/4/6
f 338/4/6 335/4/6 339/4/6
f 290/3/6 288/3/6 340/3/6
f 339/4/6 335/4/6 340/4/6
f 335/4/6 290/4/6 340/4/6
f 287/3/6 297/3/6 341/3/6
f 338/4/6 339/4/6 341/4/6
f 336/4/6 337/4/6 341/4/6
f 297/4/6 336/4/6 341/4/6
f 337/4/6 338/4/6 341/4/6
f 339/3/6 340/3/6 342/3/6
f 341/4/6 339/4/6 342/4/6
f 287/3/6 341/3/6 343/3/6
f 341/3/6 342/3/6 343/3/6
f 340/3/6 288/3/6 344/3/6
f 343/3/6 342/3/6 344/3/6
f 342/3/6 340/3/6 344/3/6
