# MagicaVoxel @ Ephtracy

# group
g BackWalk1

# material
mtllib BackWalk1.mtl
usemtl palette

# normals
vn -1 0 0
vn 1 0 0
vn 0 0 1
vn 0 0 -1
vn 0 -1 0
vn 0 1 0

# texcoords
vt 0.00195313 0.5
vt 0.0332031 0.5
vt 0.0371094 0.5
vt 0.0605469 0.5
vt 0.166016 0.5
vt 0.205078 0.5
vt 0.634766 0.5
vt 0.638672 0.5
vt 0.798828 0.5
vt 0.802734 0.5
vt 0.974609 0.5
vt 0.978516 0.5
vt 0.982422 0.5
vt 0.990234 0.5
vt 0.994141 0.5

# verts
v -5 10 0.5
v -5 10 -0.5
v -5 11 0.5
v -5 11 -0.5
v -4 8 2.5
v -4 8 1.5
v -4 8 0.5
v -4 8 -0.5
v -4 9 1.5
v -4 9 0.5
v -4 9 -0.5
v -4 10 2.5
v -4 10 1.5
v -4 10 0.5
v -4 10 -0.5
v -4 10 -1.5
v -4 11 1.5
v -4 11 0.5
v -4 11 -0.5
v -4 11 -1.5
v -4 12 0.5
v -4 12 -0.5
v -3 2 1.5
v -3 2 0.5
v -3 3 1.5
v -3 3 0.5
v -3 4 1.5
v -3 4 0.5
v -3 5 2.5
v -3 5 1.5
v -3 5 0.5
v -3 6 2.5
v -3 6 1.5
v -3 6 0.5
v -3 7 2.5
v -3 7 -0.5
v -3 8 2.5
v -3 8 1.5
v -3 8 0.5
v -3 8 -0.5
v -3 8 -1.5
v -3 9 1.5
v -3 9 0.5
v -3 9 -0.5
v -3 9 -1.5
v -3 9 -2.5
v -3 10 2.5
v -3 10 1.5
v -3 10 -0.5
v -3 10 -1.5
v -3 11 1.5
v -3 11 0.5
v -3 11 -0.5
v -3 11 -1.5
v -3 11 -2.5
v -3 12 2.5
v -3 12 1.5
v -3 12 0.5
v -3 12 -0.5
v -3 12 -1.5
v -3 13 1.5
v -3 13 -0.5
v -2 0 0.5
v -2 0 -0.5
v -2 1 1.5
v -2 1 0.5
v -2 1 -0.5
v -2 2 2.5
v -2 2 1.5
v -2 2 0.5
v -2 2 -0.5
v -2 3 1.5
v -2 3 0.5
v -2 4 2.5
v -2 4 1.5
v -2 4 0.5
v -2 5 2.5
v -2 5 1.5
v -2 5 0.5
v -2 6 2.5
v -2 6 1.5
v -2 6 0.5
v -2 7 3.5
v -2 7 2.5
v -2 7 0.5
v -2 7 -0.5
v -2 7 -1.5
v -2 8 -0.5
v -2 8 -1.5
v -2 10 -2.5
v -2 10 -3.5
v -2 11 -1.5
v -2 11 -2.5
v -2 11 -3.5
v -2 12 3.5
v -2 12 2.5
v -2 12 1.5
v -2 12 -0.5
v -2 12 -1.5
v -2 12 -2.5
v -2 13 2.5
v -2 13 1.5
v -2 13 -0.5
v -2 13 -1.5
v -2 14 1.5
v -2 14 -0.5
v -1 8 4.5
v -1 8 3.5
v -1 11 4.5
v -1 11 3.5
v 0 9 -1.5
v 0 9 -2.5
v 0 10 -1.5
v 0 10 -2.5
v 1 0 1.5
v 1 0 0.5
v 1 1 1.5
v 1 1 0.5
v 1 2 1.5
v 1 2 0.5
v 2 3 -0.5
v 2 3 -1.5
v 2 4 -0.5
v 2 4 -1.5
v 2 9 -1.5
v 2 9 -2.5
v 2 10 -1.5
v 2 10 -2.5
v -2 9 -1.5
v -2 9 -2.5
v -2 10 -1.5
v -2 10 -2.5
v -1 0 0.5
v -1 0 -0.5
v -1 1 1.5
v -1 1 0.5
v -1 1 -0.5
v -1 2 1.5
v -1 2 0.5
v 1 8 4.5
v 1 8 3.5
v 1 9 -1.5
v 1 9 -2.5
v 1 10 -1.5
v 1 10 -2.5
v 1 11 4.5
v 1 11 3.5
v 2 0 1.5
v 2 0 0.5
v 2 1 1.5
v 2 1 0.5
v 2 2 2.5
v 2 2 1.5
v 2 2 0.5
v 2 2 -0.5
v 2 3 1.5
v 2 3 0.5
v 2 3 -0.5
v 2 4 2.5
v 2 4 1.5
v 2 4 0.5
v 2 4 -0.5
v 2 5 2.5
v 2 5 1.5
v 2 5 0.5
v 2 6 2.5
v 2 6 1.5
v 2 6 0.5
v 2 6 -0.5
v 2 7 3.5
v 2 7 2.5
v 2 7 0.5
v 2 7 -0.5
v 2 7 -1.5
v 2 8 -0.5
v 2 8 -1.5
v 2 10 -2.5
v 2 10 -3.5
v 2 11 -1.5
v 2 11 -2.5
v 2 11 -3.5
v 2 12 3.5
v 2 12 2.5
v 2 12 1.5
v 2 12 -0.5
v 2 12 -1.5
v 2 12 -2.5
v 2 13 2.5
v 2 13 1.5
v 2 13 -0.5
v 2 13 -1.5
v 2 14 1.5
v 2 14 -0.5
v 3 3 0.5
v 3 3 -0.5
v 3 3 -1.5
v 3 4 1.5
v 3 4 0.5
v 3 4 -0.5
v 3 4 -1.5
v 3 5 2.5
v 3 5 1.5
v 3 5 0.5
v 3 6 2.5
v 3 6 1.5
v 3 6 0.5
v 3 7 2.5
v 3 7 -0.5
v 3 8 2.5
v 3 8 1.5
v 3 8 0.5
v 3 8 -0.5
v 3 8 -1.5
v 3 9 1.5
v 3 9 0.5
v 3 9 -0.5
v 3 9 -1.5
v 3 9 -2.5
v 3 10 2.5
v 3 10 1.5
v 3 10 -0.5
v 3 10 -1.5
v 3 11 -0.5
v 3 11 -1.5
v 3 11 -2.5
v 3 12 2.5
v 3 12 1.5
v 3 12 -0.5
v 3 12 -1.5
v 3 13 1.5
v 3 13 -0.5
v 4 8 2.5
v 4 8 1.5
v 4 8 0.5
v 4 8 -0.5
v 4 9 1.5
v 4 9 0.5
v 4 9 -0.5
v 4 10 2.5
v 4 10 1.5
v 4 10 0.5
v 4 10 -0.5
v 4 10 -1.5
v 4 11 0.5
v 4 11 -0.5
v 4 11 -1.5
v 4 12 1.5
v 4 12 -0.5
v 5 10 0.5
v 5 10 -0.5
v 5 11 0.5
v 5 11 -0.5
v -1 8 4.5
v -1 11 4.5
v 1 8 4.5
v 1 11 4.5
v -2 7 3.5
v -2 12 3.5
v -1 8 3.5
v -1 11 3.5
v 1 8 3.5
v 1 11 3.5
v 2 7 3.5
v 2 12 3.5
v -4 8 2.5
v -4 10 2.5
v -3 5 2.5
v -3 6 2.5
v -3 7 2.5
v -3 8 2.5
v -3 10 2.5
v -3 12 2.5
v -2 2 2.5
v -2 4 2.5
v -2 5 2.5
v -2 6 2.5
v -2 7 2.5
v -2 12 2.5
v -2 13 2.5
v -1 3 2.5
v -1 4 2.5
v 1 3 2.5
v 1 4 2.5
v 2 2 2.5
v 2 4 2.5
v 2 5 2.5
v 2 6 2.5
v 2 7 2.5
v 2 12 2.5
v 2 13 2.5
v 3 5 2.5
v 3 6 2.5
v 3 7 2.5
v 3 8 2.5
v 3 10 2.5
v 3 12 2.5
v 4 8 2.5
v 4 10 2.5
v -4 10 1.5
v -4 11 1.5
v -3 2 1.5
v -3 3 1.5
v -3 4 1.5
v -3 5 1.5
v -3 10 1.5
v -3 11 1.5
v -3 12 1.5
v -3 13 1.5
v -2 1 1.5
v -2 2 1.5
v -2 3 1.5
v -2 4 1.5
v -2 5 1.5
v -2 12 1.5
v -2 13 1.5
v -2 14 1.5
v -1 1 1.5
v -1 2 1.5
v 1 0 1.5
v 1 1 1.5
v 1 2 1.5
v 2 0 1.5
v 2 1 1.5
v 2 2 1.5
v 2 4 1.5
v 2 5 1.5
v 2 12 1.5
v 2 13 1.5
v 2 14 1.5
v 3 4 1.5
v 3 5 1.5
v 3 10 1.5
v 3 12 1.5
v 3 13 1.5
v 4 10 1.5
v 4 12 1.5
v -5 10 0.5
v -5 11 0.5
v -4 8 0.5
v -4 9 0.5
v -4 10 0.5
v -4 11 0.5
v -4 12 0.5
v -3 8 0.5
v -3 9 0.5
v -3 11 0.5
v -3 12 0.5
v -2 0 0.5
v -2 1 0.5
v -1 0 0.5
v -1 1 0.5
v 2 3 0.5
v 2 4 0.5
v 3 3 0.5
v 3 4 0.5
v 3 8 0.5
v 3 9 0.5
v 4 8 0.5
v 4 9 0.5
v 4 10 0.5
v 4 11 0.5
v 5 10 0.5
v 5 11 0.5
v -4 8 1.5
v -4 9 1.5
v -3 8 1.5
v -3 9 1.5
v 3 8 1.5
v 3 9 1.5
v 4 8 1.5
v 4 9 1.5
v -3 2 0.5
v -3 3 0.5
v -3 4 0.5
v -3 5 0.5
v -3 6 0.5
v -2 1 0.5
v -2 2 0.5
v -2 3 0.5
v -2 4 0.5
v -2 5 0.5
v -2 6 0.5
v -1 1 0.5
v -1 2 0.5
v 1 0 0.5
v 1 1 0.5
v 1 2 0.5
v 2 0 0.5
v 2 1 0.5
v 2 2 0.5
v 2 4 0.5
v 2 5 0.5
v 2 6 0.5
v 3 4 0.5
v 3 5 0.5
v 3 6 0.5
v -5 10 -0.5
v -5 11 -0.5
v -4 8 -0.5
v -4 9 -0.5
v -4 10 -0.5
v -4 11 -0.5
v -4 12 -0.5
v -3 7 -0.5
v -3 8 -0.5
v -3 9 -0.5
v -3 10 -0.5
v -3 11 -0.5
v -3 12 -0.5
v -3 13 -0.5
v -2 0 -0.5
v -2 1 -0.5
v -2 2 -0.5
v -2 7 -0.5
v -2 8 -0.5
v -2 12 -0.5
v -2 13 -0.5
v -2 14 -0.5
v -1 0 -0.5
v -1 1 -0.5
v -1 4 -0.5
v -1 5 -0.5
v -1 7 -0.5
v 0 3 -0.5
v 0 4 -0.5
v 0 7 -0.5
v 1 4 -0.5
v 1 5 -0.5
v 1 6 -0.5
v 1 7 -0.5
v 2 2 -0.5
v 2 3 -0.5
v 2 4 -0.5
v 2 6 -0.5
v 2 7 -0.5
v 2 8 -0.5
v 2 12 -0.5
v 2 13 -0.5
v 2 14 -0.5
v 3 7 -0.5
v 3 8 -0.5
v 3 9 -0.5
v 3 10 -0.5
v 3 11 -0.5
v 3 12 -0.5
v 3 13 -0.5
v 4 8 -0.5
v 4 9 -0.5
v 4 10 -0.5
v 4 11 -0.5
v 4 12 -0.5
v 5 10 -0.5
v 5 11 -0.5
v -4 10 -1.5
v -4 11 -1.5
v -3 8 -1.5
v -3 9 -1.5
v -3 10 -1.5
v -3 11 -1.5
v -3 12 -1.5
v -2 7 -1.5
v -2 8 -1.5
v -2 9 -1.5
v -2 10 -1.5
v -2 11 -1.5
v -2 12 -1.5
v -2 13 -1.5
v -1 8 -1.5
v -1 9 -1.5
v -1 10 -1.5
v 0 7 -1.5
v 0 8 -1.5
v 0 9 -1.5
v 0 10 -1.5
v 1 8 -1.5
v 1 9 -1.5
v 1 10 -1.5
v 2 3 -1.5
v 2 4 -1.5
v 2 7 -1.5
v 2 8 -1.5
v 2 9 -1.5
v 2 10 -1.5
v 2 11 -1.5
v 2 12 -1.5
v 2 13 -1.5
v 3 3 -1.5
v 3 4 -1.5
v 3 8 -1.5
v 3 9 -1.5
v 3 10 -1.5
v 3 11 -1.5
v 3 12 -1.5
v 4 10 -1.5
v 4 11 -1.5
v -3 9 -2.5
v -3 11 -2.5
v -2 9 -2.5
v -2 10 -2.5
v -2 11 -2.5
v -2 12 -2.5
v 0 9 -2.5
v 0 10 -2.5
v 1 9 -2.5
v 1 10 -2.5
v 2 9 -2.5
v 2 10 -2.5
v 2 11 -2.5
v 2 12 -2.5
v 3 9 -2.5
v 3 11 -2.5
v -2 10 -3.5
v -2 11 -3.5
v 2 10 -3.5
v 2 11 -3.5
v 1 0 1.5
v 2 0 1.5
v -2 0 0.5
v -1 0 0.5
v 1 0 0.5
v 2 0 0.5
v -2 0 -0.5
v -1 0 -0.5
v -2 1 1.5
v -1 1 1.5
v -2 1 0.5
v -1 1 0.5
v -2 2 2.5
v 2 2 2.5
v -3 2 1.5
v -2 2 1.5
v -1 2 1.5
v 1 2 1.5
v 2 2 1.5
v -3 2 0.5
v -2 2 0.5
v -1 2 0.5
v 1 2 0.5
v 2 2 0.5
v -2 2 -0.5
v 2 2 -0.5
v 2 3 0.5
v 3 3 0.5
v 2 3 -0.5
v 3 3 -0.5
v 2 3 -1.5
v 3 3 -1.5
v 2 4 1.5
v 3 4 1.5
v 2 4 0.5
v 3 4 0.5
v -3 5 2.5
v -2 5 2.5
v 2 5 2.5
v 3 5 2.5
v -3 5 1.5
v -2 5 1.5
v 2 5 1.5
v 3 5 1.5
v -2 7 3.5
v 2 7 3.5
v -3 7 2.5
v -2 7 2.5
v 2 7 2.5
v 3 7 2.5
v -2 7 0.5
v 2 7 0.5
v -3 7 -0.5
v -2 7 -0.5
v -1 7 -0.5
v 0 7 -0.5
v 1 7 -0.5
v 2 7 -0.5
v 3 7 -0.5
v -2 7 -1.5
v 0 7 -1.5
v 2 7 -1.5
v -1 8 4.5
v 1 8 4.5
v -1 8 3.5
v 1 8 3.5
v -4 8 2.5
v -3 8 2.5
v 3 8 2.5
v 4 8 2.5
v -4 8 1.5
v -3 8 1.5
v 3 8 1.5
v 4 8 1.5
v -4 8 0.5
v -3 8 0.5
v 3 8 0.5
v 4 8 0.5
v -4 8 -0.5
v -3 8 -0.5
v -2 8 -0.5
v 2 8 -0.5
v 3 8 -0.5
v 4 8 -0.5
v -3 8 -1.5
v -2 8 -1.5
v 2 8 -1.5
v 3 8 -1.5
v -4 9 1.5
v -3 9 1.5
v 3 9 1.5
v 4 9 1.5
v -4 9 0.5
v -3 9 0.5
v 3 9 0.5
v 4 9 0.5
v -3 9 -1.5
v -2 9 -1.5
v 0 9 -1.5
v 1 9 -1.5
v 2 9 -1.5
v 3 9 -1.5
v -3 9 -2.5
v -2 9 -2.5
v 0 9 -2.5
v 1 9 -2.5
v 2 9 -2.5
v 3 9 -2.5
v -5 10 0.5
v -4 10 0.5
v 4 10 0.5
v 5 10 0.5
v -5 10 -0.5
v -4 10 -0.5
v -3 10 -0.5
v 3 10 -0.5
v 4 10 -0.5
v 5 10 -0.5
v -4 10 -1.5
v -3 10 -1.5
v -2 10 -1.5
v -1 10 -1.5
v 0 10 -1.5
v 1 10 -1.5
v 2 10 -1.5
v 3 10 -1.5
v 4 10 -1.5
v -2 10 -2.5
v -1 10 -2.5
v 0 10 -2.5
v 1 10 -2.5
v 2 10 -2.5
v -2 10 -3.5
v 2 10 -3.5
v -2 1 0.5
v -1 1 0.5
v -2 1 -0.5
v -1 1 -0.5
v 2 4 0.5
v 3 4 0.5
v 2 4 -0.5
v 3 4 -0.5
v 2 4 -1.5
v 3 4 -1.5
v -3 6 2.5
v -2 6 2.5
v 2 6 2.5
v 3 6 2.5
v -3 6 1.5
v -2 6 1.5
v 2 6 1.5
v 3 6 1.5
v -3 6 0.5
v -2 6 0.5
v 2 6 0.5
v 3 6 0.5
v -4 10 2.5
v -3 10 2.5
v 3 10 2.5
v 4 10 2.5
v -4 10 1.5
v -3 10 1.5
v 3 10 1.5
v 4 10 1.5
v -1 11 4.5
v 1 11 4.5
v -1 11 3.5
v 1 11 3.5
v -4 11 1.5
v -3 11 1.5
v -5 11 0.5
v -4 11 0.5
v -3 11 0.5
v 4 11 0.5
v 5 11 0.5
v -5 11 -0.5
v -4 11 -0.5
v -3 11 -0.5
v 3 11 -0.5
v 4 11 -0.5
v 5 11 -0.5
v -4 11 -1.5
v -3 11 -1.5
v -2 11 -1.5
v 2 11 -1.5
v 3 11 -1.5
v 4 11 -1.5
v -3 11 -2.5
v -2 11 -2.5
v 2 11 -2.5
v 3 11 -2.5
v -2 11 -3.5
v 2 11 -3.5
v -2 12 3.5
v 2 12 3.5
v -3 12 2.5
v -2 12 2.5
v 2 12 2.5
v 3 12 2.5
v -3 12 1.5
v -2 12 1.5
v 2 12 1.5
v 3 12 1.5
v 4 12 1.5
v -4 12 0.5
v -3 12 0.5
v -4 12 -0.5
v -3 12 -0.5
v -2 12 -0.5
v 2 12 -0.5
v 3 12 -0.5
v 4 12 -0.5
v -3 12 -1.5
v -2 12 -1.5
v 2 12 -1.5
v 3 12 -1.5
v -2 12 -2.5
v 2 12 -2.5
v -2 13 2.5
v 2 13 2.5
v -3 13 1.5
v -2 13 1.5
v 2 13 1.5
v 3 13 1.5
v -3 13 -0.5
v -2 13 -0.5
v 2 13 -0.5
v 3 13 -0.5
v -2 13 -1.5
v 2 13 -1.5
v -2 14 1.5
v 2 14 1.5
v -2 14 -0.5
v 2 14 -0.5

# faces
f 3/6/1 2/6/1 1/6/1
f 4/6/1 2/6/1 3/6/1
f 9/6/1 6/6/1 5/6/1
f 10/4/1 8/4/1 7/4/1
f 11/4/1 8/4/1 10/4/1
f 12/6/1 9/6/1 5/6/1
f 12/6/1 10/6/1 9/6/1
f 12/6/1 11/6/1 10/6/1
f 13/6/1 11/6/1 12/6/1
f 14/6/1 11/6/1 13/6/1
f 15/6/1 11/6/1 14/6/1
f 17/6/1 14/6/1 13/6/1
f 18/6/1 14/6/1 17/6/1
f 19/6/1 16/6/1 15/6/1
f 20/6/1 16/6/1 19/6/1
f 21/6/1 19/6/1 18/6/1
f 22/6/1 19/6/1 21/6/1
f 25/8/1 24/8/1 23/8/1
f 26/8/1 24/8/1 25/8/1
f 27/1/1 26/1/1 25/1/1
f 28/1/1 26/1/1 27/1/1
f 30/13/1 28/13/1 27/13/1
f 31/13/1 28/13/1 30/13/1
f 32/1/1 30/1/1 29/1/1
f 33/3/1 31/3/1 30/3/1
f 33/1/1 30/1/1 32/1/1
f 34/3/1 31/3/1 33/3/1
f 37/6/1 36/6/1 35/6/1
f 38/6/1 36/6/1 37/6/1
f 39/6/1 36/6/1 38/6/1
f 40/6/1 36/6/1 39/6/1
f 42/6/1 39/6/1 38/6/1
f 43/6/1 39/6/1 42/6/1
f 44/6/1 41/6/1 40/6/1
f 45/6/1 41/6/1 44/6/1
f 49/14/1 45/14/1 44/14/1
f 50/6/1 46/6/1 45/6/1
f 50/14/1 45/14/1 49/14/1
f 51/6/1 48/6/1 47/6/1
f 54/6/1 46/6/1 50/6/1
f 55/6/1 46/6/1 54/6/1
f 56/6/1 51/6/1 47/6/1
f 57/14/1 52/14/1 51/14/1
f 57/6/1 51/6/1 56/6/1
f 58/14/1 52/14/1 57/14/1
f 59/6/1 54/6/1 53/6/1
f 60/6/1 54/6/1 59/6/1
f 61/6/1 58/6/1 57/6/1
f 61/6/1 59/6/1 58/6/1
f 62/6/1 59/6/1 61/6/1
f 66/15/1 64/15/1 63/15/1
f 67/15/1 64/15/1 66/15/1
f 69/10/1 66/10/1 65/10/1
f 70/10/1 66/10/1 69/10/1
f 72/10/1 69/10/1 68/10/1
f 73/10/1 71/10/1 70/10/1
f 74/10/1 72/10/1 68/10/1
f 75/10/1 72/10/1 74/10/1
f 76/10/1 71/10/1 73/10/1
f 77/5/1 75/5/1 74/5/1
f 78/5/1 75/5/1 77/5/1
f 79/10/1 71/10/1 76/10/1
f 82/10/1 71/10/1 79/10/1
f 84/7/1 81/7/1 80/7/1
f 84/7/1 82/7/1 81/7/1
f 85/10/1 71/10/1 82/10/1
f 85/7/1 82/7/1 84/7/1
f 86/10/1 71/10/1 85/10/1
f 88/4/1 87/4/1 86/4/1
f 89/4/1 87/4/1 88/4/1
f 93/6/1 91/6/1 90/6/1
f 94/6/1 91/6/1 93/6/1
f 95/6/1 84/6/1 83/6/1
f 96/6/1 84/6/1 95/6/1
f 99/6/1 93/6/1 92/6/1
f 100/6/1 93/6/1 99/6/1
f 101/6/1 97/6/1 96/6/1
f 102/6/1 97/6/1 101/6/1
f 103/6/1 99/6/1 98/6/1
f 104/6/1 99/6/1 103/6/1
f 105/6/1 103/6/1 102/6/1
f 106/6/1 103/6/1 105/6/1
f 109/6/1 108/6/1 107/6/1
f 110/6/1 108/6/1 109/6/1
f 113/6/1 112/6/1 111/6/1
f 114/6/1 112/6/1 113/6/1
f 117/15/1 116/15/1 115/15/1
f 118/15/1 116/15/1 117/15/1
f 119/10/1 118/10/1 117/10/1
f 120/10/1 118/10/1 119/10/1
f 123/10/1 122/10/1 121/10/1
f 124/10/1 122/10/1 123/10/1
f 127/6/1 126/6/1 125/6/1
f 128/6/1 126/6/1 127/6/1
f 129/6/2 130/6/2 131/6/2
f 131/6/2 130/6/2 132/6/2
f 133/15/2 134/15/2 136/15/2
f 136/15/2 134/15/2 137/15/2
f 135/10/2 136/10/2 138/10/2
f 138/10/2 136/10/2 139/10/2
f 142/6/2 143/6/2 144/6/2
f 144/6/2 143/6/2 145/6/2
f 140/6/2 141/6/2 146/6/2
f 146/6/2 141/6/2 147/6/2
f 148/15/2 149/15/2 150/15/2
f 150/15/2 149/15/2 151/15/2
f 150/10/2 151/10/2 153/10/2
f 153/10/2 151/10/2 154/10/2
f 153/10/2 154/10/2 156/10/2
f 154/10/2 155/10/2 156/10/2
f 152/10/2 153/10/2 156/10/2
f 156/10/2 155/10/2 157/10/2
f 157/10/2 155/10/2 158/10/2
f 152/10/2 156/10/2 159/10/2
f 156/1/2 157/1/2 160/1/2
f 159/10/2 156/10/2 160/10/2
f 160/1/2 157/1/2 161/1/2
f 159/5/2 160/5/2 163/5/2
f 163/5/2 160/5/2 164/5/2
f 161/7/2 162/7/2 165/7/2
f 165/7/2 162/7/2 168/7/2
f 168/7/2 162/7/2 169/7/2
f 166/7/2 167/7/2 171/7/2
f 167/7/2 168/7/2 171/7/2
f 168/9/2 169/9/2 172/9/2
f 171/7/2 168/7/2 172/7/2
f 172/9/2 169/9/2 173/9/2
f 173/2/2 174/2/2 175/2/2
f 175/2/2 174/2/2 176/2/2
f 177/6/2 178/6/2 180/6/2
f 180/6/2 178/6/2 181/6/2
f 170/6/2 171/6/2 182/6/2
f 182/6/2 171/6/2 183/6/2
f 179/6/2 180/6/2 186/6/2
f 186/6/2 180/6/2 187/6/2
f 183/6/2 184/6/2 188/6/2
f 188/6/2 184/6/2 189/6/2
f 185/6/2 186/6/2 190/6/2
f 190/6/2 186/6/2 191/6/2
f 189/6/2 190/6/2 192/6/2
f 192/6/2 190/6/2 193/6/2
f 194/1/2 195/1/2 198/1/2
f 195/10/2 196/10/2 199/10/2
f 198/1/2 195/1/2 199/1/2
f 199/10/2 196/10/2 200/10/2
f 197/11/2 198/11/2 202/11/2
f 202/11/2 198/11/2 203/11/2
f 201/1/2 202/1/2 204/1/2
f 202/3/2 203/3/2 205/3/2
f 204/1/2 202/1/2 205/1/2
f 205/3/2 203/3/2 206/3/2
f 207/6/2 208/6/2 209/6/2
f 209/6/2 208/6/2 210/6/2
f 210/6/2 208/6/2 211/6/2
f 211/6/2 208/6/2 212/6/2
f 210/6/2 211/6/2 214/6/2
f 214/6/2 211/6/2 215/6/2
f 212/6/2 213/6/2 216/6/2
f 216/6/2 213/6/2 217/6/2
f 216/6/2 217/6/2 221/6/2
f 217/6/2 218/6/2 221/6/2
f 221/6/2 218/6/2 222/6/2
f 222/6/2 218/6/2 224/6/2
f 224/6/2 218/6/2 225/6/2
f 219/6/2 220/6/2 226/6/2
f 226/6/2 220/6/2 227/6/2
f 223/6/2 224/6/2 228/6/2
f 228/6/2 224/6/2 229/6/2
f 227/6/2 228/6/2 230/6/2
f 230/6/2 228/6/2 231/6/2
f 232/6/2 233/6/2 236/6/2
f 234/4/2 235/4/2 237/4/2
f 237/4/2 235/4/2 238/4/2
f 232/6/2 236/6/2 239/6/2
f 236/6/2 237/6/2 239/6/2
f 237/6/2 238/6/2 239/6/2
f 239/6/2 238/6/2 240/6/2
f 240/6/2 238/6/2 241/6/2
f 241/6/2 238/6/2 242/6/2
f 240/6/2 241/6/2 244/6/2
f 242/6/2 243/6/2 245/6/2
f 245/6/2 243/6/2 246/6/2
f 240/6/2 244/6/2 247/6/2
f 244/6/2 245/6/2 247/6/2
f 247/6/2 245/6/2 248/6/2
f 249/6/2 250/6/2 251/6/2
f 251/6/2 250/6/2 252/6/2
f 255/6/3 254/6/3 253/6/3
f 256/6/3 254/6/3 255/6/3
f 259/6/3 258/6/3 257/6/3
f 260/6/3 258/6/3 259/6/3
f 261/6/3 259/6/3 257/6/3
f 262/6/3 258/6/3 260/6/3
f 263/6/3 261/6/3 257/6/3
f 263/6/3 262/6/3 261/6/3
f 264/6/3 258/6/3 262/6/3
f 264/6/3 262/6/3 263/6/3
f 270/6/3 266/6/3 265/6/3
f 271/6/3 266/6/3 270/6/3
f 275/1/3 268/1/3 267/1/3
f 276/1/3 268/1/3 275/1/3
f 277/6/3 270/6/3 269/6/3
f 277/6/3 271/6/3 270/6/3
f 277/6/3 272/6/3 271/6/3
f 278/6/3 272/6/3 277/6/3
f 280/10/3 274/10/3 273/10/3
f 281/5/3 276/5/3 275/5/3
f 281/10/3 274/10/3 280/10/3
f 281/5/3 275/5/3 274/5/3
f 282/10/3 280/10/3 273/10/3
f 282/12/3 281/12/3 280/12/3
f 283/5/3 276/5/3 281/5/3
f 283/12/3 281/12/3 282/12/3
f 284/10/3 282/10/3 273/10/3
f 284/10/3 283/10/3 282/10/3
f 285/5/3 276/5/3 283/5/3
f 285/10/3 283/10/3 284/10/3
f 286/5/3 276/5/3 285/5/3
f 287/7/3 277/7/3 276/7/3
f 287/5/3 276/5/3 286/5/3
f 288/7/3 277/7/3 287/7/3
f 289/6/3 279/6/3 278/6/3
f 290/6/3 279/6/3 289/6/3
f 291/1/3 287/1/3 286/1/3
f 292/1/3 287/1/3 291/1/3
f 293/6/3 289/6/3 288/6/3
f 294/6/3 289/6/3 293/6/3
f 295/6/3 289/6/3 294/6/3
f 296/6/3 289/6/3 295/6/3
f 297/6/3 295/6/3 294/6/3
f 298/6/3 295/6/3 297/6/3
f 305/6/3 300/6/3 299/6/3
f 306/6/3 300/6/3 305/6/3
f 310/8/3 302/8/3 301/8/3
f 311/1/3 303/1/3 302/1/3
f 311/8/3 302/8/3 310/8/3
f 312/13/3 304/13/3 303/13/3
f 312/1/3 303/1/3 311/1/3
f 313/13/3 304/13/3 312/13/3
f 314/6/3 308/6/3 307/6/3
f 315/6/3 308/6/3 314/6/3
f 317/10/3 310/10/3 309/10/3
f 318/10/3 310/10/3 317/10/3
f 322/15/3 320/15/3 319/15/3
f 323/10/3 321/10/3 320/10/3
f 323/15/3 320/15/3 322/15/3
f 324/10/3 321/10/3 323/10/3
f 328/6/3 316/6/3 315/6/3
f 329/6/3 316/6/3 328/6/3
f 330/11/3 326/11/3 325/11/3
f 331/11/3 326/11/3 330/11/3
f 333/6/3 328/6/3 327/6/3
f 334/6/3 328/6/3 333/6/3
f 335/6/3 333/6/3 332/6/3
f 336/6/3 333/6/3 335/6/3
f 341/6/3 338/6/3 337/6/3
f 342/6/3 338/6/3 341/6/3
f 344/4/3 340/4/3 339/4/3
f 345/4/3 340/4/3 344/4/3
f 346/6/3 343/6/3 342/6/3
f 347/6/3 343/6/3 346/6/3
f 350/15/3 349/15/3 348/15/3
f 351/15/3 349/15/3 350/15/3
f 354/1/3 353/1/3 352/1/3
f 355/1/3 353/1/3 354/1/3
f 358/4/3 357/4/3 356/4/3
f 359/4/3 357/4/3 358/4/3
f 362/6/3 361/6/3 360/6/3
f 363/6/3 361/6/3 362/6/3
f 364/6/4 365/6/4 366/6/4
f 366/6/4 365/6/4 367/6/4
f 368/6/4 369/6/4 370/6/4
f 370/6/4 369/6/4 371/6/4
f 372/8/4 373/8/4 378/8/4
f 373/1/4 374/1/4 379/1/4
f 378/8/4 373/8/4 379/8/4
f 374/13/4 375/13/4 380/13/4
f 379/1/4 374/1/4 380/1/4
f 375/3/4 376/3/4 381/3/4
f 380/13/4 375/13/4 381/13/4
f 381/3/4 376/3/4 382/3/4
f 377/10/4 378/10/4 383/10/4
f 383/10/4 378/10/4 384/10/4
f 385/15/4 386/15/4 388/15/4
f 386/10/4 387/10/4 389/10/4
f 388/15/4 386/15/4 389/15/4
f 389/10/4 387/10/4 390/10/4
f 391/11/4 392/11/4 394/11/4
f 392/3/4 393/3/4 395/3/4
f 394/11/4 392/11/4 395/11/4
f 395/3/4 393/3/4 396/3/4
f 397/6/4 398/6/4 401/6/4
f 401/6/4 398/6/4 402/6/4
f 399/4/4 400/4/4 405/4/4
f 400/6/4 401/6/4 406/6/4
f 405/4/4 400/4/4 406/4/4
f 406/6/4 401/6/4 407/6/4
f 402/6/4 403/6/4 408/6/4
f 408/6/4 403/6/4 409/6/4
f 404/6/4 405/6/4 414/6/4
f 414/6/4 405/6/4 415/6/4
f 409/6/4 410/6/4 416/6/4
f 416/6/4 410/6/4 417/6/4
f 411/15/4 412/15/4 419/15/4
f 419/15/4 412/15/4 420/15/4
f 413/10/4 414/10/4 421/10/4
f 421/10/4 414/10/4 422/10/4
f 422/10/4 414/10/4 423/10/4
f 413/10/4 421/10/4 424/10/4
f 421/12/4 422/12/4 425/12/4
f 424/10/4 421/10/4 425/10/4
f 422/1/4 423/1/4 426/1/4
f 425/12/4 422/12/4 427/12/4
f 424/9/4 425/9/4 427/9/4
f 422/1/4 426/1/4 428/1/4
f 427/12/4 422/12/4 428/12/4
f 428/1/4 426/1/4 429/1/4
f 429/1/4 426/1/4 430/1/4
f 413/10/4 424/10/4 431/10/4
f 424/9/4 427/9/4 432/9/4
f 431/10/4 424/10/4 432/10/4
f 427/7/4 428/7/4 433/7/4
f 432/9/4 427/9/4 433/9/4
f 428/7/4 429/7/4 433/7/4
f 429/9/4 430/9/4 434/9/4
f 433/7/4 429/7/4 434/7/4
f 434/9/4 430/9/4 435/9/4
f 417/6/4 418/6/4 438/6/4
f 438/6/4 418/6/4 439/6/4
f 435/6/4 436/6/4 440/6/4
f 440/6/4 436/6/4 441/6/4
f 437/6/4 438/6/4 445/6/4
f 445/6/4 438/6/4 446/6/4
f 441/4/4 442/4/4 447/4/4
f 442/6/4 443/6/4 448/6/4
f 447/4/4 442/4/4 448/4/4
f 448/6/4 443/6/4 449/6/4
f 444/6/4 445/6/4 450/6/4
f 450/6/4 445/6/4 451/6/4
f 449/6/4 450/6/4 452/6/4
f 452/6/4 450/6/4 453/6/4
f 454/6/4 455/6/4 458/6/4
f 458/6/4 455/6/4 459/6/4
f 456/6/4 457/6/4 462/6/4
f 462/6/4 457/6/4 463/6/4
f 459/6/4 460/6/4 465/6/4
f 465/6/4 460/6/4 466/6/4
f 461/4/4 462/4/4 468/4/4
f 462/15/4 463/15/4 468/15/4
f 463/6/4 464/6/4 469/6/4
f 468/15/4 463/15/4 469/15/4
f 469/6/4 464/6/4 470/6/4
f 461/4/4 468/4/4 471/4/4
f 468/2/4 469/2/4 472/2/4
f 471/4/4 468/4/4 472/4/4
f 469/6/4 470/6/4 473/6/4
f 472/2/4 469/2/4 473/2/4
f 473/6/4 470/6/4 474/6/4
f 471/2/4 472/2/4 475/2/4
f 472/2/4 473/2/4 475/2/4
f 475/2/4 473/2/4 476/2/4
f 471/2/4 475/2/4 480/2/4
f 475/15/4 476/15/4 481/15/4
f 480/2/4 475/2/4 481/2/4
f 476/6/4 477/6/4 482/6/4
f 481/15/4 476/15/4 482/15/4
f 482/6/4 477/6/4 483/6/4
f 466/6/4 467/6/4 485/6/4
f 485/6/4 467/6/4 486/6/4
f 478/10/4 479/10/4 487/10/4
f 487/10/4 479/10/4 488/10/4
f 481/6/4 482/6/4 489/6/4
f 489/6/4 482/6/4 490/6/4
f 484/6/4 485/6/4 492/6/4
f 492/6/4 485/6/4 493/6/4
f 491/6/4 492/6/4 494/6/4
f 494/6/4 492/6/4 495/6/4
f 496/6/4 497/6/4 498/6/4
f 498/6/4 497/6/4 499/6/4
f 499/6/4 497/6/4 500/6/4
f 502/6/4 503/6/4 504/6/4
f 504/6/4 503/6/4 505/6/4
f 500/6/4 501/6/4 508/6/4
f 508/6/4 501/6/4 509/6/4
f 506/6/4 507/6/4 510/6/4
f 507/6/4 508/6/4 510/6/4
f 510/6/4 508/6/4 511/6/4
f 512/6/4 513/6/4 514/6/4
f 514/6/4 513/6/4 515/6/4
f 520/15/5 517/15/5 516/15/5
f 521/15/5 517/15/5 520/15/5
f 522/15/5 519/15/5 518/15/5
f 523/15/5 519/15/5 522/15/5
f 526/10/5 525/10/5 524/10/5
f 527/10/5 525/10/5 526/10/5
f 531/10/5 529/10/5 528/10/5
f 532/10/5 529/10/5 531/10/5
f 533/10/5 529/10/5 532/10/5
f 534/10/5 529/10/5 533/10/5
f 535/8/5 531/8/5 530/8/5
f 536/8/5 531/8/5 535/8/5
f 537/1/5 533/1/5 532/1/5
f 538/1/5 533/1/5 537/1/5
f 540/10/5 539/10/5 538/10/5
f 540/10/5 538/10/5 537/10/5
f 540/10/5 537/10/5 536/10/5
f 541/10/5 539/10/5 540/10/5
f 544/1/5 543/1/5 542/1/5
f 545/1/5 543/1/5 544/1/5
f 546/10/5 545/10/5 544/10/5
f 547/10/5 545/10/5 546/10/5
f 550/11/5 549/11/5 548/11/5
f 551/11/5 549/11/5 550/11/5
f 556/1/5 553/1/5 552/1/5
f 557/1/5 553/1/5 556/1/5
f 558/1/5 555/1/5 554/1/5
f 559/1/5 555/1/5 558/1/5
f 563/6/5 561/6/5 560/6/5
f 564/6/5 561/6/5 563/6/5
f 566/6/5 563/6/5 562/6/5
f 567/6/5 565/6/5 564/6/5
f 568/6/5 566/6/5 562/6/5
f 569/6/5 566/6/5 568/6/5
f 573/6/5 565/6/5 567/6/5
f 574/6/5 565/6/5 573/6/5
f 575/4/5 570/4/5 569/4/5
f 575/4/5 571/4/5 570/4/5
f 576/2/5 572/2/5 571/2/5
f 576/4/5 571/4/5 575/4/5
f 576/2/5 573/2/5 572/2/5
f 577/2/5 573/2/5 576/2/5
f 580/6/5 579/6/5 578/6/5
f 581/6/5 579/6/5 580/6/5
f 586/6/5 583/6/5 582/6/5
f 587/6/5 583/6/5 586/6/5
f 588/6/5 585/6/5 584/6/5
f 589/6/5 585/6/5 588/6/5
f 594/4/5 591/4/5 590/4/5
f 595/4/5 591/4/5 594/4/5
f 598/4/5 593/4/5 592/4/5
f 599/4/5 593/4/5 598/4/5
f 600/6/5 596/6/5 595/6/5
f 601/6/5 596/6/5 600/6/5
f 602/6/5 598/6/5 597/6/5
f 603/6/5 598/6/5 602/6/5
f 608/6/5 605/6/5 604/6/5
f 609/6/5 605/6/5 608/6/5
f 610/6/5 607/6/5 606/6/5
f 611/6/5 607/6/5 610/6/5
f 618/6/5 613/6/5 612/6/5
f 619/6/5 613/6/5 618/6/5
f 620/6/5 615/6/5 614/6/5
f 621/6/5 615/6/5 620/6/5
f 622/6/5 617/6/5 616/6/5
f 623/6/5 617/6/5 622/6/5
f 628/6/5 625/6/5 624/6/5
f 629/6/5 625/6/5 628/6/5
f 632/6/5 627/6/5 626/6/5
f 633/6/5 627/6/5 632/6/5
f 634/6/5 630/6/5 629/6/5
f 635/6/5 630/6/5 634/6/5
f 641/6/5 632/6/5 631/6/5
f 642/6/5 632/6/5 641/6/5
f 643/6/5 637/6/5 636/6/5
f 644/14/5 638/14/5 637/14/5
f 644/6/5 637/6/5 643/6/5
f 645/14/5 638/14/5 644/14/5
f 646/14/5 640/14/5 639/14/5
f 647/14/5 640/14/5 646/14/5
f 648/6/5 645/6/5 644/6/5
f 648/6/5 644/6/5 643/6/5
f 648/6/5 647/6/5 646/6/5
f 648/6/5 646/6/5 645/6/5
f 649/6/5 647/6/5 648/6/5
f 650/15/6 651/15/6 652/15/6
f 652/15/6 651/15/6 653/15/6
f 654/1/6 655/1/6 656/1/6
f 656/1/6 655/1/6 657/1/6
f 656/10/6 657/10/6 658/10/6
f 658/10/6 657/10/6 659/10/6
f 660/1/6 661/1/6 664/1/6
f 664/1/6 661/1/6 665/1/6
f 662/1/6 663/1/6 666/1/6
f 666/1/6 663/1/6 667/1/6
f 664/3/6 665/3/6 668/3/6
f 668/3/6 665/3/6 669/3/6
f 666/3/6 667/3/6 670/3/6
f 670/3/6 667/3/6 671/3/6
f 672/6/6 673/6/6 676/6/6
f 676/6/6 673/6/6 677/6/6
f 674/6/6 675/6/6 678/6/6
f 678/6/6 675/6/6 679/6/6
f 680/6/6 681/6/6 682/6/6
f 682/6/6 681/6/6 683/6/6
f 684/6/6 685/6/6 687/6/6
f 687/6/6 685/6/6 688/6/6
f 686/6/6 687/6/6 691/6/6
f 691/6/6 687/6/6 692/6/6
f 689/6/6 690/6/6 695/6/6
f 695/6/6 690/6/6 696/6/6
f 692/6/6 693/6/6 697/6/6
f 697/6/6 693/6/6 698/6/6
f 694/6/6 695/6/6 701/6/6
f 701/6/6 695/6/6 702/6/6
f 698/6/6 699/6/6 703/6/6
f 703/6/6 699/6/6 704/6/6
f 700/6/6 701/6/6 705/6/6
f 705/6/6 701/6/6 706/6/6
f 704/6/6 705/6/6 707/6/6
f 707/6/6 705/6/6 708/6/6
f 709/6/6 710/6/6 712/6/6
f 712/6/6 710/6/6 713/6/6
f 711/6/6 712/6/6 715/6/6
f 715/6/6 712/6/6 716/6/6
f 713/6/6 714/6/6 717/6/6
f 717/6/6 714/6/6 718/6/6
f 720/6/6 721/6/6 722/6/6
f 722/6/6 721/6/6 723/6/6
f 718/6/6 719/6/6 726/6/6
f 726/6/6 719/6/6 727/6/6
f 723/6/6 724/6/6 728/6/6
f 728/6/6 724/6/6 729/6/6
f 725/6/6 726/6/6 730/6/6
f 730/6/6 726/6/6 731/6/6
f 729/6/6 730/6/6 732/6/6
f 732/6/6 730/6/6 733/6/6
f 734/6/6 735/6/6 737/6/6
f 737/6/6 735/6/6 738/6/6
f 736/6/6 737/6/6 740/6/6
f 740/6/6 737/6/6 741/6/6
f 738/6/6 739/6/6 742/6/6
f 742/6/6 739/6/6 743/6/6
f 741/6/6 742/6/6 744/6/6
f 744/6/6 742/6/6 745/6/6
f 746/6/6 747/6/6 748/6/6
f 748/6/6 747/6/6 749/6/6
