# MagicaVoxel @ Ephtracy

# group
g GGJ2019_Hotel

# material
mtllib GGJ2019_Hotel.mtl
usemtl palette

# normals
vn -1 0 0
vn 1 0 0
vn 0 0 1
vn 0 0 -1
vn 0 -1 0
vn 0 1 0

# texcoords
vt 0.306641 0.5
vt 0.970703 0.5
vt 0.974609 0.5
vt 0.978516 0.5

# verts
v -16 0 13
v -16 0 -8
v -16 33 13
v -16 33 -8
v -14 10 14
v -14 10 13
v -14 11 14
v -14 11 13
v -14 18 14
v -14 18 13
v -14 19 14
v -14 19 13
v -14 26 14
v -14 26 13
v -14 27 14
v -14 27 13
v -11 11 13
v -11 11 12
v -11 15 13
v -11 15 12
v -11 19 13
v -11 19 12
v -11 23 13
v -11 23 12
v -11 27 13
v -11 27 12
v -11 31 13
v -11 31 12
v -8 2 13
v -8 2 12
v -8 6 13
v -8 6 12
v -7 11 13
v -7 11 12
v -7 15 13
v -7 15 12
v -7 19 13
v -7 19 12
v -7 23 13
v -7 23 12
v -7 27 13
v -7 27 12
v -7 31 13
v -7 31 12
v -6 33 8
v -6 33 -2
v -6 37 8
v -6 37 -2
v -4 10 14
v -4 10 13
v -4 11 14
v -4 11 13
v -4 18 14
v -4 18 13
v -4 19 14
v -4 19 13
v -4 26 14
v -4 26 13
v -4 27 14
v -4 27 13
v -1 11 13
v -1 11 12
v -1 15 13
v -1 15 12
v -1 19 13
v -1 19 12
v -1 23 13
v -1 23 12
v -1 27 13
v -1 27 12
v -1 31 13
v -1 31 12
v 2 33 8
v 2 33 3
v 2 36 8
v 2 36 3
v 3 11 13
v 3 11 12
v 3 15 13
v 3 15 12
v 3 19 13
v 3 19 12
v 3 23 13
v 3 23 12
v 3 27 13
v 3 27 12
v 3 31 13
v 3 31 12
v 6 0 13
v 6 0 12
v 6 6 13
v 6 6 12
v 6 10 14
v 6 10 13
v 6 11 14
v 6 11 13
v 6 18 14
v 6 18 13
v 6 19 14
v 6 19 13
v 6 26 14
v 6 26 13
v 6 27 14
v 6 27 13
v 9 11 13
v 9 11 12
v 9 15 13
v 9 15 12
v 9 19 13
v 9 19 12
v 9 23 13
v 9 23 12
v 9 27 13
v 9 27 12
v 9 31 13
v 9 31 12
v 13 2 13
v 13 2 12
v 13 6 13
v 13 6 12
v 13 11 13
v 13 11 12
v 13 15 13
v 13 15 12
v 13 19 13
v 13 19 12
v 13 23 13
v 13 23 12
v 13 27 13
v 13 27 12
v 13 31 13
v 13 31 12
v -14 2 13
v -14 2 12
v -14 6 13
v -14 6 12
v -14 11 13
v -14 11 12
v -14 15 13
v -14 15 12
v -14 19 13
v -14 19 12
v -14 23 13
v -14 23 12
v -14 27 13
v -14 27 12
v -14 31 13
v -14 31 12
v -10 11 13
v -10 11 12
v -10 15 13
v -10 15 12
v -10 19 13
v -10 19 12
v -10 23 13
v -10 23 12
v -10 27 13
v -10 27 12
v -10 31 13
v -10 31 12
v -7 0 13
v -7 0 12
v -7 6 13
v -7 6 12
v -7 10 14
v -7 10 13
v -7 11 14
v -7 11 13
v -7 18 14
v -7 18 13
v -7 19 14
v -7 19 13
v -7 26 14
v -7 26 13
v -7 27 14
v -7 27 13
v -4 11 13
v -4 11 12
v -4 15 13
v -4 15 12
v -4 19 13
v -4 19 12
v -4 23 13
v -4 23 12
v -4 27 13
v -4 27 12
v -4 31 13
v -4 31 12
v -2 33 8
v -2 33 3
v -2 36 8
v -2 36 3
v 0 11 13
v 0 11 12
v 0 15 13
v 0 15 12
v 0 19 13
v 0 19 12
v 0 23 13
v 0 23 12
v 0 27 13
v 0 27 12
v 0 31 13
v 0 31 12
v 3 10 14
v 3 10 13
v 3 11 14
v 3 11 13
v 3 18 14
v 3 18 13
v 3 19 14
v 3 19 13
v 3 26 14
v 3 26 13
v 3 27 14
v 3 27 13
v 6 11 13
v 6 11 12
v 6 15 13
v 6 15 12
v 6 19 13
v 6 19 12
v 6 23 13
v 6 23 12
v 6 27 13
v 6 27 12
v 6 31 13
v 6 31 12
v 6 33 8
v 6 33 -2
v 6 37 8
v 6 37 -2
v 7 2 13
v 7 2 12
v 7 6 13
v 7 6 12
v 10 11 13
v 10 11 12
v 10 15 13
v 10 15 12
v 10 19 13
v 10 19 12
v 10 23 13
v 10 23 12
v 10 27 13
v 10 27 12
v 10 31 13
v 10 31 12
v 13 10 14
v 13 10 13
v 13 11 14
v 13 11 13
v 13 18 14
v 13 18 13
v 13 19 14
v 13 19 13
v 13 26 14
v 13 26 13
v 13 27 14
v 13 27 13
v 15 0 13
v 15 0 -8
v 15 33 13
v 15 33 -8
v -14 10 14
v -14 11 14
v -14 18 14
v -14 19 14
v -14 26 14
v -14 27 14
v -7 10 14
v -7 11 14
v -7 18 14
v -7 19 14
v -7 26 14
v -7 27 14
v -4 10 14
v -4 11 14
v -4 18 14
v -4 19 14
v -4 26 14
v -4 27 14
v 3 10 14
v 3 11 14
v 3 18 14
v 3 19 14
v 3 26 14
v 3 27 14
v 6 10 14
v 6 11 14
v 6 18 14
v 6 19 14
v 6 26 14
v 6 27 14
v 13 10 14
v 13 11 14
v 13 18 14
v 13 19 14
v 13 26 14
v 13 27 14
v -16 0 13
v -16 33 13
v -14 2 13
v -14 6 13
v -14 10 13
v -14 11 13
v -14 15 13
v -14 18 13
v -14 19 13
v -14 23 13
v -14 26 13
v -14 27 13
v -14 31 13
v -11 11 13
v -11 15 13
v -11 19 13
v -11 23 13
v -11 27 13
v -11 31 13
v -10 11 13
v -10 15 13
v -10 19 13
v -10 23 13
v -10 27 13
v -10 31 13
v -8 2 13
v -8 6 13
v -7 0 13
v -7 6 13
v -7 10 13
v -7 11 13
v -7 15 13
v -7 18 13
v -7 19 13
v -7 23 13
v -7 26 13
v -7 27 13
v -7 31 13
v -4 10 13
v -4 11 13
v -4 15 13
v -4 18 13
v -4 19 13
v -4 23 13
v -4 26 13
v -4 27 13
v -4 31 13
v -2 7 13
v -2 8 13
v -1 6 13
v -1 7 13
v -1 8 13
v -1 9 13
v -1 11 13
v -1 15 13
v -1 19 13
v -1 23 13
v -1 27 13
v -1 31 13
v 0 6 13
v 0 7 13
v 0 8 13
v 0 9 13
v 0 11 13
v 0 15 13
v 0 19 13
v 0 23 13
v 0 27 13
v 0 31 13
v 1 7 13
v 1 8 13
v 3 10 13
v 3 11 13
v 3 15 13
v 3 18 13
v 3 19 13
v 3 23 13
v 3 26 13
v 3 27 13
v 3 31 13
v 6 0 13
v 6 6 13
v 6 10 13
v 6 11 13
v 6 15 13
v 6 18 13
v 6 19 13
v 6 23 13
v 6 26 13
v 6 27 13
v 6 31 13
v 7 2 13
v 7 6 13
v 9 11 13
v 9 15 13
v 9 19 13
v 9 23 13
v 9 27 13
v 9 31 13
v 10 11 13
v 10 15 13
v 10 19 13
v 10 23 13
v 10 27 13
v 10 31 13
v 13 2 13
v 13 6 13
v 13 10 13
v 13 11 13
v 13 15 13
v 13 18 13
v 13 19 13
v 13 23 13
v 13 26 13
v 13 27 13
v 13 31 13
v 15 0 13
v 15 33 13
v -14 2 12
v -14 6 12
v -14 11 12
v -14 15 12
v -14 19 12
v -14 23 12
v -14 27 12
v -14 31 12
v -11 11 12
v -11 15 12
v -11 19 12
v -11 23 12
v -11 27 12
v -11 31 12
v -10 11 12
v -10 15 12
v -10 19 12
v -10 23 12
v -10 27 12
v -10 31 12
v -8 2 12
v -8 6 12
v -7 0 12
v -7 6 12
v -7 11 12
v -7 15 12
v -7 19 12
v -7 23 12
v -7 27 12
v -7 31 12
v -4 11 12
v -4 15 12
v -4 19 12
v -4 23 12
v -4 27 12
v -4 31 12
v -1 6 12
v -1 11 12
v -1 15 12
v -1 19 12
v -1 23 12
v -1 27 12
v -1 31 12
v 0 6 12
v 0 11 12
v 0 15 12
v 0 19 12
v 0 23 12
v 0 27 12
v 0 31 12
v 3 11 12
v 3 15 12
v 3 19 12
v 3 23 12
v 3 27 12
v 3 31 12
v 6 0 12
v 6 6 12
v 6 11 12
v 6 15 12
v 6 19 12
v 6 23 12
v 6 27 12
v 6 31 12
v 7 2 12
v 7 6 12
v 9 11 12
v 9 15 12
v 9 19 12
v 9 23 12
v 9 27 12
v 9 31 12
v 10 11 12
v 10 15 12
v 10 19 12
v 10 23 12
v 10 27 12
v 10 31 12
v 13 2 12
v 13 6 12
v 13 11 12
v 13 15 12
v 13 19 12
v 13 23 12
v 13 27 12
v 13 31 12
v -6 33 8
v -6 37 8
v -2 33 8
v -2 36 8
v 2 33 8
v 2 36 8
v 6 33 8
v 6 37 8
v -2 33 3
v -2 36 3
v 2 33 3
v 2 36 3
v -6 33 -2
v -6 37 -2
v 6 33 -2
v 6 37 -2
v -16 0 -8
v -16 33 -8
v 15 0 -8
v 15 33 -8
v -16 0 13
v -7 0 13
v 6 0 13
v 15 0 13
v -15 0 12
v -7 0 12
v 6 0 12
v 14 0 12
v -7 0 11
v 6 0 11
v -15 0 -7
v 14 0 -7
v -16 0 -8
v 15 0 -8
v -14 6 13
v -8 6 13
v -7 6 13
v -1 6 13
v 0 6 13
v 6 6 13
v 7 6 13
v 13 6 13
v -14 6 12
v -8 6 12
v -7 6 12
v -1 6 12
v 0 6 12
v 6 6 12
v 7 6 12
v 13 6 12
v -14 10 14
v -7 10 14
v -4 10 14
v 3 10 14
v 6 10 14
v 13 10 14
v -14 10 13
v -7 10 13
v -4 10 13
v 3 10 13
v 6 10 13
v 13 10 13
v -14 15 13
v -11 15 13
v -10 15 13
v -7 15 13
v -4 15 13
v -1 15 13
v 0 15 13
v 3 15 13
v 6 15 13
v 9 15 13
v 10 15 13
v 13 15 13
v -14 15 12
v -11 15 12
v -10 15 12
v -7 15 12
v -4 15 12
v -1 15 12
v 0 15 12
v 3 15 12
v 6 15 12
v 9 15 12
v 10 15 12
v 13 15 12
v -14 18 14
v -7 18 14
v -4 18 14
v 3 18 14
v 6 18 14
v 13 18 14
v -14 18 13
v -7 18 13
v -4 18 13
v 3 18 13
v 6 18 13
v 13 18 13
v -14 23 13
v -11 23 13
v -10 23 13
v -7 23 13
v -4 23 13
v -1 23 13
v 0 23 13
v 3 23 13
v 6 23 13
v 9 23 13
v 10 23 13
v 13 23 13
v -14 23 12
v -11 23 12
v -10 23 12
v -7 23 12
v -4 23 12
v -1 23 12
v 0 23 12
v 3 23 12
v 6 23 12
v 9 23 12
v 10 23 12
v 13 23 12
v -14 26 14
v -7 26 14
v -4 26 14
v 3 26 14
v 6 26 14
v 13 26 14
v -14 26 13
v -7 26 13
v -4 26 13
v 3 26 13
v 6 26 13
v 13 26 13
v -14 31 13
v -11 31 13
v -10 31 13
v -7 31 13
v -4 31 13
v -1 31 13
v 0 31 13
v 3 31 13
v 6 31 13
v 9 31 13
v 10 31 13
v 13 31 13
v -14 31 12
v -11 31 12
v -10 31 12
v -7 31 12
v -4 31 12
v -1 31 12
v 0 31 12
v 3 31 12
v 6 31 12
v 9 31 12
v 10 31 12
v 13 31 12
v -2 36 8
v 2 36 8
v -2 36 3
v 2 36 3
v -14 2 13
v -8 2 13
v 7 2 13
v 13 2 13
v -14 2 12
v -8 2 12
v 7 2 12
v 13 2 12
v -14 11 14
v -7 11 14
v -4 11 14
v 3 11 14
v 6 11 14
v 13 11 14
v -14 11 13
v -11 11 13
v -10 11 13
v -7 11 13
v -4 11 13
v -1 11 13
v 0 11 13
v 3 11 13
v 6 11 13
v 9 11 13
v 10 11 13
v 13 11 13
v -14 11 12
v -11 11 12
v -10 11 12
v -7 11 12
v -4 11 12
v -1 11 12
v 0 11 12
v 3 11 12
v 6 11 12
v 9 11 12
v 10 11 12
v 13 11 12
v -14 19 14
v -7 19 14
v -4 19 14
v 3 19 14
v 6 19 14
v 13 19 14
v -14 19 13
v -11 19 13
v -10 19 13
v -7 19 13
v -4 19 13
v -1 19 13
v 0 19 13
v 3 19 13
v 6 19 13
v 9 19 13
v 10 19 13
v 13 19 13
v -14 19 12
v -11 19 12
v -10 19 12
v -7 19 12
v -4 19 12
v -1 19 12
v 0 19 12
v 3 19 12
v 6 19 12
v 9 19 12
v 10 19 12
v 13 19 12
v -14 27 14
v -7 27 14
v -4 27 14
v 3 27 14
v 6 27 14
v 13 27 14
v -14 27 13
v -11 27 13
v -10 27 13
v -7 27 13
v -4 27 13
v -1 27 13
v 0 27 13
v 3 27 13
v 6 27 13
v 9 27 13
v 10 27 13
v 13 27 13
v -14 27 12
v -11 27 12
v -10 27 12
v -7 27 12
v -4 27 12
v -1 27 12
v 0 27 12
v 3 27 12
v 6 27 12
v 9 27 12
v 10 27 12
v 13 27 12
v -16 33 13
v 15 33 13
v -6 33 8
v -2 33 8
v 2 33 8
v 6 33 8
v -2 33 3
v 2 33 3
v -6 33 -2
v 6 33 -2
v -16 33 -8
v 15 33 -8
v -6 37 8
v 6 37 8
v -6 37 -2
v 6 37 -2

# faces
f 3/2/1 2/2/1 1/2/1
f 4/2/1 2/2/1 3/2/1
f 7/2/1 6/2/1 5/2/1
f 8/2/1 6/2/1 7/2/1
f 11/2/1 10/2/1 9/2/1
f 12/2/1 10/2/1 11/2/1
f 15/2/1 14/2/1 13/2/1
f 16/2/1 14/2/1 15/2/1
f 19/2/1 18/2/1 17/2/1
f 20/2/1 18/2/1 19/2/1
f 23/2/1 22/2/1 21/2/1
f 24/2/1 22/2/1 23/2/1
f 27/2/1 26/2/1 25/2/1
f 28/2/1 26/2/1 27/2/1
f 31/2/1 30/2/1 29/2/1
f 32/2/1 30/2/1 31/2/1
f 35/2/1 34/2/1 33/2/1
f 36/2/1 34/2/1 35/2/1
f 39/2/1 38/2/1 37/2/1
f 40/2/1 38/2/1 39/2/1
f 43/2/1 42/2/1 41/2/1
f 44/2/1 42/2/1 43/2/1
f 47/3/1 46/3/1 45/3/1
f 48/3/1 46/3/1 47/3/1
f 51/2/1 50/2/1 49/2/1
f 52/2/1 50/2/1 51/2/1
f 55/2/1 54/2/1 53/2/1
f 56/2/1 54/2/1 55/2/1
f 59/2/1 58/2/1 57/2/1
f 60/2/1 58/2/1 59/2/1
f 63/2/1 62/2/1 61/2/1
f 64/2/1 62/2/1 63/2/1
f 67/2/1 66/2/1 65/2/1
f 68/2/1 66/2/1 67/2/1
f 71/2/1 70/2/1 69/2/1
f 72/2/1 70/2/1 71/2/1
f 75/3/1 74/3/1 73/3/1
f 76/3/1 74/3/1 75/3/1
f 79/2/1 78/2/1 77/2/1
f 80/2/1 78/2/1 79/2/1
f 83/2/1 82/2/1 81/2/1
f 84/2/1 82/2/1 83/2/1
f 87/2/1 86/2/1 85/2/1
f 88/2/1 86/2/1 87/2/1
f 91/2/1 90/2/1 89/2/1
f 92/2/1 90/2/1 91/2/1
f 95/2/1 94/2/1 93/2/1
f 96/2/1 94/2/1 95/2/1
f 99/2/1 98/2/1 97/2/1
f 100/2/1 98/2/1 99/2/1
f 103/2/1 102/2/1 101/2/1
f 104/2/1 102/2/1 103/2/1
f 107/2/1 106/2/1 105/2/1
f 108/2/1 106/2/1 107/2/1
f 111/2/1 110/2/1 109/2/1
f 112/2/1 110/2/1 111/2/1
f 115/2/1 114/2/1 113/2/1
f 116/2/1 114/2/1 115/2/1
f 119/2/1 118/2/1 117/2/1
f 120/2/1 118/2/1 119/2/1
f 123/2/1 122/2/1 121/2/1
f 124/2/1 122/2/1 123/2/1
f 127/2/1 126/2/1 125/2/1
f 128/2/1 126/2/1 127/2/1
f 131/2/1 130/2/1 129/2/1
f 132/2/1 130/2/1 131/2/1
f 133/2/2 134/2/2 135/2/2
f 135/2/2 134/2/2 136/2/2
f 137/2/2 138/2/2 139/2/2
f 139/2/2 138/2/2 140/2/2
f 141/2/2 142/2/2 143/2/2
f 143/2/2 142/2/2 144/2/2
f 145/2/2 146/2/2 147/2/2
f 147/2/2 146/2/2 148/2/2
f 149/2/2 150/2/2 151/2/2
f 151/2/2 150/2/2 152/2/2
f 153/2/2 154/2/2 155/2/2
f 155/2/2 154/2/2 156/2/2
f 157/2/2 158/2/2 159/2/2
f 159/2/2 158/2/2 160/2/2
f 161/2/2 162/2/2 163/2/2
f 163/2/2 162/2/2 164/2/2
f 165/2/2 166/2/2 167/2/2
f 167/2/2 166/2/2 168/2/2
f 169/2/2 170/2/2 171/2/2
f 171/2/2 170/2/2 172/2/2
f 173/2/2 174/2/2 175/2/2
f 175/2/2 174/2/2 176/2/2
f 177/2/2 178/2/2 179/2/2
f 179/2/2 178/2/2 180/2/2
f 181/2/2 182/2/2 183/2/2
f 183/2/2 182/2/2 184/2/2
f 185/2/2 186/2/2 187/2/2
f 187/2/2 186/2/2 188/2/2
f 189/3/2 190/3/2 191/3/2
f 191/3/2 190/3/2 192/3/2
f 193/2/2 194/2/2 195/2/2
f 195/2/2 194/2/2 196/2/2
f 197/2/2 198/2/2 199/2/2
f 199/2/2 198/2/2 200/2/2
f 201/2/2 202/2/2 203/2/2
f 203/2/2 202/2/2 204/2/2
f 205/2/2 206/2/2 207/2/2
f 207/2/2 206/2/2 208/2/2
f 209/2/2 210/2/2 211/2/2
f 211/2/2 210/2/2 212/2/2
f 213/2/2 214/2/2 215/2/2
f 215/2/2 214/2/2 216/2/2
f 217/2/2 218/2/2 219/2/2
f 219/2/2 218/2/2 220/2/2
f 221/2/2 222/2/2 223/2/2
f 223/2/2 222/2/2 224/2/2
f 225/2/2 226/2/2 227/2/2
f 227/2/2 226/2/2 228/2/2
f 229/3/2 230/3/2 231/3/2
f 231/3/2 230/3/2 232/3/2
f 233/2/2 234/2/2 235/2/2
f 235/2/2 234/2/2 236/2/2
f 237/2/2 238/2/2 239/2/2
f 239/2/2 238/2/2 240/2/2
f 241/2/2 242/2/2 243/2/2
f 243/2/2 242/2/2 244/2/2
f 245/2/2 246/2/2 247/2/2
f 247/2/2 246/2/2 248/2/2
f 249/2/2 250/2/2 251/2/2
f 251/2/2 250/2/2 252/2/2
f 253/2/2 254/2/2 255/2/2
f 255/2/2 254/2/2 256/2/2
f 257/2/2 258/2/2 259/2/2
f 259/2/2 258/2/2 260/2/2
f 261/2/2 262/2/2 263/2/2
f 263/2/2 262/2/2 264/2/2
f 271/2/3 266/2/3 265/2/3
f 272/2/3 266/2/3 271/2/3
f 273/2/3 268/2/3 267/2/3
f 274/2/3 268/2/3 273/2/3
f 275/2/3 270/2/3 269/2/3
f 276/2/3 270/2/3 275/2/3
f 283/2/3 278/2/3 277/2/3
f 284/2/3 278/2/3 283/2/3
f 285/2/3 280/2/3 279/2/3
f 286/2/3 280/2/3 285/2/3
f 287/2/3 282/2/3 281/2/3
f 288/2/3 282/2/3 287/2/3
f 295/2/3 290/2/3 289/2/3
f 296/2/3 290/2/3 295/2/3
f 297/2/3 292/2/3 291/2/3
f 298/2/3 292/2/3 297/2/3
f 299/2/3 294/2/3 293/2/3
f 300/2/3 294/2/3 299/2/3
f 303/2/3 302/2/3 301/2/3
f 304/2/3 302/2/3 303/2/3
f 305/2/3 302/2/3 304/2/3
f 306/2/3 302/2/3 305/2/3
f 307/2/3 302/2/3 306/2/3
f 308/2/3 302/2/3 307/2/3
f 309/2/3 302/2/3 308/2/3
f 310/2/3 302/2/3 309/2/3
f 311/2/3 302/2/3 310/2/3
f 312/2/3 302/2/3 311/2/3
f 313/2/3 302/2/3 312/2/3
f 315/2/3 308/2/3 307/2/3
f 317/2/3 311/2/3 310/2/3
f 319/2/3 302/2/3 313/2/3
f 320/2/3 315/2/3 314/2/3
f 321/2/3 308/2/3 315/2/3
f 321/2/3 315/2/3 320/2/3
f 322/2/3 317/2/3 316/2/3
f 323/2/3 311/2/3 317/2/3
f 323/2/3 317/2/3 322/2/3
f 324/2/3 319/2/3 318/2/3
f 325/2/3 302/2/3 319/2/3
f 325/2/3 319/2/3 324/2/3
f 326/2/3 303/2/3 301/2/3
f 327/2/3 305/2/3 304/2/3
f 328/2/3 326/2/3 301/2/3
f 328/2/3 327/2/3 326/2/3
f 329/2/3 305/2/3 327/2/3
f 329/2/3 327/2/3 328/2/3
f 330/2/3 305/2/3 329/2/3
f 332/2/3 308/2/3 321/2/3
f 333/2/3 308/2/3 332/2/3
f 335/2/3 311/2/3 323/2/3
f 336/2/3 311/2/3 335/2/3
f 338/2/3 302/2/3 325/2/3
f 339/2/3 337/2/3 336/2/3
f 339/2/3 338/2/3 337/2/3
f 339/2/3 331/2/3 330/2/3
f 339/2/3 334/2/3 333/2/3
f 339/2/3 336/2/3 335/2/3
f 339/2/3 335/2/3 334/2/3
f 339/2/3 333/2/3 332/2/3
f 339/2/3 332/2/3 331/2/3
f 339/2/3 330/2/3 329/2/3
f 340/2/3 338/2/3 339/2/3
f 341/2/3 338/2/3 340/2/3
f 342/2/3 338/2/3 341/2/3
f 343/2/3 338/2/3 342/2/3
f 344/2/3 338/2/3 343/2/3
f 345/2/3 338/2/3 344/2/3
f 346/2/3 338/2/3 345/2/3
f 347/2/3 302/2/3 338/2/3
f 347/2/3 338/2/3 346/2/3
f 348/2/3 339/2/3 329/2/3
f 349/2/3 339/2/3 348/2/3
f 350/2/3 348/2/3 329/2/3
f 351/3/3 349/3/3 348/3/3
f 351/2/3 348/2/3 350/2/3
f 352/2/3 339/2/3 349/2/3
f 352/3/3 349/3/3 351/3/3
f 353/2/3 339/2/3 352/2/3
f 355/2/3 342/2/3 341/2/3
f 357/2/3 345/2/3 344/2/3
f 359/2/3 302/2/3 347/2/3
f 360/3/3 351/3/3 350/3/3
f 360/3/3 352/3/3 351/3/3
f 360/3/3 353/3/3 352/3/3
f 361/3/3 353/3/3 360/3/3
f 362/3/3 353/3/3 361/3/3
f 363/2/3 339/2/3 353/2/3
f 363/3/3 353/3/3 362/3/3
f 364/2/3 355/2/3 354/2/3
f 365/2/3 342/2/3 355/2/3
f 365/2/3 355/2/3 364/2/3
f 366/2/3 357/2/3 356/2/3
f 367/2/3 345/2/3 357/2/3
f 367/2/3 357/2/3 366/2/3
f 368/2/3 359/2/3 358/2/3
f 369/2/3 302/2/3 359/2/3
f 369/2/3 359/2/3 368/2/3
f 370/3/3 362/3/3 361/3/3
f 370/2/3 361/2/3 360/2/3
f 371/2/3 363/2/3 362/2/3
f 371/3/3 362/3/3 370/3/3
f 372/2/3 339/2/3 363/2/3
f 372/2/3 363/2/3 371/2/3
f 372/2/3 371/2/3 370/2/3
f 374/2/3 342/2/3 365/2/3
f 375/2/3 342/2/3 374/2/3
f 377/2/3 345/2/3 367/2/3
f 378/2/3 345/2/3 377/2/3
f 380/2/3 302/2/3 369/2/3
f 382/2/3 373/2/3 372/2/3
f 382/2/3 380/2/3 379/2/3
f 382/2/3 370/2/3 360/2/3
f 382/2/3 379/2/3 378/2/3
f 382/2/3 378/2/3 377/2/3
f 382/2/3 377/2/3 376/2/3
f 382/2/3 376/2/3 375/2/3
f 382/2/3 375/2/3 374/2/3
f 382/2/3 374/2/3 373/2/3
f 382/2/3 372/2/3 370/2/3
f 383/2/3 380/2/3 382/2/3
f 384/2/3 380/2/3 383/2/3
f 385/2/3 380/2/3 384/2/3
f 386/2/3 380/2/3 385/2/3
f 387/2/3 380/2/3 386/2/3
f 388/2/3 380/2/3 387/2/3
f 389/2/3 380/2/3 388/2/3
f 390/2/3 380/2/3 389/2/3
f 391/2/3 302/2/3 380/2/3
f 391/2/3 380/2/3 390/2/3
f 392/2/3 382/2/3 381/2/3
f 392/2/3 383/2/3 382/2/3
f 393/2/3 383/2/3 392/2/3
f 395/2/3 386/2/3 385/2/3
f 397/2/3 389/2/3 388/2/3
f 399/2/3 302/2/3 391/2/3
f 400/2/3 395/2/3 394/2/3
f 401/2/3 386/2/3 395/2/3
f 401/2/3 395/2/3 400/2/3
f 402/2/3 397/2/3 396/2/3
f 403/2/3 389/2/3 397/2/3
f 403/2/3 397/2/3 402/2/3
f 404/2/3 399/2/3 398/2/3
f 405/2/3 302/2/3 399/2/3
f 405/2/3 399/2/3 404/2/3
f 406/2/3 392/2/3 381/2/3
f 407/2/3 383/2/3 393/2/3
f 408/2/3 383/2/3 407/2/3
f 410/2/3 386/2/3 401/2/3
f 411/2/3 386/2/3 410/2/3
f 413/2/3 389/2/3 403/2/3
f 414/2/3 389/2/3 413/2/3
f 416/2/3 302/2/3 405/2/3
f 417/2/3 409/2/3 408/2/3
f 417/2/3 416/2/3 415/2/3
f 417/2/3 412/2/3 411/2/3
f 417/2/3 406/2/3 381/2/3
f 417/2/3 414/2/3 413/2/3
f 417/2/3 413/2/3 412/2/3
f 417/2/3 415/2/3 414/2/3
f 417/2/3 411/2/3 410/2/3
f 417/2/3 410/2/3 409/2/3
f 417/2/3 407/2/3 406/2/3
f 417/2/3 408/2/3 407/2/3
f 418/2/3 302/2/3 416/2/3
f 418/2/3 416/2/3 417/2/3
f 427/4/3 422/4/3 421/4/3
f 428/4/3 422/4/3 427/4/3
f 429/4/3 424/4/3 423/4/3
f 430/4/3 424/4/3 429/4/3
f 431/4/3 426/4/3 425/4/3
f 432/4/3 426/4/3 431/4/3
f 439/4/3 420/4/3 419/4/3
f 440/4/3 420/4/3 439/4/3
f 443/4/3 434/4/3 433/4/3
f 444/4/3 434/4/3 443/4/3
f 445/4/3 436/4/3 435/4/3
f 446/4/3 436/4/3 445/4/3
f 447/4/3 438/4/3 437/4/3
f 448/4/3 438/4/3 447/4/3
f 455/4/3 442/4/3 441/4/3
f 456/4/3 450/4/3 449/4/3
f 457/4/3 450/4/3 456/4/3
f 458/4/3 452/4/3 451/4/3
f 459/4/3 452/4/3 458/4/3
f 460/4/3 454/4/3 453/4/3
f 461/4/3 454/4/3 460/4/3
f 462/4/3 455/4/3 441/4/3
f 469/4/3 464/4/3 463/4/3
f 470/4/3 464/4/3 469/4/3
f 471/4/3 466/4/3 465/4/3
f 472/4/3 466/4/3 471/4/3
f 473/4/3 468/4/3 467/4/3
f 474/4/3 468/4/3 473/4/3
f 475/4/3 462/4/3 441/4/3
f 476/4/3 462/4/3 475/4/3
f 485/4/3 478/4/3 477/4/3
f 486/4/3 478/4/3 485/4/3
f 487/4/3 480/4/3 479/4/3
f 488/4/3 480/4/3 487/4/3
f 489/4/3 482/4/3 481/4/3
f 490/4/3 482/4/3 489/4/3
f 497/4/3 484/4/3 483/4/3
f 498/4/3 484/4/3 497/4/3
f 499/4/3 492/4/3 491/4/3
f 500/4/3 492/4/3 499/4/3
f 501/4/3 494/4/3 493/4/3
f 502/4/3 494/4/3 501/4/3
f 503/4/3 496/4/3 495/4/3
f 504/4/3 496/4/3 503/4/3
f 507/3/3 506/3/3 505/3/3
f 508/3/3 506/3/3 507/3/3
f 510/3/3 506/3/3 508/3/3
f 511/3/3 510/3/3 509/3/3
f 512/3/3 506/3/3 510/3/3
f 512/3/3 510/3/3 511/3/3
f 515/3/3 514/3/3 513/3/3
f 516/3/3 514/3/3 515/3/3
f 517/3/4 518/3/4 519/3/4
f 519/3/4 518/3/4 520/3/4
f 521/2/4 522/2/4 523/2/4
f 523/2/4 522/2/4 524/2/4
f 529/2/5 526/2/5 525/2/5
f 530/2/5 526/2/5 529/2/5
f 531/2/5 528/2/5 527/2/5
f 532/2/5 528/2/5 531/2/5
f 533/1/5 530/1/5 529/1/5
f 533/4/5 531/4/5 530/4/5
f 534/1/5 532/1/5 531/1/5
f 534/4/5 531/4/5 533/4/5
f 535/2/5 529/2/5 525/2/5
f 535/1/5 533/1/5 529/1/5
f 535/1/5 534/1/5 533/1/5
f 536/2/5 528/2/5 532/2/5
f 536/1/5 534/1/5 535/1/5
f 536/1/5 532/1/5 534/1/5
f 537/2/5 535/2/5 525/2/5
f 537/2/5 536/2/5 535/2/5
f 538/2/5 528/2/5 536/2/5
f 538/2/5 536/2/5 537/2/5
f 547/2/5 540/2/5 539/2/5
f 548/2/5 540/2/5 547/2/5
f 549/2/5 542/2/5 541/2/5
f 550/3/5 543/3/5 542/3/5
f 550/2/5 542/2/5 549/2/5
f 551/2/5 544/2/5 543/2/5
f 551/3/5 543/3/5 550/3/5
f 552/2/5 544/2/5 551/2/5
f 553/2/5 546/2/5 545/2/5
f 554/2/5 546/2/5 553/2/5
f 561/2/5 556/2/5 555/2/5
f 562/2/5 556/2/5 561/2/5
f 563/2/5 558/2/5 557/2/5
f 564/2/5 558/2/5 563/2/5
f 565/2/5 560/2/5 559/2/5
f 566/2/5 560/2/5 565/2/5
f 579/2/5 568/2/5 567/2/5
f 580/2/5 568/2/5 579/2/5
f 581/2/5 570/2/5 569/2/5
f 582/2/5 570/2/5 581/2/5
f 583/2/5 572/2/5 571/2/5
f 584/2/5 572/2/5 583/2/5
f 585/2/5 574/2/5 573/2/5
f 586/2/5 574/2/5 585/2/5
f 587/2/5 576/2/5 575/2/5
f 588/2/5 576/2/5 587/2/5
f 589/2/5 578/2/5 577/2/5
f 590/2/5 578/2/5 589/2/5
f 597/2/5 592/2/5 591/2/5
f 598/2/5 592/2/5 597/2/5
f 599/2/5 594/2/5 593/2/5
f 600/2/5 594/2/5 599/2/5
f 601/2/5 596/2/5 595/2/5
f 602/2/5 596/2/5 601/2/5
f 615/2/5 604/2/5 603/2/5
f 616/2/5 604/2/5 615/2/5
f 617/2/5 606/2/5 605/2/5
f 618/2/5 606/2/5 617/2/5
f 619/2/5 608/2/5 607/2/5
f 620/2/5 608/2/5 619/2/5
f 621/2/5 610/2/5 609/2/5
f 622/2/5 610/2/5 621/2/5
f 623/2/5 612/2/5 611/2/5
f 624/2/5 612/2/5 623/2/5
f 625/2/5 614/2/5 613/2/5
f 626/2/5 614/2/5 625/2/5
f 633/2/5 628/2/5 627/2/5
f 634/2/5 628/2/5 633/2/5
f 635/2/5 630/2/5 629/2/5
f 636/2/5 630/2/5 635/2/5
f 637/2/5 632/2/5 631/2/5
f 638/2/5 632/2/5 637/2/5
f 651/2/5 640/2/5 639/2/5
f 652/2/5 640/2/5 651/2/5
f 653/2/5 642/2/5 641/2/5
f 654/2/5 642/2/5 653/2/5
f 655/2/5 644/2/5 643/2/5
f 656/2/5 644/2/5 655/2/5
f 657/2/5 646/2/5 645/2/5
f 658/2/5 646/2/5 657/2/5
f 659/2/5 648/2/5 647/2/5
f 660/2/5 648/2/5 659/2/5
f 661/2/5 650/2/5 649/2/5
f 662/2/5 650/2/5 661/2/5
f 665/3/5 664/3/5 663/3/5
f 666/3/5 664/3/5 665/3/5
f 667/2/6 668/2/6 671/2/6
f 671/2/6 668/2/6 672/2/6
f 669/2/6 670/2/6 673/2/6
f 673/2/6 670/2/6 674/2/6
f 675/2/6 676/2/6 681/2/6
f 681/2/6 676/2/6 682/2/6
f 682/2/6 676/2/6 683/2/6
f 683/2/6 676/2/6 684/2/6
f 677/2/6 678/2/6 685/2/6
f 685/2/6 678/2/6 686/2/6
f 686/2/6 678/2/6 687/2/6
f 687/2/6 678/2/6 688/2/6
f 679/2/6 680/2/6 689/2/6
f 689/2/6 680/2/6 690/2/6
f 690/2/6 680/2/6 691/2/6
f 691/2/6 680/2/6 692/2/6
f 681/2/6 682/2/6 693/2/6
f 693/2/6 682/2/6 694/2/6
f 683/2/6 684/2/6 695/2/6
f 695/2/6 684/2/6 696/2/6
f 685/2/6 686/2/6 697/2/6
f 697/2/6 686/2/6 698/2/6
f 687/2/6 688/2/6 699/2/6
f 699/2/6 688/2/6 700/2/6
f 689/2/6 690/2/6 701/2/6
f 701/2/6 690/2/6 702/2/6
f 691/2/6 692/2/6 703/2/6
f 703/2/6 692/2/6 704/2/6
f 705/2/6 706/2/6 711/2/6
f 711/2/6 706/2/6 712/2/6
f 712/2/6 706/2/6 713/2/6
f 713/2/6 706/2/6 714/2/6
f 707/2/6 708/2/6 715/2/6
f 715/2/6 708/2/6 716/2/6
f 716/2/6 708/2/6 717/2/6
f 717/2/6 708/2/6 718/2/6
f 709/2/6 710/2/6 719/2/6
f 719/2/6 710/2/6 720/2/6
f 720/2/6 710/2/6 721/2/6
f 721/2/6 710/2/6 722/2/6
f 711/2/6 712/2/6 723/2/6
f 723/2/6 712/2/6 724/2/6
f 713/2/6 714/2/6 725/2/6
f 725/2/6 714/2/6 726/2/6
f 715/2/6 716/2/6 727/2/6
f 727/2/6 716/2/6 728/2/6
f 717/2/6 718/2/6 729/2/6
f 729/2/6 718/2/6 730/2/6
f 719/2/6 720/2/6 731/2/6
f 731/2/6 720/2/6 732/2/6
f 721/2/6 722/2/6 733/2/6
f 733/2/6 722/2/6 734/2/6
f 735/2/6 736/2/6 741/2/6
f 741/2/6 736/2/6 742/2/6
f 742/2/6 736/2/6 743/2/6
f 743/2/6 736/2/6 744/2/6
f 737/2/6 738/2/6 745/2/6
f 745/2/6 738/2/6 746/2/6
f 746/2/6 738/2/6 747/2/6
f 747/2/6 738/2/6 748/2/6
f 739/2/6 740/2/6 749/2/6
f 749/2/6 740/2/6 750/2/6
f 750/2/6 740/2/6 751/2/6
f 751/2/6 740/2/6 752/2/6
f 741/2/6 742/2/6 753/2/6
f 753/2/6 742/2/6 754/2/6
f 743/2/6 744/2/6 755/2/6
f 755/2/6 744/2/6 756/2/6
f 745/2/6 746/2/6 757/2/6
f 757/2/6 746/2/6 758/2/6
f 747/2/6 748/2/6 759/2/6
f 759/2/6 748/2/6 760/2/6
f 749/2/6 750/2/6 761/2/6
f 761/2/6 750/2/6 762/2/6
f 751/2/6 752/2/6 763/2/6
f 763/2/6 752/2/6 764/2/6
f 765/2/6 766/2/6 767/2/6
f 767/2/6 766/2/6 768/2/6
f 768/2/6 766/2/6 769/2/6
f 769/2/6 766/2/6 770/2/6
f 768/2/6 769/2/6 771/2/6
f 771/2/6 769/2/6 772/2/6
f 765/2/6 767/2/6 773/2/6
f 770/2/6 766/2/6 774/2/6
f 765/2/6 773/2/6 775/2/6
f 773/2/6 774/2/6 775/2/6
f 774/2/6 766/2/6 776/2/6
f 775/2/6 774/2/6 776/2/6
f 777/3/6 778/3/6 779/3/6
f 779/3/6 778/3/6 780/3/6
